M48
;Layer_Color=9474304
;FILE_FORMAT=2:5
INCH,LZ
;TYPE=PLATED
T1F00S00C0.02800
T2F00S00C0.03543
T4F00S00C0.04370
T5F00S00C0.06496
T6F00S00C0.08700
%
T01
X00935Y0108
X0046Y0109
Y0099
Y0089
Y0079
X0007Y0074
X0125Y01335
T02
X0098Y00135
X0108
X0118
X0108Y00265
X0098
X01425Y0031
X01525
Y0043
X01425
Y0019
X01525
Y0007
X01425
X0144Y0096
X0154
X0134
X0124
X0114
X0104
T04
X0078Y0019
Y0029
Y0039
Y0049
Y0059
Y0069
Y0079
Y0089
Y0099
Y0109
Y0119
X0018
Y0109
Y0099
Y0089
Y0079
Y0069
Y0059
Y0049
Y0039
Y0029
Y0019
Y0129
Y0139
Y0149
Y0159
X0078
Y0149
Y0139
Y0129
T05
X0078Y0009
X0018
Y0169
X0078
T06
X0007Y0007
Y01725
X01535
M30
