G04*
G04 #@! TF.GenerationSoftware,Altium Limited,Altium Designer,21.2.2 (38)*
G04*
G04 Layer_Physical_Order=2*
G04 Layer_Color=16711680*
%FSLAX25Y25*%
%MOIN*%
G70*
G04*
G04 #@! TF.SameCoordinates,C48038F6-0F47-47EE-9322-7A70BF747E44*
G04*
G04*
G04 #@! TF.FilePolarity,Positive*
G04*
G01*
G75*
%ADD29C,0.01000*%
%ADD30C,0.06000*%
%ADD31R,0.05906X0.05906*%
%ADD32C,0.05906*%
%ADD33R,0.06555X0.06555*%
%ADD34C,0.06555*%
%ADD35C,0.09744*%
%ADD36O,0.10000X0.07000*%
%ADD37C,0.05000*%
G36*
X160500Y0D02*
X0D01*
Y179500D01*
X160500D01*
Y0D01*
D02*
G37*
%LPC*%
G36*
X154204Y177850D02*
X152796D01*
X151435Y177485D01*
X150215Y176781D01*
X149219Y175785D01*
X148515Y174565D01*
X148150Y173204D01*
Y171796D01*
X148515Y170435D01*
X149219Y169215D01*
X150215Y168219D01*
X151435Y167515D01*
X152796Y167150D01*
X154204D01*
X155565Y167515D01*
X156785Y168219D01*
X157781Y169215D01*
X158485Y170435D01*
X158850Y171796D01*
Y173204D01*
X158485Y174565D01*
X157781Y175785D01*
X156785Y176781D01*
X155565Y177485D01*
X154204Y177850D01*
D02*
G37*
G36*
X78578Y174872D02*
X77422D01*
X76287Y174646D01*
X75219Y174204D01*
X74257Y173561D01*
X73439Y172743D01*
X72796Y171781D01*
X72354Y170713D01*
X72128Y169578D01*
Y168422D01*
X72354Y167287D01*
X72796Y166219D01*
X73439Y165257D01*
X74257Y164439D01*
X75219Y163796D01*
X76122Y163422D01*
X76180Y162938D01*
X76165Y162880D01*
X75374Y162423D01*
X74577Y161627D01*
X74014Y160651D01*
X73722Y159563D01*
Y158437D01*
X74014Y157349D01*
X74577Y156374D01*
X75374Y155577D01*
X76349Y155014D01*
X77437Y154722D01*
X78563D01*
X79651Y155014D01*
X80626Y155577D01*
X81423Y156374D01*
X81986Y157349D01*
X82278Y158437D01*
Y159563D01*
X81986Y160651D01*
X81423Y161627D01*
X80626Y162423D01*
X79835Y162880D01*
X79820Y162938D01*
X79878Y163422D01*
X80781Y163796D01*
X81743Y164439D01*
X82561Y165257D01*
X83204Y166219D01*
X83646Y167287D01*
X83872Y168422D01*
Y169578D01*
X83646Y170713D01*
X83204Y171781D01*
X82561Y172743D01*
X81743Y173561D01*
X80781Y174204D01*
X79713Y174646D01*
X78578Y174872D01*
D02*
G37*
G36*
X7704Y177850D02*
X6296D01*
X4935Y177485D01*
X3715Y176781D01*
X2719Y175785D01*
X2015Y174565D01*
X1650Y173204D01*
Y171796D01*
X2015Y170435D01*
X2719Y169215D01*
X3715Y168219D01*
X4935Y167515D01*
X6296Y167150D01*
X7704D01*
X9065Y167515D01*
X10285Y168219D01*
X11281Y169215D01*
X11685Y169915D01*
X12159Y169736D01*
X12128Y169578D01*
Y168422D01*
X12354Y167287D01*
X12796Y166219D01*
X13439Y165257D01*
X14257Y164439D01*
X15218Y163796D01*
X15264Y163778D01*
X15164Y163278D01*
X13722D01*
Y154722D01*
X22278D01*
Y163278D01*
X20836D01*
X20736Y163778D01*
X20782Y163796D01*
X21743Y164439D01*
X22561Y165257D01*
X23204Y166219D01*
X23646Y167287D01*
X23872Y168422D01*
Y169578D01*
X23646Y170713D01*
X23204Y171781D01*
X22561Y172743D01*
X21743Y173561D01*
X20782Y174204D01*
X19713Y174646D01*
X18578Y174872D01*
X17422D01*
X16287Y174646D01*
X15218Y174204D01*
X14257Y173561D01*
X13439Y172743D01*
X12850Y171862D01*
X12570Y171886D01*
X12350Y171988D01*
Y173204D01*
X11985Y174565D01*
X11281Y175785D01*
X10285Y176781D01*
X9065Y177485D01*
X7704Y177850D01*
D02*
G37*
G36*
X78563Y153278D02*
X77437D01*
X76349Y152986D01*
X75374Y152423D01*
X74577Y151627D01*
X74014Y150651D01*
X73722Y149563D01*
Y148437D01*
X74014Y147349D01*
X74577Y146373D01*
X75374Y145577D01*
X76349Y145014D01*
X77437Y144722D01*
X78563D01*
X79651Y145014D01*
X80626Y145577D01*
X81423Y146373D01*
X81986Y147349D01*
X82278Y148437D01*
Y149563D01*
X81986Y150651D01*
X81423Y151627D01*
X80626Y152423D01*
X79651Y152986D01*
X78563Y153278D01*
D02*
G37*
G36*
X18563D02*
X17437D01*
X16349Y152986D01*
X15373Y152423D01*
X14577Y151627D01*
X14014Y150651D01*
X13722Y149563D01*
Y148437D01*
X14014Y147349D01*
X14577Y146373D01*
X15373Y145577D01*
X16349Y145014D01*
X17437Y144722D01*
X18563D01*
X19651Y145014D01*
X20627Y145577D01*
X21423Y146373D01*
X21986Y147349D01*
X22278Y148437D01*
Y149563D01*
X21986Y150651D01*
X21423Y151627D01*
X20627Y152423D01*
X19651Y152986D01*
X18563Y153278D01*
D02*
G37*
G36*
X78563Y143278D02*
X77437D01*
X76349Y142986D01*
X75374Y142423D01*
X74577Y141627D01*
X74014Y140651D01*
X73722Y139563D01*
Y138437D01*
X74014Y137349D01*
X74577Y136373D01*
X75374Y135577D01*
X76349Y135014D01*
X77437Y134722D01*
X78563D01*
X79651Y135014D01*
X80626Y135577D01*
X81423Y136373D01*
X81986Y137349D01*
X82278Y138437D01*
Y139563D01*
X81986Y140651D01*
X81423Y141627D01*
X80626Y142423D01*
X79651Y142986D01*
X78563Y143278D01*
D02*
G37*
G36*
X18563D02*
X17437D01*
X16349Y142986D01*
X15373Y142423D01*
X14577Y141627D01*
X14014Y140651D01*
X13722Y139563D01*
Y138437D01*
X14014Y137349D01*
X14577Y136373D01*
X15373Y135577D01*
X16349Y135014D01*
X17437Y134722D01*
X18563D01*
X19651Y135014D01*
X20627Y135577D01*
X21423Y136373D01*
X21986Y137349D01*
X22278Y138437D01*
Y139563D01*
X21986Y140651D01*
X21423Y141627D01*
X20627Y142423D01*
X19651Y142986D01*
X18563Y143278D01*
D02*
G37*
G36*
X125500Y136989D02*
Y134000D01*
X128489D01*
X128261Y134851D01*
X127801Y135649D01*
X127149Y136301D01*
X126351Y136761D01*
X125500Y136989D01*
D02*
G37*
G36*
X124500D02*
X123649Y136761D01*
X122851Y136301D01*
X122199Y135649D01*
X121739Y134851D01*
X121511Y134000D01*
X124500D01*
Y136989D01*
D02*
G37*
G36*
X128489Y133000D02*
X125500D01*
Y130010D01*
X126351Y130238D01*
X127149Y130699D01*
X127801Y131351D01*
X128261Y132149D01*
X128489Y133000D01*
D02*
G37*
G36*
X124500D02*
X121511D01*
X121739Y132149D01*
X122199Y131351D01*
X122851Y130699D01*
X123649Y130238D01*
X124500Y130010D01*
Y133000D01*
D02*
G37*
G36*
X99500Y133039D02*
X98500D01*
Y129000D01*
X103973D01*
X103884Y129675D01*
X103431Y130769D01*
X102709Y131709D01*
X101769Y132431D01*
X100675Y132884D01*
X99500Y133039D01*
D02*
G37*
G36*
X97500D02*
X96500D01*
X95325Y132884D01*
X94231Y132431D01*
X93291Y131709D01*
X92569Y130769D01*
X92116Y129675D01*
X92027Y129000D01*
X97500D01*
Y133039D01*
D02*
G37*
G36*
X78563Y133278D02*
X77437D01*
X76349Y132986D01*
X75374Y132423D01*
X74577Y131626D01*
X74014Y130651D01*
X73722Y129563D01*
Y128437D01*
X74014Y127349D01*
X74577Y126374D01*
X75374Y125577D01*
X76349Y125014D01*
X77437Y124722D01*
X78563D01*
X79651Y125014D01*
X80626Y125577D01*
X81423Y126374D01*
X81986Y127349D01*
X82278Y128437D01*
Y129563D01*
X81986Y130651D01*
X81423Y131626D01*
X80626Y132423D01*
X79651Y132986D01*
X78563Y133278D01*
D02*
G37*
G36*
X18563D02*
X17437D01*
X16349Y132986D01*
X15373Y132423D01*
X14577Y131626D01*
X14014Y130651D01*
X13722Y129563D01*
Y128437D01*
X14014Y127349D01*
X14577Y126374D01*
X15373Y125577D01*
X16349Y125014D01*
X17437Y124722D01*
X18563D01*
X19651Y125014D01*
X20627Y125577D01*
X21423Y126374D01*
X21986Y127349D01*
X22278Y128437D01*
Y129563D01*
X21986Y130651D01*
X21423Y131626D01*
X20627Y132423D01*
X19651Y132986D01*
X18563Y133278D01*
D02*
G37*
G36*
X103973Y128000D02*
X98500D01*
Y123961D01*
X99500D01*
X100675Y124116D01*
X101769Y124569D01*
X102709Y125291D01*
X103431Y126231D01*
X103884Y127325D01*
X103973Y128000D01*
D02*
G37*
G36*
X97500D02*
X92027D01*
X92116Y127325D01*
X92569Y126231D01*
X93291Y125291D01*
X94231Y124569D01*
X95325Y124116D01*
X96500Y123961D01*
X97500D01*
Y128000D01*
D02*
G37*
G36*
X78563Y123278D02*
X77437D01*
X76349Y122986D01*
X75374Y122423D01*
X74577Y121626D01*
X74014Y120651D01*
X73722Y119563D01*
Y118437D01*
X74014Y117349D01*
X74577Y116374D01*
X75374Y115577D01*
X76349Y115014D01*
X77437Y114722D01*
X78563D01*
X79651Y115014D01*
X80626Y115577D01*
X81423Y116374D01*
X81986Y117349D01*
X82278Y118437D01*
Y119563D01*
X81986Y120651D01*
X81423Y121626D01*
X80626Y122423D01*
X79651Y122986D01*
X78563Y123278D01*
D02*
G37*
G36*
X18563D02*
X17437D01*
X16349Y122986D01*
X15373Y122423D01*
X14577Y121626D01*
X14014Y120651D01*
X13722Y119563D01*
Y118437D01*
X14014Y117349D01*
X14577Y116374D01*
X15373Y115577D01*
X16349Y115014D01*
X17437Y114722D01*
X18563D01*
X19651Y115014D01*
X20627Y115577D01*
X21423Y116374D01*
X21986Y117349D01*
X22278Y118437D01*
Y119563D01*
X21986Y120651D01*
X21423Y121626D01*
X20627Y122423D01*
X19651Y122986D01*
X18563Y123278D01*
D02*
G37*
G36*
X46500Y112489D02*
Y109500D01*
X49490D01*
X49262Y110351D01*
X48801Y111149D01*
X48149Y111801D01*
X47351Y112261D01*
X46500Y112489D01*
D02*
G37*
G36*
X45500D02*
X44649Y112261D01*
X43851Y111801D01*
X43199Y111149D01*
X42739Y110351D01*
X42511Y109500D01*
X45500D01*
Y112489D01*
D02*
G37*
G36*
X49490Y108500D02*
X46500D01*
Y105510D01*
X47351Y105738D01*
X48149Y106199D01*
X48801Y106851D01*
X49262Y107649D01*
X49490Y108500D01*
D02*
G37*
G36*
X45500D02*
X42511D01*
X42739Y107649D01*
X43199Y106851D01*
X43851Y106199D01*
X44649Y105738D01*
X45500Y105510D01*
Y108500D01*
D02*
G37*
G36*
X78563Y113278D02*
X77437D01*
X76349Y112986D01*
X75374Y112423D01*
X74577Y111627D01*
X74014Y110651D01*
X73722Y109563D01*
Y108437D01*
X74014Y107349D01*
X74577Y106374D01*
X75374Y105577D01*
X76349Y105014D01*
X77437Y104722D01*
X78563D01*
X79651Y105014D01*
X80626Y105577D01*
X81423Y106374D01*
X81986Y107349D01*
X82278Y108437D01*
Y109563D01*
X81986Y110651D01*
X81423Y111627D01*
X80626Y112423D01*
X79651Y112986D01*
X78563Y113278D01*
D02*
G37*
G36*
X18563D02*
X17437D01*
X16349Y112986D01*
X15373Y112423D01*
X14577Y111627D01*
X14014Y110651D01*
X13722Y109563D01*
Y108437D01*
X14014Y107349D01*
X14577Y106374D01*
X15373Y105577D01*
X16349Y105014D01*
X17437Y104722D01*
X18563D01*
X19651Y105014D01*
X20627Y105577D01*
X21423Y106374D01*
X21986Y107349D01*
X22278Y108437D01*
Y109563D01*
X21986Y110651D01*
X21423Y111627D01*
X20627Y112423D01*
X19651Y112986D01*
X18563Y113278D01*
D02*
G37*
G36*
X93961Y111500D02*
X93039D01*
X92149Y111261D01*
X91351Y110801D01*
X90699Y110149D01*
X90342Y109529D01*
X88000D01*
X87415Y109413D01*
X86919Y109081D01*
X85658Y107821D01*
X85326Y107325D01*
X85210Y106739D01*
Y41616D01*
X82740Y39146D01*
X82278Y39337D01*
Y39563D01*
X81986Y40651D01*
X81423Y41627D01*
X80626Y42423D01*
X79651Y42986D01*
X78563Y43278D01*
X77437D01*
X76349Y42986D01*
X75374Y42423D01*
X74577Y41627D01*
X74014Y40651D01*
X73722Y39563D01*
Y38437D01*
X74014Y37349D01*
X74577Y36373D01*
X74737Y36214D01*
X74546Y35752D01*
X73722D01*
X73137Y35635D01*
X72641Y35304D01*
X69919Y32581D01*
X69587Y32085D01*
X69471Y31500D01*
Y21500D01*
X69587Y20915D01*
X69919Y20419D01*
X72419Y17919D01*
X72915Y17587D01*
X73500Y17471D01*
X73722D01*
Y14722D01*
X75164D01*
X75264Y14222D01*
X75219Y14204D01*
X74257Y13561D01*
X73439Y12743D01*
X72796Y11781D01*
X72354Y10713D01*
X72128Y9578D01*
Y8422D01*
X72354Y7287D01*
X72796Y6219D01*
X73439Y5257D01*
X74257Y4439D01*
X75219Y3796D01*
X76287Y3354D01*
X77422Y3128D01*
X78578D01*
X79713Y3354D01*
X80781Y3796D01*
X81743Y4439D01*
X82561Y5257D01*
X83204Y6219D01*
X83646Y7287D01*
X83872Y8422D01*
Y9578D01*
X83646Y10713D01*
X83204Y11781D01*
X82561Y12743D01*
X81743Y13561D01*
X80781Y14204D01*
X80736Y14222D01*
X80836Y14722D01*
X82278D01*
Y23278D01*
X73722D01*
Y21594D01*
X73260Y21402D01*
X72529Y22133D01*
Y30867D01*
X74356Y32693D01*
X74937D01*
X75144Y32193D01*
X74577Y31626D01*
X74014Y30651D01*
X73722Y29563D01*
Y28437D01*
X74014Y27349D01*
X74577Y26373D01*
X75374Y25577D01*
X76349Y25014D01*
X77437Y24722D01*
X78563D01*
X79651Y25014D01*
X80626Y25577D01*
X81423Y26373D01*
X81986Y27349D01*
X82019Y27471D01*
X84000D01*
X84585Y27587D01*
X85081Y27919D01*
X92581Y35419D01*
X92913Y35915D01*
X93029Y36500D01*
Y45861D01*
X93529Y46107D01*
X94231Y45569D01*
X95325Y45116D01*
X96500Y44961D01*
X99500D01*
X100675Y45116D01*
X101769Y45569D01*
X102709Y46291D01*
X103431Y47231D01*
X103884Y48325D01*
X104039Y49500D01*
X103884Y50675D01*
X103431Y51769D01*
X102709Y52709D01*
X101769Y53431D01*
X100675Y53884D01*
X99500Y54039D01*
X96500D01*
X95325Y53884D01*
X94231Y53431D01*
X93529Y52893D01*
X93029Y53139D01*
Y56366D01*
X125081Y88419D01*
X125413Y88915D01*
X125529Y89500D01*
Y92319D01*
X126427Y92837D01*
X127163Y93573D01*
X127683Y94474D01*
X127953Y95480D01*
Y96520D01*
X127683Y97526D01*
X127163Y98427D01*
X126427Y99163D01*
X125526Y99683D01*
X124520Y99953D01*
X123480D01*
X122474Y99683D01*
X121573Y99163D01*
X120837Y98427D01*
X120317Y97526D01*
X120047Y96520D01*
Y95480D01*
X120317Y94474D01*
X120837Y93573D01*
X121573Y92837D01*
X122471Y92319D01*
Y90134D01*
X90419Y58081D01*
X90087Y57585D01*
X89971Y57000D01*
Y37133D01*
X83367Y30529D01*
X82019D01*
X81986Y30651D01*
X81423Y31626D01*
X80703Y32346D01*
X80687Y32399D01*
X80690Y32694D01*
X80746Y32931D01*
X81060Y33141D01*
X87821Y39902D01*
X88152Y40398D01*
X88269Y40983D01*
Y106106D01*
X88634Y106471D01*
X90342D01*
X90699Y105851D01*
X91351Y105199D01*
X92149Y104738D01*
X93039Y104500D01*
X93961D01*
X94851Y104738D01*
X95649Y105199D01*
X96301Y105851D01*
X96762Y106649D01*
X97000Y107539D01*
Y108461D01*
X96762Y109351D01*
X96301Y110149D01*
X95649Y110801D01*
X94851Y111261D01*
X93961Y111500D01*
D02*
G37*
G36*
X46500Y102489D02*
Y99500D01*
X49490D01*
X49262Y100351D01*
X48801Y101149D01*
X48149Y101801D01*
X47351Y102261D01*
X46500Y102489D01*
D02*
G37*
G36*
X45500D02*
X44649Y102261D01*
X43851Y101801D01*
X43199Y101149D01*
X42739Y100351D01*
X42511Y99500D01*
X45500D01*
Y102489D01*
D02*
G37*
G36*
X134520Y99953D02*
X134500D01*
Y96500D01*
X137953D01*
Y96520D01*
X137683Y97526D01*
X137163Y98427D01*
X136427Y99163D01*
X135526Y99683D01*
X134520Y99953D01*
D02*
G37*
G36*
X133500D02*
X133480D01*
X132474Y99683D01*
X131573Y99163D01*
X130837Y98427D01*
X130317Y97526D01*
X130047Y96520D01*
Y96500D01*
X133500D01*
Y99953D01*
D02*
G37*
G36*
X49490Y98500D02*
X46500D01*
Y95511D01*
X47351Y95739D01*
X48149Y96199D01*
X48801Y96851D01*
X49262Y97649D01*
X49490Y98500D01*
D02*
G37*
G36*
X45500D02*
X42511D01*
X42739Y97649D01*
X43199Y96851D01*
X43851Y96199D01*
X44649Y95739D01*
X45500Y95511D01*
Y98500D01*
D02*
G37*
G36*
X78563Y103278D02*
X77437D01*
X76349Y102986D01*
X75374Y102423D01*
X74577Y101627D01*
X74014Y100651D01*
X73722Y99563D01*
Y98437D01*
X74014Y97349D01*
X74577Y96373D01*
X75374Y95577D01*
X76349Y95014D01*
X77437Y94722D01*
X78563D01*
X79651Y95014D01*
X80626Y95577D01*
X81423Y96373D01*
X81986Y97349D01*
X82278Y98437D01*
Y99563D01*
X81986Y100651D01*
X81423Y101627D01*
X80626Y102423D01*
X79651Y102986D01*
X78563Y103278D01*
D02*
G37*
G36*
X18563D02*
X17437D01*
X16349Y102986D01*
X15373Y102423D01*
X14577Y101627D01*
X14014Y100651D01*
X13722Y99563D01*
Y98437D01*
X14014Y97349D01*
X14577Y96373D01*
X15373Y95577D01*
X16349Y95014D01*
X17437Y94722D01*
X18563D01*
X19651Y95014D01*
X20627Y95577D01*
X21423Y96373D01*
X21986Y97349D01*
X22278Y98437D01*
Y99563D01*
X21986Y100651D01*
X21423Y101627D01*
X20627Y102423D01*
X19651Y102986D01*
X18563Y103278D01*
D02*
G37*
G36*
X157953Y99953D02*
X150047D01*
Y92047D01*
X157953D01*
Y99953D01*
D02*
G37*
G36*
X144520D02*
X143480D01*
X142474Y99683D01*
X141573Y99163D01*
X140837Y98427D01*
X140317Y97526D01*
X140047Y96520D01*
Y95480D01*
X140317Y94474D01*
X140837Y93573D01*
X141573Y92837D01*
X142474Y92317D01*
X143480Y92047D01*
X144520D01*
X145526Y92317D01*
X146427Y92837D01*
X147163Y93573D01*
X147683Y94474D01*
X147953Y95480D01*
Y96520D01*
X147683Y97526D01*
X147163Y98427D01*
X146427Y99163D01*
X145526Y99683D01*
X144520Y99953D01*
D02*
G37*
G36*
X137953Y95500D02*
X134500D01*
Y92047D01*
X134520D01*
X135526Y92317D01*
X136427Y92837D01*
X137163Y93573D01*
X137683Y94474D01*
X137953Y95480D01*
Y95500D01*
D02*
G37*
G36*
X133500D02*
X130047D01*
Y95480D01*
X130317Y94474D01*
X130837Y93573D01*
X131573Y92837D01*
X132474Y92317D01*
X133480Y92047D01*
X133500D01*
Y95500D01*
D02*
G37*
G36*
X114520Y99953D02*
X113480D01*
X112474Y99683D01*
X111573Y99163D01*
X110837Y98427D01*
X110317Y97526D01*
X110047Y96520D01*
Y95480D01*
X110317Y94474D01*
X110837Y93573D01*
X111573Y92837D01*
X112474Y92317D01*
X113480Y92047D01*
X114520D01*
X115526Y92317D01*
X116427Y92837D01*
X117163Y93573D01*
X117683Y94474D01*
X117953Y95480D01*
Y96520D01*
X117683Y97526D01*
X117163Y98427D01*
X116427Y99163D01*
X115526Y99683D01*
X114520Y99953D01*
D02*
G37*
G36*
X104520D02*
X103480D01*
X102474Y99683D01*
X101573Y99163D01*
X100837Y98427D01*
X100317Y97526D01*
X100047Y96520D01*
Y95480D01*
X100317Y94474D01*
X100837Y93573D01*
X101573Y92837D01*
X102474Y92317D01*
X103480Y92047D01*
X104520D01*
X105526Y92317D01*
X106427Y92837D01*
X107163Y93573D01*
X107683Y94474D01*
X107953Y95480D01*
Y96520D01*
X107683Y97526D01*
X107163Y98427D01*
X106427Y99163D01*
X105526Y99683D01*
X104520Y99953D01*
D02*
G37*
G36*
X46500Y92489D02*
Y89500D01*
X49490D01*
X49262Y90351D01*
X48801Y91149D01*
X48149Y91801D01*
X47351Y92261D01*
X46500Y92489D01*
D02*
G37*
G36*
X45500D02*
X44649Y92261D01*
X43851Y91801D01*
X43199Y91149D01*
X42739Y90351D01*
X42511Y89500D01*
X45500D01*
Y92489D01*
D02*
G37*
G36*
X49490Y88500D02*
X46500D01*
Y85510D01*
X47351Y85738D01*
X48149Y86199D01*
X48801Y86851D01*
X49262Y87649D01*
X49490Y88500D01*
D02*
G37*
G36*
X45500D02*
X42511D01*
X42739Y87649D01*
X43199Y86851D01*
X43851Y86199D01*
X44649Y85738D01*
X45500Y85510D01*
Y88500D01*
D02*
G37*
G36*
X78563Y93278D02*
X77437D01*
X76349Y92986D01*
X75374Y92423D01*
X74577Y91627D01*
X74014Y90651D01*
X73722Y89563D01*
Y88437D01*
X74014Y87349D01*
X74577Y86374D01*
X75374Y85577D01*
X76349Y85014D01*
X77437Y84722D01*
X78563D01*
X79651Y85014D01*
X80626Y85577D01*
X81423Y86374D01*
X81986Y87349D01*
X82278Y88437D01*
Y89563D01*
X81986Y90651D01*
X81423Y91627D01*
X80626Y92423D01*
X79651Y92986D01*
X78563Y93278D01*
D02*
G37*
G36*
X18563D02*
X17437D01*
X16349Y92986D01*
X15373Y92423D01*
X14577Y91627D01*
X14014Y90651D01*
X13722Y89563D01*
Y88437D01*
X14014Y87349D01*
X14577Y86374D01*
X15373Y85577D01*
X16349Y85014D01*
X17437Y84722D01*
X18563D01*
X19651Y85014D01*
X20627Y85577D01*
X21423Y86374D01*
X21986Y87349D01*
X22278Y88437D01*
Y89563D01*
X21986Y90651D01*
X21423Y91627D01*
X20627Y92423D01*
X19651Y92986D01*
X18563Y93278D01*
D02*
G37*
G36*
X46500Y82490D02*
Y79500D01*
X49490D01*
X49262Y80351D01*
X48801Y81149D01*
X48149Y81801D01*
X47351Y82262D01*
X46500Y82490D01*
D02*
G37*
G36*
X45500D02*
X44649Y82262D01*
X43851Y81801D01*
X43199Y81149D01*
X42739Y80351D01*
X42511Y79500D01*
X45500D01*
Y82490D01*
D02*
G37*
G36*
X49490Y78500D02*
X46500D01*
Y75511D01*
X47351Y75739D01*
X48149Y76199D01*
X48801Y76851D01*
X49262Y77649D01*
X49490Y78500D01*
D02*
G37*
G36*
X45500D02*
X42511D01*
X42739Y77649D01*
X43199Y76851D01*
X43851Y76199D01*
X44649Y75739D01*
X45500Y75511D01*
Y78500D01*
D02*
G37*
G36*
X78563Y83278D02*
X77437D01*
X76349Y82986D01*
X75374Y82423D01*
X74577Y81626D01*
X74014Y80651D01*
X73722Y79563D01*
Y78437D01*
X74014Y77349D01*
X74577Y76373D01*
X75374Y75577D01*
X76349Y75014D01*
X77437Y74722D01*
X78563D01*
X79651Y75014D01*
X80626Y75577D01*
X81423Y76373D01*
X81986Y77349D01*
X82278Y78437D01*
Y79563D01*
X81986Y80651D01*
X81423Y81626D01*
X80626Y82423D01*
X79651Y82986D01*
X78563Y83278D01*
D02*
G37*
G36*
X18563D02*
X17437D01*
X16349Y82986D01*
X15373Y82423D01*
X14577Y81626D01*
X14014Y80651D01*
X13722Y79563D01*
Y78437D01*
X14014Y77349D01*
X14577Y76373D01*
X15373Y75577D01*
X16349Y75014D01*
X17437Y74722D01*
X18563D01*
X19651Y75014D01*
X20627Y75577D01*
X21423Y76373D01*
X21986Y77349D01*
X22278Y78437D01*
Y79563D01*
X21986Y80651D01*
X21423Y81626D01*
X20627Y82423D01*
X19651Y82986D01*
X18563Y83278D01*
D02*
G37*
G36*
X7500Y77490D02*
Y74500D01*
X10490D01*
X10261Y75351D01*
X9801Y76149D01*
X9149Y76801D01*
X8351Y77262D01*
X7500Y77490D01*
D02*
G37*
G36*
X6500D02*
X5649Y77262D01*
X4851Y76801D01*
X4199Y76149D01*
X3739Y75351D01*
X3511Y74500D01*
X6500D01*
Y77490D01*
D02*
G37*
G36*
X10490Y73500D02*
X7500D01*
Y70511D01*
X8351Y70739D01*
X9149Y71199D01*
X9801Y71851D01*
X10261Y72649D01*
X10490Y73500D01*
D02*
G37*
G36*
X6500D02*
X3511D01*
X3739Y72649D01*
X4199Y71851D01*
X4851Y71199D01*
X5649Y70739D01*
X6500Y70511D01*
Y73500D01*
D02*
G37*
G36*
X78563Y73278D02*
X77437D01*
X76349Y72986D01*
X75374Y72423D01*
X74577Y71627D01*
X74014Y70651D01*
X73722Y69563D01*
Y68437D01*
X74014Y67349D01*
X74577Y66373D01*
X75374Y65577D01*
X76349Y65014D01*
X77437Y64722D01*
X78563D01*
X79651Y65014D01*
X80626Y65577D01*
X81423Y66373D01*
X81986Y67349D01*
X82278Y68437D01*
Y69563D01*
X81986Y70651D01*
X81423Y71627D01*
X80626Y72423D01*
X79651Y72986D01*
X78563Y73278D01*
D02*
G37*
G36*
X18563D02*
X17437D01*
X16349Y72986D01*
X15373Y72423D01*
X14577Y71627D01*
X14014Y70651D01*
X13722Y69563D01*
Y68437D01*
X14014Y67349D01*
X14577Y66373D01*
X15373Y65577D01*
X16349Y65014D01*
X17437Y64722D01*
X18563D01*
X19651Y65014D01*
X20627Y65577D01*
X21423Y66373D01*
X21986Y67349D01*
X22278Y68437D01*
Y69563D01*
X21986Y70651D01*
X21423Y71627D01*
X20627Y72423D01*
X19651Y72986D01*
X18563Y73278D01*
D02*
G37*
G36*
X78563Y63278D02*
X77437D01*
X76349Y62986D01*
X75374Y62423D01*
X74577Y61626D01*
X74014Y60651D01*
X73722Y59563D01*
Y58437D01*
X74014Y57349D01*
X74577Y56374D01*
X75374Y55577D01*
X76349Y55014D01*
X77437Y54722D01*
X78563D01*
X79651Y55014D01*
X80626Y55577D01*
X81423Y56374D01*
X81986Y57349D01*
X82278Y58437D01*
Y59563D01*
X81986Y60651D01*
X81423Y61626D01*
X80626Y62423D01*
X79651Y62986D01*
X78563Y63278D01*
D02*
G37*
G36*
X18563D02*
X17437D01*
X16349Y62986D01*
X15373Y62423D01*
X14577Y61626D01*
X14014Y60651D01*
X13722Y59563D01*
Y58437D01*
X14014Y57349D01*
X14577Y56374D01*
X15373Y55577D01*
X16349Y55014D01*
X17437Y54722D01*
X18563D01*
X19651Y55014D01*
X20627Y55577D01*
X21423Y56374D01*
X21986Y57349D01*
X22278Y58437D01*
Y59563D01*
X21986Y60651D01*
X21423Y61626D01*
X20627Y62423D01*
X19651Y62986D01*
X18563Y63278D01*
D02*
G37*
G36*
X78563Y53278D02*
X78500D01*
Y49500D01*
X82278D01*
Y49563D01*
X81986Y50651D01*
X81423Y51626D01*
X80626Y52423D01*
X79651Y52986D01*
X78563Y53278D01*
D02*
G37*
G36*
X77500D02*
X77437D01*
X76349Y52986D01*
X75374Y52423D01*
X74577Y51626D01*
X74014Y50651D01*
X73722Y49563D01*
Y49500D01*
X77500D01*
Y53278D01*
D02*
G37*
G36*
X82278Y48500D02*
X78500D01*
Y44722D01*
X78563D01*
X79651Y45014D01*
X80626Y45577D01*
X81423Y46374D01*
X81986Y47349D01*
X82278Y48437D01*
Y48500D01*
D02*
G37*
G36*
X77500D02*
X73722D01*
Y48437D01*
X74014Y47349D01*
X74577Y46374D01*
X75374Y45577D01*
X76349Y45014D01*
X77437Y44722D01*
X77500D01*
Y48500D01*
D02*
G37*
G36*
X18563Y53278D02*
X17437D01*
X16349Y52986D01*
X15373Y52423D01*
X14577Y51626D01*
X14014Y50651D01*
X13722Y49563D01*
Y48437D01*
X14014Y47349D01*
X14577Y46374D01*
X15373Y45577D01*
X16349Y45014D01*
X17437Y44722D01*
X18563D01*
X19651Y45014D01*
X20627Y45577D01*
X21423Y46374D01*
X21986Y47349D01*
X22278Y48437D01*
Y49563D01*
X21986Y50651D01*
X21423Y51626D01*
X20627Y52423D01*
X19651Y52986D01*
X18563Y53278D01*
D02*
G37*
G36*
X156453Y46953D02*
X148547D01*
Y39047D01*
X156453D01*
Y46953D01*
D02*
G37*
G36*
X143020D02*
X141980D01*
X140974Y46683D01*
X140073Y46163D01*
X139337Y45427D01*
X138817Y44526D01*
X138547Y43520D01*
Y42480D01*
X138817Y41474D01*
X139337Y40573D01*
X140073Y39837D01*
X140974Y39317D01*
X141980Y39047D01*
X143020D01*
X144026Y39317D01*
X144927Y39837D01*
X145663Y40573D01*
X146183Y41474D01*
X146453Y42480D01*
Y43520D01*
X146183Y44526D01*
X145663Y45427D01*
X144927Y46163D01*
X144026Y46683D01*
X143020Y46953D01*
D02*
G37*
G36*
X18563Y43278D02*
X17437D01*
X16349Y42986D01*
X15373Y42423D01*
X14577Y41627D01*
X14014Y40651D01*
X13722Y39563D01*
Y38437D01*
X14014Y37349D01*
X14577Y36373D01*
X15373Y35577D01*
X16349Y35014D01*
X17437Y34722D01*
X18563D01*
X19651Y35014D01*
X20627Y35577D01*
X21423Y36373D01*
X21986Y37349D01*
X22278Y38437D01*
Y39563D01*
X21986Y40651D01*
X21423Y41627D01*
X20627Y42423D01*
X19651Y42986D01*
X18563Y43278D01*
D02*
G37*
G36*
Y33278D02*
X18500D01*
Y29500D01*
X22278D01*
Y29563D01*
X21986Y30651D01*
X21423Y31626D01*
X20627Y32423D01*
X19651Y32986D01*
X18563Y33278D01*
D02*
G37*
G36*
X17500D02*
X17437D01*
X16349Y32986D01*
X15373Y32423D01*
X14577Y31626D01*
X14014Y30651D01*
X13722Y29563D01*
Y29500D01*
X17500D01*
Y33278D01*
D02*
G37*
G36*
X156453Y34953D02*
X148547D01*
Y27047D01*
X156453D01*
Y34953D01*
D02*
G37*
G36*
X143020D02*
X141980D01*
X140974Y34683D01*
X140073Y34163D01*
X139337Y33427D01*
X138817Y32526D01*
X138547Y31520D01*
Y30480D01*
X138817Y29474D01*
X139337Y28573D01*
X140073Y27837D01*
X140974Y27317D01*
X141980Y27047D01*
X143020D01*
X144026Y27317D01*
X144927Y27837D01*
X145663Y28573D01*
X146183Y29474D01*
X146453Y30480D01*
Y31520D01*
X146183Y32526D01*
X145663Y33427D01*
X144927Y34163D01*
X144026Y34683D01*
X143020Y34953D01*
D02*
G37*
G36*
X22278Y28500D02*
X18500D01*
Y24722D01*
X18563D01*
X19651Y25014D01*
X20627Y25577D01*
X21423Y26373D01*
X21986Y27349D01*
X22278Y28437D01*
Y28500D01*
D02*
G37*
G36*
X17500D02*
X13722D01*
Y28437D01*
X14014Y27349D01*
X14577Y26373D01*
X15373Y25577D01*
X16349Y25014D01*
X17437Y24722D01*
X17500D01*
Y28500D01*
D02*
G37*
G36*
X111953Y30453D02*
X104047D01*
Y22547D01*
X111953D01*
Y30453D01*
D02*
G37*
G36*
X98520D02*
X97480D01*
X96474Y30183D01*
X95573Y29663D01*
X94837Y28927D01*
X94317Y28026D01*
X94047Y27020D01*
Y25980D01*
X94317Y24974D01*
X94837Y24073D01*
X95573Y23337D01*
X96474Y22817D01*
X97480Y22547D01*
X98520D01*
X99526Y22817D01*
X100427Y23337D01*
X101163Y24073D01*
X101683Y24974D01*
X101953Y25980D01*
Y27020D01*
X101683Y28026D01*
X101163Y28927D01*
X100427Y29663D01*
X99526Y30183D01*
X98520Y30453D01*
D02*
G37*
G36*
X156453Y22953D02*
X148547D01*
Y15047D01*
X156453D01*
Y22953D01*
D02*
G37*
G36*
X143020D02*
X141980D01*
X140974Y22683D01*
X140073Y22163D01*
X139337Y21427D01*
X138817Y20526D01*
X138547Y19520D01*
Y18480D01*
X138817Y17474D01*
X139337Y16573D01*
X140073Y15837D01*
X140974Y15317D01*
X141980Y15047D01*
X143020D01*
X144026Y15317D01*
X144927Y15837D01*
X145663Y16573D01*
X146183Y17474D01*
X146453Y18480D01*
Y19520D01*
X146183Y20526D01*
X145663Y21427D01*
X144927Y22163D01*
X144026Y22683D01*
X143020Y22953D01*
D02*
G37*
G36*
X108520Y17453D02*
X108500D01*
Y14000D01*
X111953D01*
Y14020D01*
X111683Y15026D01*
X111163Y15927D01*
X110427Y16663D01*
X109526Y17183D01*
X108520Y17453D01*
D02*
G37*
G36*
X107500D02*
X107480D01*
X106474Y17183D01*
X105573Y16663D01*
X104837Y15927D01*
X104317Y15026D01*
X104047Y14020D01*
Y14000D01*
X107500D01*
Y17453D01*
D02*
G37*
G36*
X18563Y23278D02*
X17437D01*
X16349Y22986D01*
X15373Y22423D01*
X14577Y21626D01*
X14014Y20651D01*
X13722Y19563D01*
Y18437D01*
X14014Y17349D01*
X14577Y16374D01*
X15373Y15577D01*
X16165Y15120D01*
X16180Y15062D01*
X16122Y14578D01*
X15218Y14204D01*
X14257Y13561D01*
X13439Y12743D01*
X12796Y11781D01*
X12354Y10713D01*
X12163Y9757D01*
X11640Y9663D01*
X11281Y10285D01*
X10285Y11281D01*
X9065Y11985D01*
X7704Y12350D01*
X6296D01*
X4935Y11985D01*
X3715Y11281D01*
X2719Y10285D01*
X2015Y9065D01*
X1650Y7704D01*
Y6296D01*
X2015Y4935D01*
X2719Y3715D01*
X3715Y2719D01*
X4935Y2015D01*
X6296Y1650D01*
X7704D01*
X9065Y2015D01*
X10285Y2719D01*
X11281Y3715D01*
X11985Y4935D01*
X12300Y6110D01*
X12632Y6182D01*
X12833Y6164D01*
X13439Y5257D01*
X14257Y4439D01*
X15218Y3796D01*
X16287Y3354D01*
X17422Y3128D01*
X18578D01*
X19713Y3354D01*
X20782Y3796D01*
X21743Y4439D01*
X22561Y5257D01*
X23204Y6219D01*
X23646Y7287D01*
X23872Y8422D01*
Y9578D01*
X23646Y10713D01*
X23204Y11781D01*
X22561Y12743D01*
X21743Y13561D01*
X20782Y14204D01*
X19878Y14578D01*
X19820Y15062D01*
X19835Y15120D01*
X20627Y15577D01*
X21423Y16374D01*
X21986Y17349D01*
X22278Y18437D01*
Y19563D01*
X21986Y20651D01*
X21423Y21626D01*
X20627Y22423D01*
X19651Y22986D01*
X18563Y23278D01*
D02*
G37*
G36*
X118520Y17453D02*
X117480D01*
X116474Y17183D01*
X115573Y16663D01*
X114837Y15927D01*
X114317Y15026D01*
X114047Y14020D01*
Y12980D01*
X114317Y11974D01*
X114837Y11073D01*
X115573Y10337D01*
X116474Y9817D01*
X117480Y9547D01*
X118520D01*
X119526Y9817D01*
X120427Y10337D01*
X121163Y11073D01*
X121683Y11974D01*
X121953Y12980D01*
Y14020D01*
X121683Y15026D01*
X121163Y15927D01*
X120427Y16663D01*
X119526Y17183D01*
X118520Y17453D01*
D02*
G37*
G36*
X111953Y13000D02*
X108500D01*
Y9547D01*
X108520D01*
X109526Y9817D01*
X110427Y10337D01*
X111163Y11073D01*
X111683Y11974D01*
X111953Y12980D01*
Y13000D01*
D02*
G37*
G36*
X107500D02*
X104047D01*
Y12980D01*
X104317Y11974D01*
X104837Y11073D01*
X105573Y10337D01*
X106474Y9817D01*
X107480Y9547D01*
X107500D01*
Y13000D01*
D02*
G37*
G36*
X101953Y17453D02*
X94047D01*
Y9547D01*
X101953D01*
Y17453D01*
D02*
G37*
G36*
X156453Y10953D02*
X148547D01*
Y3047D01*
X156453D01*
Y10953D01*
D02*
G37*
G36*
X143020D02*
X141980D01*
X140974Y10683D01*
X140073Y10163D01*
X139337Y9427D01*
X138817Y8526D01*
X138547Y7520D01*
Y6480D01*
X138817Y5474D01*
X139337Y4573D01*
X140073Y3837D01*
X140974Y3317D01*
X141980Y3047D01*
X143020D01*
X144026Y3317D01*
X144927Y3837D01*
X145663Y4573D01*
X146183Y5474D01*
X146453Y6480D01*
Y7520D01*
X146183Y8526D01*
X145663Y9427D01*
X144927Y10163D01*
X144026Y10683D01*
X143020Y10953D01*
D02*
G37*
%LPD*%
D29*
X91500Y36500D02*
Y57000D01*
X124000Y89500D02*
Y96000D01*
X91500Y57000D02*
X124000Y89500D01*
X86739Y106739D02*
X88000Y108000D01*
X86739Y40983D02*
Y106739D01*
X88000Y108000D02*
X93500D01*
X84000Y29000D02*
X91500Y36500D01*
X78000Y29000D02*
X84000D01*
X71000Y31500D02*
X73722Y34222D01*
X79979D01*
X71000Y21500D02*
Y31500D01*
Y21500D02*
X73500Y19000D01*
X78000D01*
X79979Y34222D02*
X86739Y40983D01*
D30*
X7000Y7000D02*
D03*
Y172500D02*
D03*
X153500D02*
D03*
D31*
X108000Y26500D02*
D03*
X98000Y13500D02*
D03*
X152500Y31000D02*
D03*
Y43000D02*
D03*
Y19000D02*
D03*
Y7000D02*
D03*
X154000Y96000D02*
D03*
D32*
X98000Y26500D02*
D03*
X108000Y13500D02*
D03*
X118000D02*
D03*
X142500Y31000D02*
D03*
Y43000D02*
D03*
Y19000D02*
D03*
Y7000D02*
D03*
X144000Y96000D02*
D03*
X134000D02*
D03*
X124000D02*
D03*
X114000D02*
D03*
X104000D02*
D03*
D33*
X18000Y159000D02*
D03*
X78000Y19000D02*
D03*
D34*
X18000Y149000D02*
D03*
Y139000D02*
D03*
Y129000D02*
D03*
Y119000D02*
D03*
Y109000D02*
D03*
Y99000D02*
D03*
Y89000D02*
D03*
Y79000D02*
D03*
Y69000D02*
D03*
Y59000D02*
D03*
Y49000D02*
D03*
Y39000D02*
D03*
Y29000D02*
D03*
Y19000D02*
D03*
X78000Y29000D02*
D03*
Y39000D02*
D03*
Y49000D02*
D03*
Y59000D02*
D03*
Y69000D02*
D03*
Y79000D02*
D03*
Y89000D02*
D03*
Y99000D02*
D03*
Y109000D02*
D03*
Y119000D02*
D03*
Y129000D02*
D03*
Y139000D02*
D03*
Y149000D02*
D03*
Y159000D02*
D03*
D35*
X18000Y169000D02*
D03*
X78000D02*
D03*
Y9000D02*
D03*
X18000D02*
D03*
D36*
X98000Y49500D02*
D03*
Y128500D02*
D03*
D37*
X93500Y108000D02*
D03*
X46000Y109000D02*
D03*
Y99000D02*
D03*
Y89000D02*
D03*
Y79000D02*
D03*
X7000Y74000D02*
D03*
X125000Y133500D02*
D03*
M02*
