G04*
G04 #@! TF.GenerationSoftware,Altium Limited,Altium Designer,21.2.2 (38)*
G04*
G04 Layer_Color=16711935*
%FSLAX25Y25*%
%MOIN*%
G70*
G04*
G04 #@! TF.SameCoordinates,C48038F6-0F47-47EE-9322-7A70BF747E44*
G04*
G04*
G04 #@! TF.FilePolarity,Negative*
G04*
G01*
G75*
%ADD17C,0.06800*%
%ADD18R,0.06706X0.06706*%
%ADD19C,0.06706*%
%ADD20R,0.07355X0.07355*%
%ADD21C,0.07355*%
%ADD22C,0.10544*%
%ADD23O,0.10800X0.07800*%
%ADD24C,0.05800*%
D17*
X7000Y7000D02*
D03*
Y172500D02*
D03*
X153500D02*
D03*
D18*
X108000Y26500D02*
D03*
X98000Y13500D02*
D03*
X152500Y31000D02*
D03*
Y43000D02*
D03*
Y19000D02*
D03*
Y7000D02*
D03*
X154000Y96000D02*
D03*
D19*
X98000Y26500D02*
D03*
X108000Y13500D02*
D03*
X118000D02*
D03*
X142500Y31000D02*
D03*
Y43000D02*
D03*
Y19000D02*
D03*
Y7000D02*
D03*
X144000Y96000D02*
D03*
X134000D02*
D03*
X124000D02*
D03*
X114000D02*
D03*
X104000D02*
D03*
D20*
X18000Y159000D02*
D03*
X78000Y19000D02*
D03*
D21*
X18000Y149000D02*
D03*
Y139000D02*
D03*
Y129000D02*
D03*
Y119000D02*
D03*
Y109000D02*
D03*
Y99000D02*
D03*
Y89000D02*
D03*
Y79000D02*
D03*
Y69000D02*
D03*
Y59000D02*
D03*
Y49000D02*
D03*
Y39000D02*
D03*
Y29000D02*
D03*
Y19000D02*
D03*
X78000Y29000D02*
D03*
Y39000D02*
D03*
Y49000D02*
D03*
Y59000D02*
D03*
Y69000D02*
D03*
Y79000D02*
D03*
Y89000D02*
D03*
Y99000D02*
D03*
Y109000D02*
D03*
Y119000D02*
D03*
Y129000D02*
D03*
Y139000D02*
D03*
Y149000D02*
D03*
Y159000D02*
D03*
D22*
X18000Y169000D02*
D03*
X78000D02*
D03*
Y9000D02*
D03*
X18000D02*
D03*
D23*
X98000Y49500D02*
D03*
Y128500D02*
D03*
D24*
X93500Y108000D02*
D03*
X46000Y109000D02*
D03*
Y99000D02*
D03*
Y89000D02*
D03*
Y79000D02*
D03*
X7000Y74000D02*
D03*
X125000Y133500D02*
D03*
M02*
