G04*
G04 #@! TF.GenerationSoftware,Altium Limited,Altium Designer,21.2.2 (38)*
G04*
G04 Layer_Color=32896*
%FSLAX25Y25*%
%MOIN*%
G70*
G04*
G04 #@! TF.SameCoordinates,C48038F6-0F47-47EE-9322-7A70BF747E44*
G04*
G04*
G04 #@! TF.FilePolarity,Positive*
G04*
G01*
G75*
%ADD29C,0.01000*%
G36*
X44528Y146568D02*
Y146524D01*
X44523Y146430D01*
X44512Y146319D01*
X44501Y146213D01*
X44495Y146113D01*
X44490Y146069D01*
X44484Y146030D01*
Y145997D01*
X44478Y145975D01*
Y145958D01*
Y145952D01*
X44556Y145991D01*
X44651Y146036D01*
X44750Y146080D01*
X44850Y146119D01*
X44939Y146152D01*
X44984Y146169D01*
X45017Y146185D01*
X45045Y146191D01*
X45067Y146202D01*
X45078Y146208D01*
X45083D01*
X45200Y145836D01*
X44972Y145775D01*
X44867Y145753D01*
X44767Y145730D01*
X44684Y145714D01*
X44651Y145703D01*
X44617Y145697D01*
X44595Y145692D01*
X44578D01*
X44567Y145686D01*
X44562D01*
X44589Y145664D01*
X44617Y145630D01*
X44684Y145558D01*
X44756Y145481D01*
X44828Y145397D01*
X44895Y145320D01*
X44945Y145253D01*
X44967Y145225D01*
X44984Y145209D01*
X44989Y145197D01*
X44995Y145192D01*
X44689Y144975D01*
X44634Y145053D01*
X44573Y145142D01*
X44517Y145236D01*
X44462Y145325D01*
X44418Y145403D01*
X44384Y145469D01*
X44368Y145497D01*
X44356Y145514D01*
X44351Y145525D01*
Y145530D01*
X44279Y145408D01*
X44207Y145297D01*
X44146Y145203D01*
X44096Y145120D01*
X44051Y145059D01*
X44018Y145014D01*
X43996Y144987D01*
X43990Y144975D01*
X43679Y145192D01*
X43779Y145314D01*
X43874Y145420D01*
X43946Y145503D01*
X44012Y145575D01*
X44062Y145625D01*
X44101Y145658D01*
X44123Y145680D01*
X44129Y145686D01*
X44007Y145703D01*
X43890Y145725D01*
X43779Y145753D01*
X43679Y145775D01*
X43596Y145797D01*
X43563Y145808D01*
X43529Y145819D01*
X43507Y145825D01*
X43491Y145830D01*
X43479Y145836D01*
X43474D01*
X43596Y146208D01*
X43724Y146163D01*
X43840Y146119D01*
X43946Y146074D01*
X44034Y146036D01*
X44107Y146002D01*
X44162Y145975D01*
X44184Y145963D01*
X44201Y145958D01*
X44207Y145952D01*
X44212D01*
X44195Y146091D01*
X44179Y146219D01*
X44173Y146335D01*
X44162Y146430D01*
X44157Y146502D01*
X44151Y146563D01*
Y146579D01*
Y146596D01*
Y146602D01*
Y146607D01*
X44528D01*
Y146568D01*
D02*
G37*
D29*
X151021Y89000D02*
G03*
X151021Y89000I-53521J0D01*
G01*
X98000Y56000D02*
Y62000D01*
X95000Y59000D02*
X101000D01*
M02*
