G04*
G04 #@! TF.GenerationSoftware,Altium Limited,Altium Designer,21.2.2 (38)*
G04*
G04 Layer_Color=255*
%FSLAX25Y25*%
%MOIN*%
G70*
G04*
G04 #@! TF.SameCoordinates,C48038F6-0F47-47EE-9322-7A70BF747E44*
G04*
G04*
G04 #@! TF.FilePolarity,Positive*
G04*
G01*
G75*
%ADD25R,0.05118X0.07087*%
%ADD26R,0.07087X0.05118*%
%ADD27R,0.06496X0.04724*%
%ADD28R,0.04724X0.06496*%
%ADD30C,0.06000*%
%ADD31R,0.05906X0.05906*%
%ADD32C,0.05906*%
%ADD33R,0.06555X0.06555*%
%ADD34C,0.06555*%
%ADD35C,0.09744*%
%ADD36O,0.10000X0.07000*%
D25*
X133083Y78500D02*
D03*
X144500D02*
D03*
D26*
X7000Y60417D02*
D03*
Y49000D02*
D03*
D27*
X125000Y107988D02*
D03*
Y119012D02*
D03*
D28*
X102988Y108000D02*
D03*
X114012D02*
D03*
X58476Y109000D02*
D03*
X69500D02*
D03*
X58488Y79000D02*
D03*
X69512D02*
D03*
X58488Y99000D02*
D03*
X69512D02*
D03*
X58488Y89000D02*
D03*
X69512D02*
D03*
D30*
X7000Y7000D02*
D03*
Y172500D02*
D03*
X153500D02*
D03*
D31*
X108000Y26500D02*
D03*
X98000Y13500D02*
D03*
X152500Y31000D02*
D03*
Y43000D02*
D03*
Y19000D02*
D03*
Y7000D02*
D03*
X154000Y96000D02*
D03*
D32*
X98000Y26500D02*
D03*
X108000Y13500D02*
D03*
X118000D02*
D03*
X142500Y31000D02*
D03*
Y43000D02*
D03*
Y19000D02*
D03*
Y7000D02*
D03*
X144000Y96000D02*
D03*
X134000D02*
D03*
X124000D02*
D03*
X114000D02*
D03*
X104000D02*
D03*
D33*
X18000Y159000D02*
D03*
X78000Y19000D02*
D03*
D34*
X18000Y149000D02*
D03*
Y139000D02*
D03*
Y129000D02*
D03*
Y119000D02*
D03*
Y109000D02*
D03*
Y99000D02*
D03*
Y89000D02*
D03*
Y79000D02*
D03*
Y69000D02*
D03*
Y59000D02*
D03*
Y49000D02*
D03*
Y39000D02*
D03*
Y29000D02*
D03*
Y19000D02*
D03*
X78000Y29000D02*
D03*
Y39000D02*
D03*
Y49000D02*
D03*
Y59000D02*
D03*
Y69000D02*
D03*
Y79000D02*
D03*
Y89000D02*
D03*
Y99000D02*
D03*
Y109000D02*
D03*
Y119000D02*
D03*
Y129000D02*
D03*
Y139000D02*
D03*
Y149000D02*
D03*
Y159000D02*
D03*
D35*
X18000Y169000D02*
D03*
X78000D02*
D03*
Y9000D02*
D03*
X18000D02*
D03*
D36*
X98000Y49500D02*
D03*
Y128500D02*
D03*
M02*
