G04*
G04 #@! TF.GenerationSoftware,Altium Limited,Altium Designer,21.2.2 (38)*
G04*
G04 Layer_Color=32768*
%FSLAX25Y25*%
%MOIN*%
G70*
G04*
G04 #@! TF.SameCoordinates,C48038F6-0F47-47EE-9322-7A70BF747E44*
G04*
G04*
G04 #@! TF.FilePolarity,Positive*
G04*
G01*
G75*
%ADD12C,0.00394*%
%ADD38C,0.00197*%
D12*
X136823Y78500D02*
X140760D01*
X138791Y76531D02*
Y80468D01*
X7000Y52740D02*
Y56677D01*
X5032Y54709D02*
X8969D01*
X125000Y111531D02*
Y115469D01*
X123031Y113500D02*
X126969D01*
X106532Y108000D02*
X110468D01*
X108500Y106032D02*
Y109968D01*
X62020Y109000D02*
X65957D01*
X63988Y107032D02*
Y110968D01*
X62032Y79000D02*
X65969D01*
X64000Y77031D02*
Y80968D01*
X62032Y99000D02*
X65969D01*
X64000Y97031D02*
Y100969D01*
X62032Y89000D02*
X65969D01*
X64000Y87032D02*
Y90969D01*
X86937Y63D02*
Y177937D01*
X9063Y63D02*
X86937D01*
X9063D02*
Y177937D01*
X86937D01*
D38*
X129539Y73972D02*
Y83028D01*
X148043Y73972D02*
Y83028D01*
X129539D02*
X148043D01*
X129539Y73972D02*
X148043D01*
X2472Y63961D02*
X11528D01*
X2472Y45457D02*
X11528D01*
Y63961D01*
X2472Y45457D02*
Y63961D01*
X120669Y104642D02*
X129331D01*
X120669Y122358D02*
X129331D01*
X120669Y104642D02*
Y122358D01*
X129331Y104642D02*
Y122358D01*
X99642Y103669D02*
Y112331D01*
X117358Y103669D02*
Y112331D01*
X99642D02*
X117358D01*
X99642Y103669D02*
X117358D01*
X55130Y104669D02*
Y113331D01*
X72847Y104669D02*
Y113331D01*
X55130D02*
X72847D01*
X55130Y104669D02*
X72847D01*
X55142Y74669D02*
Y83331D01*
X72858Y74669D02*
Y83331D01*
X55142D02*
X72858D01*
X55142Y74669D02*
X72858D01*
X55142Y94669D02*
Y103331D01*
X72858Y94669D02*
Y103331D01*
X55142D02*
X72858D01*
X55142Y94669D02*
X72858D01*
X55142Y84669D02*
Y93331D01*
X72858Y84669D02*
Y93331D01*
X55142D02*
X72858D01*
X55142Y84669D02*
X72858D01*
M02*
