G04*
G04 #@! TF.GenerationSoftware,Altium Limited,Altium Designer,21.2.2 (38)*
G04*
G04 Layer_Color=65535*
%FSLAX25Y25*%
%MOIN*%
G70*
G04*
G04 #@! TF.SameCoordinates,E4463E13-6215-4CEB-9C32-E63C6DB71CC8*
G04*
G04*
G04 #@! TF.FilePolarity,Positive*
G04*
G01*
G75*
%ADD10C,0.00984*%
%ADD11C,0.00787*%
%ADD12C,0.02362*%
%ADD13C,0.01000*%
%ADD14C,0.00394*%
%ADD15C,0.00197*%
D10*
X329079Y404358D02*
G03*
X329079Y404358I-492J0D01*
G01*
X364906Y313142D02*
G03*
X364906Y313142I-492J0D01*
G01*
X331992Y378618D02*
G03*
X331992Y378618I-492J0D01*
G01*
D11*
X344000Y378776D02*
G03*
X349000Y378776I2500J0D01*
G01*
X312500Y346500D02*
X322500D01*
Y326500D02*
Y346500D01*
X312500Y326500D02*
X322500D01*
X312500D02*
Y346500D01*
X372500Y356000D02*
X375500D01*
X372500Y336000D02*
Y356000D01*
Y336000D02*
X378500D01*
Y356000D01*
X375500D02*
X378500D01*
X375500Y335100D02*
Y336000D01*
Y356000D02*
Y356900D01*
X383500Y375000D02*
X386500D01*
Y395000D01*
X380500D02*
X386500D01*
X380500Y375000D02*
Y395000D01*
Y375000D02*
X383500D01*
Y395000D02*
Y395900D01*
Y374100D02*
Y375000D01*
X372500Y395000D02*
X375500D01*
X372500Y375000D02*
Y395000D01*
Y375000D02*
X378500D01*
Y395000D01*
X375500D02*
X378500D01*
X375500Y374100D02*
Y375000D01*
Y395000D02*
Y395900D01*
X307000Y361500D02*
X310000D01*
Y381500D01*
X304000D02*
X310000D01*
X304000Y361500D02*
Y381500D01*
Y361500D02*
X307000D01*
Y381500D02*
Y382400D01*
Y360600D02*
Y361500D01*
X315500D02*
X318500D01*
Y381500D01*
X312500D02*
X318500D01*
X312500Y361500D02*
Y381500D01*
Y361500D02*
X315500D01*
Y381500D02*
Y382400D01*
Y360600D02*
Y361500D01*
X338217Y383709D02*
X354768D01*
X338217Y407291D02*
X354768D01*
X358291Y391169D02*
Y399945D01*
X334709Y391055D02*
Y399945D01*
X317500Y429000D02*
Y439000D01*
X377500Y429000D02*
Y439000D01*
X317500Y429000D02*
X377500D01*
X317500Y439000D02*
X377500D01*
X303000Y396000D02*
X313000D01*
X303000D02*
Y416000D01*
X313000D01*
Y396000D02*
Y416000D01*
X338232Y333791D02*
X354783D01*
X338232Y310209D02*
X354783D01*
X334709Y317555D02*
Y326331D01*
X358291Y317555D02*
Y326445D01*
X336067Y338224D02*
Y378776D01*
X356933Y338224D02*
Y378776D01*
X336067D02*
X344000D01*
X349000D02*
X356933D01*
X336067Y338224D02*
X356933D01*
D12*
X341185Y374839D02*
G03*
X341185Y374839I-1181J0D01*
G01*
D13*
X315999Y321498D02*
X314999Y322498D01*
X313000D01*
X312000Y321498D01*
Y320499D01*
X313000Y319499D01*
X314999D01*
X315999Y318499D01*
Y317500D01*
X314999Y316500D01*
X313000D01*
X312000Y317500D01*
X317998Y322498D02*
Y316500D01*
X319997Y318499D01*
X321997Y316500D01*
Y322498D01*
X298000Y418500D02*
Y424498D01*
X300999D01*
X301999Y423498D01*
Y421499D01*
X300999Y420499D01*
X298000D01*
X303998Y424498D02*
Y418500D01*
X305997Y420499D01*
X307997Y418500D01*
Y424498D01*
X309996Y418500D02*
Y424498D01*
X312995D01*
X313995Y423498D01*
Y421499D01*
X312995Y420499D01*
X309996D01*
X311996D02*
X313995Y418500D01*
X310499Y333002D02*
X304501D01*
Y336001D01*
X305501Y337000D01*
X307500D01*
X308500Y336001D01*
Y333002D01*
X310499Y342998D02*
Y339000D01*
X306500Y342998D01*
X305501D01*
X304501Y341999D01*
Y339999D01*
X305501Y339000D01*
X380501Y350498D02*
X386499D01*
Y347499D01*
X385499Y346500D01*
X383500D01*
X382500Y347499D01*
Y350498D01*
Y348499D02*
X380501Y346500D01*
Y341501D02*
X386499D01*
X383500Y344500D01*
Y340502D01*
X389001Y390498D02*
X394999D01*
Y387499D01*
X393999Y386500D01*
X392000D01*
X391000Y387499D01*
Y390498D01*
Y388499D02*
X389001Y386500D01*
X393999Y384500D02*
X394999Y383501D01*
Y381501D01*
X393999Y380502D01*
X393000D01*
X392000Y381501D01*
Y382501D01*
Y381501D01*
X391000Y380502D01*
X390001D01*
X389001Y381501D01*
Y383501D01*
X390001Y384500D01*
X370502Y405001D02*
Y410999D01*
X373501D01*
X374500Y409999D01*
Y408000D01*
X373501Y407000D01*
X370502D01*
X372501D02*
X374500Y405001D01*
X380498D02*
X376500D01*
X380498Y409000D01*
Y409999D01*
X379499Y410999D01*
X377499D01*
X376500Y409999D01*
X302499Y367002D02*
X296501D01*
Y370001D01*
X297501Y371000D01*
X299500D01*
X300500Y370001D01*
Y367002D01*
Y369001D02*
X302499Y371000D01*
X296501Y376998D02*
Y373000D01*
X299500D01*
X298500Y374999D01*
Y375999D01*
X299500Y376998D01*
X301499D01*
X302499Y375999D01*
Y373999D01*
X301499Y373000D01*
X320501Y375499D02*
X326499D01*
Y372500D01*
X325499Y371500D01*
X323500D01*
X322500Y372500D01*
Y375499D01*
Y373499D02*
X320501Y371500D01*
Y369501D02*
Y367501D01*
Y368501D01*
X326499D01*
X325499Y369501D01*
X343001Y415499D02*
X342001Y416499D01*
X340002D01*
X339002Y415499D01*
Y414500D01*
X340002Y413500D01*
X342001D01*
X343001Y412500D01*
Y411501D01*
X342001Y410501D01*
X340002D01*
X339002Y411501D01*
X345000Y416499D02*
Y410501D01*
X347000Y412500D01*
X348999Y410501D01*
Y416499D01*
X350998Y410501D02*
X352998D01*
X351998D01*
Y416499D01*
X350998Y415499D01*
X340002Y421001D02*
Y426999D01*
X343001D01*
X344000Y425999D01*
Y424000D01*
X343001Y423000D01*
X340002D01*
X346000Y425999D02*
X346999Y426999D01*
X348999D01*
X349998Y425999D01*
Y425000D01*
X348999Y424000D01*
X347999D01*
X348999D01*
X349998Y423000D01*
Y422001D01*
X348999Y421001D01*
X346999D01*
X346000Y422001D01*
X300999Y402001D02*
X295001D01*
Y405000D01*
X296001Y406000D01*
X298000D01*
X299000Y405000D01*
Y402001D01*
X300999Y407999D02*
Y409999D01*
Y408999D01*
X295001D01*
X296001Y407999D01*
X342206Y306858D02*
X341206Y307857D01*
X339207D01*
X338207Y306858D01*
Y305858D01*
X339207Y304858D01*
X341206D01*
X342206Y303859D01*
Y302859D01*
X341206Y301859D01*
X339207D01*
X338207Y302859D01*
X344205Y307857D02*
Y301859D01*
X346205Y303859D01*
X348204Y301859D01*
Y307857D01*
X354202Y301859D02*
X350203D01*
X354202Y305858D01*
Y306858D01*
X353203Y307857D01*
X351203D01*
X350203Y306858D01*
X343501Y362999D02*
Y358001D01*
X344501Y357001D01*
X346500D01*
X347500Y358001D01*
Y362999D01*
X349499Y357001D02*
X351499D01*
X350499D01*
Y362999D01*
X349499Y361999D01*
X285000Y300000D02*
X398500D01*
X285000Y442500D02*
X398500D01*
Y300000D02*
Y442500D01*
X285000Y300000D02*
Y442500D01*
D14*
X337839Y375232D02*
G03*
X337839Y375232I-1969J0D01*
G01*
X334709Y383709D02*
X358291D01*
Y407291D01*
X334709D02*
X358291D01*
X334709Y383709D02*
Y407291D01*
Y333791D02*
X358291D01*
X334709Y310209D02*
Y333791D01*
Y310209D02*
X358291D01*
Y333791D01*
X332327Y338224D02*
Y378776D01*
X360673Y338224D02*
Y378776D01*
X332327D02*
X360673D01*
X332327Y338224D02*
X360673D01*
X344531Y395500D02*
X348469D01*
X346500Y393532D02*
Y397469D01*
X344532Y322000D02*
X348469D01*
X346500Y320031D02*
Y323969D01*
X344532Y358500D02*
X348469D01*
X346500Y356532D02*
Y360469D01*
D15*
X330358Y383295D02*
X362642D01*
X330358D02*
Y407705D01*
X362642D01*
Y383295D02*
Y407705D01*
X330358Y334205D02*
X362642D01*
Y309795D02*
Y334205D01*
X330358Y309795D02*
X362642D01*
X330358D02*
Y334205D01*
M02*
