G04*
G04 #@! TF.GenerationSoftware,Altium Limited,Altium Designer,21.2.2 (38)*
G04*
G04 Layer_Color=16711935*
%FSLAX25Y25*%
%MOIN*%
G70*
G04*
G04 #@! TF.SameCoordinates,E4463E13-6215-4CEB-9C32-E63C6DB71CC8*
G04*
G04*
G04 #@! TF.FilePolarity,Positive*
G04*
G01*
G75*
%ADD13C,0.01000*%
%ADD14C,0.00394*%
%ADD15C,0.00197*%
D13*
X285000Y300000D02*
X398500D01*
X285000Y442500D02*
X398500D01*
Y300000D02*
Y442500D01*
X285000Y300000D02*
Y442500D01*
D14*
X337839Y375232D02*
G03*
X337839Y375232I-1969J0D01*
G01*
X334709Y383709D02*
X358291D01*
Y407291D01*
X334709D02*
X358291D01*
X334709Y383709D02*
Y407291D01*
Y333791D02*
X358291D01*
X334709Y310209D02*
Y333791D01*
Y310209D02*
X358291D01*
Y333791D01*
X332327Y338224D02*
Y378776D01*
X360673Y338224D02*
Y378776D01*
X332327D02*
X360673D01*
X332327Y338224D02*
X360673D01*
X344531Y395500D02*
X348469D01*
X346500Y393532D02*
Y397469D01*
X344532Y322000D02*
X348469D01*
X346500Y320031D02*
Y323969D01*
X344532Y358500D02*
X348469D01*
X346500Y356532D02*
Y360469D01*
D15*
X330358Y383295D02*
X362642D01*
X330358D02*
Y407705D01*
X362642D01*
Y383295D02*
Y407705D01*
X330358Y334205D02*
X362642D01*
Y309795D02*
Y334205D01*
X330358Y309795D02*
X362642D01*
X330358D02*
Y334205D01*
M02*
