M48
;Layer_Color=9474304
;FILE_FORMAT=2:5
INCH,LZ
;TYPE=PLATED
T1F00S00C0.03346
T2F00S00C0.03543
T3F00S00C0.03898
T4F00S00C0.09449
%
T01
X0307Y03565
Y03865
X03155
Y03565
X03755Y0361
Y037
X03835
Y04
X03755
Y0331
T02
X0308Y0401
Y0411
X03225Y0434
X03325
X03425
X03525
X03625
X03725
X03615Y03735
Y03635
Y03535
Y03435
X03315
Y03535
Y03635
Y03735
X03175Y03415
Y03315
T03
X0333705Y0313142
Y0330858
X0359295
Y0313142
Y0386642
Y0404358
X0333705
Y0386642
T04
X0392Y03085
X02915
Y0432
X0392
M30
