G04*
G04 #@! TF.GenerationSoftware,Altium Limited,Altium Designer,21.2.2 (38)*
G04*
G04 Layer_Physical_Order=2*
G04 Layer_Color=16711680*
%FSLAX25Y25*%
%MOIN*%
G70*
G04*
G04 #@! TF.SameCoordinates,29F7D32E-A79C-4082-AA7E-55410590E176*
G04*
G04*
G04 #@! TF.FilePolarity,Positive*
G04*
G01*
G75*
%ADD13C,0.01000*%
%ADD23R,0.05906X0.05906*%
%ADD24C,0.05906*%
%ADD25R,0.05906X0.05906*%
%ADD26C,0.06000*%
%ADD27C,0.05512*%
%ADD28R,0.05906X0.08268*%
%ADD29R,0.08268X0.05906*%
%ADD30C,0.05000*%
G36*
X601500Y190000D02*
X282500D01*
Y404000D01*
X601500D01*
Y190000D01*
D02*
G37*
%LPC*%
G36*
X306500Y395090D02*
Y394500D01*
X307090D01*
X306500Y395090D01*
D02*
G37*
G36*
X301500D02*
X300910Y394500D01*
X301500D01*
Y395090D01*
D02*
G37*
G36*
X307090Y389500D02*
X306500D01*
Y388910D01*
X307090Y389500D01*
D02*
G37*
G36*
X301500D02*
X300910D01*
X301500Y388910D01*
Y389500D01*
D02*
G37*
G36*
X579520Y395953D02*
X578480D01*
X577474Y395683D01*
X576573Y395163D01*
X575837Y394427D01*
X575317Y393526D01*
X575047Y392520D01*
Y391480D01*
X575317Y390474D01*
X575837Y389573D01*
X576573Y388837D01*
X577474Y388317D01*
X578480Y388047D01*
X579520D01*
X580526Y388317D01*
X581427Y388837D01*
X582163Y389573D01*
X582683Y390474D01*
X582953Y391480D01*
Y392520D01*
X582683Y393526D01*
X582163Y394427D01*
X581427Y395163D01*
X580526Y395683D01*
X579520Y395953D01*
D02*
G37*
G36*
X569520D02*
X568480D01*
X567474Y395683D01*
X566573Y395163D01*
X565837Y394427D01*
X565317Y393526D01*
X565047Y392520D01*
Y391480D01*
X565317Y390474D01*
X565837Y389573D01*
X566573Y388837D01*
X567474Y388317D01*
X568480Y388047D01*
X569520D01*
X570526Y388317D01*
X571427Y388837D01*
X572163Y389573D01*
X572683Y390474D01*
X572953Y391480D01*
Y392520D01*
X572683Y393526D01*
X572163Y394427D01*
X571427Y395163D01*
X570526Y395683D01*
X569520Y395953D01*
D02*
G37*
G36*
X542953D02*
X535047D01*
Y388047D01*
X542953D01*
Y395953D01*
D02*
G37*
G36*
X529520D02*
X528480D01*
X527474Y395683D01*
X526573Y395163D01*
X525837Y394427D01*
X525317Y393526D01*
X525047Y392520D01*
Y391480D01*
X525317Y390474D01*
X525837Y389573D01*
X526573Y388837D01*
X527474Y388317D01*
X528480Y388047D01*
X529520D01*
X530526Y388317D01*
X531427Y388837D01*
X532163Y389573D01*
X532683Y390474D01*
X532953Y391480D01*
Y392520D01*
X532683Y393526D01*
X532163Y394427D01*
X531427Y395163D01*
X530526Y395683D01*
X529520Y395953D01*
D02*
G37*
G36*
X519520D02*
X518480D01*
X517474Y395683D01*
X516573Y395163D01*
X515837Y394427D01*
X515317Y393526D01*
X515047Y392520D01*
Y391480D01*
X515317Y390474D01*
X515837Y389573D01*
X516573Y388837D01*
X517474Y388317D01*
X518480Y388047D01*
X519520D01*
X520526Y388317D01*
X521427Y388837D01*
X522163Y389573D01*
X522683Y390474D01*
X522953Y391480D01*
Y392520D01*
X522683Y393526D01*
X522163Y394427D01*
X521427Y395163D01*
X520526Y395683D01*
X519520Y395953D01*
D02*
G37*
G36*
X509520D02*
X508480D01*
X507474Y395683D01*
X506573Y395163D01*
X505837Y394427D01*
X505317Y393526D01*
X505047Y392520D01*
Y391480D01*
X505317Y390474D01*
X505837Y389573D01*
X506573Y388837D01*
X507474Y388317D01*
X508480Y388047D01*
X509520D01*
X510526Y388317D01*
X511427Y388837D01*
X512163Y389573D01*
X512683Y390474D01*
X512953Y391480D01*
Y392520D01*
X512683Y393526D01*
X512163Y394427D01*
X511427Y395163D01*
X510526Y395683D01*
X509520Y395953D01*
D02*
G37*
G36*
X479520D02*
X478480D01*
X477474Y395683D01*
X476573Y395163D01*
X475837Y394427D01*
X475317Y393526D01*
X475047Y392520D01*
Y391480D01*
X475317Y390474D01*
X475837Y389573D01*
X476573Y388837D01*
X477474Y388317D01*
X478480Y388047D01*
X479520D01*
X480526Y388317D01*
X481427Y388837D01*
X482163Y389573D01*
X482683Y390474D01*
X482953Y391480D01*
Y392520D01*
X482683Y393526D01*
X482163Y394427D01*
X481427Y395163D01*
X480526Y395683D01*
X479520Y395953D01*
D02*
G37*
G36*
X469520D02*
X468480D01*
X467474Y395683D01*
X466573Y395163D01*
X465837Y394427D01*
X465317Y393526D01*
X465047Y392520D01*
Y391480D01*
X465317Y390474D01*
X465837Y389573D01*
X466573Y388837D01*
X467474Y388317D01*
X468480Y388047D01*
X469520D01*
X470526Y388317D01*
X471427Y388837D01*
X472163Y389573D01*
X472683Y390474D01*
X472953Y391480D01*
Y392520D01*
X472683Y393526D01*
X472163Y394427D01*
X471427Y395163D01*
X470526Y395683D01*
X469520Y395953D01*
D02*
G37*
G36*
X452953D02*
X445047D01*
Y388047D01*
X452953D01*
Y395953D01*
D02*
G37*
G36*
X439520D02*
X438480D01*
X437474Y395683D01*
X436573Y395163D01*
X435837Y394427D01*
X435317Y393526D01*
X435047Y392520D01*
Y391480D01*
X435317Y390474D01*
X435837Y389573D01*
X436573Y388837D01*
X437474Y388317D01*
X438480Y388047D01*
X439520D01*
X440526Y388317D01*
X441427Y388837D01*
X442163Y389573D01*
X442683Y390474D01*
X442953Y391480D01*
Y392520D01*
X442683Y393526D01*
X442163Y394427D01*
X441427Y395163D01*
X440526Y395683D01*
X439520Y395953D01*
D02*
G37*
G36*
X429520D02*
X428480D01*
X427474Y395683D01*
X426573Y395163D01*
X425837Y394427D01*
X425317Y393526D01*
X425047Y392520D01*
Y391480D01*
X425317Y390474D01*
X425837Y389573D01*
X426573Y388837D01*
X427474Y388317D01*
X428480Y388047D01*
X429520D01*
X430526Y388317D01*
X431427Y388837D01*
X432163Y389573D01*
X432683Y390474D01*
X432953Y391480D01*
Y392520D01*
X432683Y393526D01*
X432163Y394427D01*
X431427Y395163D01*
X430526Y395683D01*
X429520Y395953D01*
D02*
G37*
G36*
X419520D02*
X418480D01*
X417474Y395683D01*
X416573Y395163D01*
X415837Y394427D01*
X415317Y393526D01*
X415047Y392520D01*
Y391480D01*
X415317Y390474D01*
X415837Y389573D01*
X416573Y388837D01*
X417474Y388317D01*
X418480Y388047D01*
X419520D01*
X420526Y388317D01*
X421427Y388837D01*
X422163Y389573D01*
X422683Y390474D01*
X422953Y391480D01*
Y392520D01*
X422683Y393526D01*
X422163Y394427D01*
X421427Y395163D01*
X420526Y395683D01*
X419520Y395953D01*
D02*
G37*
G36*
X409520D02*
X408480D01*
X407474Y395683D01*
X406573Y395163D01*
X405837Y394427D01*
X405317Y393526D01*
X405047Y392520D01*
Y391480D01*
X405317Y390474D01*
X405837Y389573D01*
X406573Y388837D01*
X407474Y388317D01*
X408480Y388047D01*
X409520D01*
X410526Y388317D01*
X411427Y388837D01*
X412163Y389573D01*
X412683Y390474D01*
X412953Y391480D01*
Y392520D01*
X412683Y393526D01*
X412163Y394427D01*
X411427Y395163D01*
X410526Y395683D01*
X409520Y395953D01*
D02*
G37*
G36*
X399520D02*
X398480D01*
X397474Y395683D01*
X396573Y395163D01*
X395837Y394427D01*
X395317Y393526D01*
X395047Y392520D01*
Y391480D01*
X395317Y390474D01*
X395837Y389573D01*
X396573Y388837D01*
X397474Y388317D01*
X398480Y388047D01*
X399520D01*
X400526Y388317D01*
X401427Y388837D01*
X402163Y389573D01*
X402683Y390474D01*
X402953Y391480D01*
Y392520D01*
X402683Y393526D01*
X402163Y394427D01*
X401427Y395163D01*
X400526Y395683D01*
X399520Y395953D01*
D02*
G37*
G36*
X389520D02*
X388480D01*
X387474Y395683D01*
X386573Y395163D01*
X385837Y394427D01*
X385317Y393526D01*
X385047Y392520D01*
Y391480D01*
X385317Y390474D01*
X385837Y389573D01*
X386573Y388837D01*
X387474Y388317D01*
X388480Y388047D01*
X389520D01*
X390526Y388317D01*
X391427Y388837D01*
X392163Y389573D01*
X392683Y390474D01*
X392953Y391480D01*
Y392520D01*
X392683Y393526D01*
X392163Y394427D01*
X391427Y395163D01*
X390526Y395683D01*
X389520Y395953D01*
D02*
G37*
G36*
X379520D02*
X378480D01*
X377474Y395683D01*
X376573Y395163D01*
X375837Y394427D01*
X375317Y393526D01*
X375047Y392520D01*
Y391480D01*
X375317Y390474D01*
X375837Y389573D01*
X376573Y388837D01*
X377474Y388317D01*
X378480Y388047D01*
X379520D01*
X380526Y388317D01*
X381427Y388837D01*
X382163Y389573D01*
X382683Y390474D01*
X382953Y391480D01*
Y392520D01*
X382683Y393526D01*
X382163Y394427D01*
X381427Y395163D01*
X380526Y395683D01*
X379520Y395953D01*
D02*
G37*
G36*
X367953D02*
X360047D01*
Y388047D01*
X367953D01*
Y395953D01*
D02*
G37*
G36*
X354520D02*
X353480D01*
X352474Y395683D01*
X351573Y395163D01*
X350837Y394427D01*
X350317Y393526D01*
X350047Y392520D01*
Y391480D01*
X350317Y390474D01*
X350837Y389573D01*
X351573Y388837D01*
X352474Y388317D01*
X353480Y388047D01*
X354520D01*
X355526Y388317D01*
X356427Y388837D01*
X357163Y389573D01*
X357683Y390474D01*
X357953Y391480D01*
Y392520D01*
X357683Y393526D01*
X357163Y394427D01*
X356427Y395163D01*
X355526Y395683D01*
X354520Y395953D01*
D02*
G37*
G36*
X324520D02*
X323480D01*
X322474Y395683D01*
X321573Y395163D01*
X320837Y394427D01*
X320317Y393526D01*
X320047Y392520D01*
Y391480D01*
X320317Y390474D01*
X320837Y389573D01*
X321573Y388837D01*
X322474Y388317D01*
X323480Y388047D01*
X324520D01*
X325526Y388317D01*
X326427Y388837D01*
X327163Y389573D01*
X327683Y390474D01*
X327953Y391480D01*
Y392520D01*
X327683Y393526D01*
X327163Y394427D01*
X326427Y395163D01*
X325526Y395683D01*
X324520Y395953D01*
D02*
G37*
G36*
X314520D02*
X313480D01*
X312474Y395683D01*
X311573Y395163D01*
X310837Y394427D01*
X310317Y393526D01*
X310047Y392520D01*
Y391480D01*
X310317Y390474D01*
X310837Y389573D01*
X311573Y388837D01*
X312474Y388317D01*
X313480Y388047D01*
X314520D01*
X315526Y388317D01*
X316427Y388837D01*
X317163Y389573D01*
X317683Y390474D01*
X317953Y391480D01*
Y392520D01*
X317683Y393526D01*
X317163Y394427D01*
X316427Y395163D01*
X315526Y395683D01*
X314520Y395953D01*
D02*
G37*
G36*
X294520D02*
X293480D01*
X292474Y395683D01*
X291573Y395163D01*
X290837Y394427D01*
X290317Y393526D01*
X290047Y392520D01*
Y391480D01*
X290317Y390474D01*
X290837Y389573D01*
X291573Y388837D01*
X292474Y388317D01*
X293480Y388047D01*
X294520D01*
X295526Y388317D01*
X296427Y388837D01*
X297163Y389573D01*
X297683Y390474D01*
X297953Y391480D01*
Y392520D01*
X297683Y393526D01*
X297163Y394427D01*
X296427Y395163D01*
X295526Y395683D01*
X294520Y395953D01*
D02*
G37*
G36*
X579520Y385953D02*
X578480D01*
X577474Y385683D01*
X576573Y385163D01*
X575837Y384427D01*
X575317Y383526D01*
X575047Y382520D01*
Y381480D01*
X575317Y380474D01*
X575837Y379573D01*
X576573Y378837D01*
X577474Y378317D01*
X578480Y378047D01*
X579520D01*
X580526Y378317D01*
X581427Y378837D01*
X582163Y379573D01*
X582683Y380474D01*
X582953Y381480D01*
Y382520D01*
X582683Y383526D01*
X582163Y384427D01*
X581427Y385163D01*
X580526Y385683D01*
X579520Y385953D01*
D02*
G37*
G36*
X569520D02*
X568480D01*
X567474Y385683D01*
X566573Y385163D01*
X565837Y384427D01*
X565317Y383526D01*
X565047Y382520D01*
Y381480D01*
X565317Y380474D01*
X565837Y379573D01*
X566573Y378837D01*
X567474Y378317D01*
X568480Y378047D01*
X569520D01*
X570526Y378317D01*
X571427Y378837D01*
X572163Y379573D01*
X572683Y380474D01*
X572953Y381480D01*
Y382520D01*
X572683Y383526D01*
X572163Y384427D01*
X571427Y385163D01*
X570526Y385683D01*
X569520Y385953D01*
D02*
G37*
G36*
X539520D02*
X538480D01*
X537474Y385683D01*
X536573Y385163D01*
X535837Y384427D01*
X535317Y383526D01*
X535047Y382520D01*
Y381480D01*
X535317Y380474D01*
X535837Y379573D01*
X536573Y378837D01*
X537474Y378317D01*
X538480Y378047D01*
X539520D01*
X540526Y378317D01*
X541427Y378837D01*
X542163Y379573D01*
X542683Y380474D01*
X542953Y381480D01*
Y382520D01*
X542683Y383526D01*
X542163Y384427D01*
X541427Y385163D01*
X540526Y385683D01*
X539520Y385953D01*
D02*
G37*
G36*
X529520D02*
X528480D01*
X527474Y385683D01*
X526573Y385163D01*
X525837Y384427D01*
X525317Y383526D01*
X525047Y382520D01*
Y381480D01*
X525317Y380474D01*
X525837Y379573D01*
X526573Y378837D01*
X527474Y378317D01*
X528480Y378047D01*
X529520D01*
X530526Y378317D01*
X531427Y378837D01*
X532163Y379573D01*
X532683Y380474D01*
X532953Y381480D01*
Y382520D01*
X532683Y383526D01*
X532163Y384427D01*
X531427Y385163D01*
X530526Y385683D01*
X529520Y385953D01*
D02*
G37*
G36*
X519520D02*
X518480D01*
X517474Y385683D01*
X516573Y385163D01*
X515837Y384427D01*
X515317Y383526D01*
X515047Y382520D01*
Y381480D01*
X515317Y380474D01*
X515837Y379573D01*
X516573Y378837D01*
X517474Y378317D01*
X518480Y378047D01*
X519520D01*
X520526Y378317D01*
X521427Y378837D01*
X522163Y379573D01*
X522683Y380474D01*
X522953Y381480D01*
Y382520D01*
X522683Y383526D01*
X522163Y384427D01*
X521427Y385163D01*
X520526Y385683D01*
X519520Y385953D01*
D02*
G37*
G36*
X512953D02*
X505047D01*
Y378047D01*
X512953D01*
Y385953D01*
D02*
G37*
G36*
X479520D02*
X478480D01*
X477474Y385683D01*
X476573Y385163D01*
X475837Y384427D01*
X475317Y383526D01*
X475047Y382520D01*
Y381480D01*
X475317Y380474D01*
X475837Y379573D01*
X476573Y378837D01*
X477474Y378317D01*
X478480Y378047D01*
X479520D01*
X480526Y378317D01*
X481427Y378837D01*
X482163Y379573D01*
X482683Y380474D01*
X482953Y381480D01*
Y382520D01*
X482683Y383526D01*
X482163Y384427D01*
X481427Y385163D01*
X480526Y385683D01*
X479520Y385953D01*
D02*
G37*
G36*
X472953D02*
X465047D01*
Y378047D01*
X472953D01*
Y385953D01*
D02*
G37*
G36*
X429520D02*
X428480D01*
X427474Y385683D01*
X426573Y385163D01*
X425837Y384427D01*
X425317Y383526D01*
X425047Y382520D01*
Y381480D01*
X425317Y380474D01*
X425837Y379573D01*
X426573Y378837D01*
X427474Y378317D01*
X428480Y378047D01*
X429520D01*
X430526Y378317D01*
X431427Y378837D01*
X432163Y379573D01*
X432683Y380474D01*
X432953Y381480D01*
Y382520D01*
X432683Y383526D01*
X432163Y384427D01*
X431427Y385163D01*
X430526Y385683D01*
X429520Y385953D01*
D02*
G37*
G36*
X419520D02*
X418480D01*
X417474Y385683D01*
X416573Y385163D01*
X415837Y384427D01*
X415317Y383526D01*
X415047Y382520D01*
Y381480D01*
X415317Y380474D01*
X415837Y379573D01*
X416573Y378837D01*
X417474Y378317D01*
X418480Y378047D01*
X419520D01*
X420526Y378317D01*
X421427Y378837D01*
X422163Y379573D01*
X422683Y380474D01*
X422953Y381480D01*
Y382520D01*
X422683Y383526D01*
X422163Y384427D01*
X421427Y385163D01*
X420526Y385683D01*
X419520Y385953D01*
D02*
G37*
G36*
X409520D02*
X408480D01*
X407474Y385683D01*
X406573Y385163D01*
X405837Y384427D01*
X405317Y383526D01*
X405047Y382520D01*
Y381480D01*
X405317Y380474D01*
X405837Y379573D01*
X406573Y378837D01*
X407474Y378317D01*
X408480Y378047D01*
X409520D01*
X410526Y378317D01*
X411427Y378837D01*
X412163Y379573D01*
X412683Y380474D01*
X412953Y381480D01*
Y382520D01*
X412683Y383526D01*
X412163Y384427D01*
X411427Y385163D01*
X410526Y385683D01*
X409520Y385953D01*
D02*
G37*
G36*
X399520D02*
X398480D01*
X397474Y385683D01*
X396573Y385163D01*
X395837Y384427D01*
X395317Y383526D01*
X395047Y382520D01*
Y381480D01*
X395317Y380474D01*
X395837Y379573D01*
X396573Y378837D01*
X397474Y378317D01*
X398480Y378047D01*
X399520D01*
X400526Y378317D01*
X401427Y378837D01*
X402163Y379573D01*
X402683Y380474D01*
X402953Y381480D01*
Y382520D01*
X402683Y383526D01*
X402163Y384427D01*
X401427Y385163D01*
X400526Y385683D01*
X399520Y385953D01*
D02*
G37*
G36*
X389520D02*
X388480D01*
X387474Y385683D01*
X386573Y385163D01*
X385837Y384427D01*
X385317Y383526D01*
X385047Y382520D01*
Y381480D01*
X385317Y380474D01*
X385837Y379573D01*
X386573Y378837D01*
X387474Y378317D01*
X388480Y378047D01*
X389520D01*
X390526Y378317D01*
X391427Y378837D01*
X392163Y379573D01*
X392683Y380474D01*
X392953Y381480D01*
Y382520D01*
X392683Y383526D01*
X392163Y384427D01*
X391427Y385163D01*
X390526Y385683D01*
X389520Y385953D01*
D02*
G37*
G36*
X382953D02*
X375047D01*
Y378047D01*
X382953D01*
Y385953D01*
D02*
G37*
G36*
X489520Y395953D02*
X488480D01*
X487474Y395683D01*
X486573Y395163D01*
X485837Y394427D01*
X485317Y393526D01*
X485047Y392520D01*
Y391480D01*
X485317Y390474D01*
X485837Y389573D01*
X486573Y388837D01*
X487471Y388319D01*
Y381000D01*
X487587Y380415D01*
X487919Y379919D01*
X488471Y379366D01*
Y376454D01*
X487694Y376006D01*
X486995Y375306D01*
X486500Y374450D01*
X486244Y373495D01*
Y372505D01*
X486500Y371550D01*
X486995Y370694D01*
X487694Y369994D01*
X488550Y369500D01*
X489505Y369244D01*
X490494D01*
X491450Y369500D01*
X492306Y369994D01*
X493006Y370694D01*
X493500Y371550D01*
X493756Y372505D01*
Y373495D01*
X493500Y374450D01*
X493006Y375306D01*
X492306Y376006D01*
X491529Y376454D01*
Y380000D01*
X491413Y380585D01*
X491081Y381081D01*
X490529Y381633D01*
Y388319D01*
X491427Y388837D01*
X492163Y389573D01*
X492683Y390474D01*
X492953Y391480D01*
Y392520D01*
X492683Y393526D01*
X492163Y394427D01*
X491427Y395163D01*
X490526Y395683D01*
X489520Y395953D01*
D02*
G37*
G36*
X579520Y375953D02*
X578480D01*
X577474Y375683D01*
X576573Y375163D01*
X575837Y374427D01*
X575317Y373526D01*
X575047Y372520D01*
Y371480D01*
X575317Y370474D01*
X575837Y369573D01*
X576573Y368837D01*
X577474Y368317D01*
X578480Y368047D01*
X579520D01*
X580526Y368317D01*
X581427Y368837D01*
X582163Y369573D01*
X582683Y370474D01*
X582953Y371480D01*
Y372520D01*
X582683Y373526D01*
X582163Y374427D01*
X581427Y375163D01*
X580526Y375683D01*
X579520Y375953D01*
D02*
G37*
G36*
X569520D02*
X568480D01*
X567474Y375683D01*
X566573Y375163D01*
X565837Y374427D01*
X565317Y373526D01*
X565047Y372520D01*
Y371480D01*
X565317Y370474D01*
X565837Y369573D01*
X566573Y368837D01*
X567474Y368317D01*
X568480Y368047D01*
X569520D01*
X570526Y368317D01*
X571427Y368837D01*
X572163Y369573D01*
X572683Y370474D01*
X572953Y371480D01*
Y372520D01*
X572683Y373526D01*
X572163Y374427D01*
X571427Y375163D01*
X570526Y375683D01*
X569520Y375953D01*
D02*
G37*
G36*
X579520Y365953D02*
X578480D01*
X577474Y365683D01*
X576573Y365163D01*
X575837Y364427D01*
X575317Y363526D01*
X575047Y362520D01*
Y361480D01*
X575317Y360474D01*
X575837Y359573D01*
X576573Y358837D01*
X577474Y358317D01*
X578480Y358047D01*
X579520D01*
X580526Y358317D01*
X581427Y358837D01*
X582163Y359573D01*
X582683Y360474D01*
X582953Y361480D01*
Y362520D01*
X582683Y363526D01*
X582163Y364427D01*
X581427Y365163D01*
X580526Y365683D01*
X579520Y365953D01*
D02*
G37*
G36*
X569520D02*
X568480D01*
X567474Y365683D01*
X566573Y365163D01*
X565837Y364427D01*
X565317Y363526D01*
X565047Y362520D01*
Y361480D01*
X565317Y360474D01*
X565837Y359573D01*
X566573Y358837D01*
X567474Y358317D01*
X568480Y358047D01*
X569520D01*
X570526Y358317D01*
X571427Y358837D01*
X572163Y359573D01*
X572683Y360474D01*
X572953Y361480D01*
Y362520D01*
X572683Y363526D01*
X572163Y364427D01*
X571427Y365163D01*
X570526Y365683D01*
X569520Y365953D01*
D02*
G37*
G36*
X579520Y355953D02*
X578480D01*
X577474Y355683D01*
X576573Y355163D01*
X575837Y354427D01*
X575317Y353526D01*
X575047Y352520D01*
Y351480D01*
X575317Y350474D01*
X575837Y349573D01*
X576573Y348837D01*
X577474Y348317D01*
X578480Y348047D01*
X579520D01*
X580526Y348317D01*
X581427Y348837D01*
X582163Y349573D01*
X582683Y350474D01*
X582953Y351480D01*
Y352520D01*
X582683Y353526D01*
X582163Y354427D01*
X581427Y355163D01*
X580526Y355683D01*
X579520Y355953D01*
D02*
G37*
G36*
X569520D02*
X568480D01*
X567474Y355683D01*
X566573Y355163D01*
X565837Y354427D01*
X565317Y353526D01*
X565047Y352520D01*
Y351480D01*
X565317Y350474D01*
X565837Y349573D01*
X566573Y348837D01*
X567474Y348317D01*
X568480Y348047D01*
X569520D01*
X570526Y348317D01*
X571427Y348837D01*
X572163Y349573D01*
X572683Y350474D01*
X572953Y351480D01*
Y352520D01*
X572683Y353526D01*
X572163Y354427D01*
X571427Y355163D01*
X570526Y355683D01*
X569520Y355953D01*
D02*
G37*
G36*
X537000Y345812D02*
Y345500D01*
X537312D01*
X537000Y345812D01*
D02*
G37*
G36*
X532000D02*
X531688Y345500D01*
X532000D01*
Y345812D01*
D02*
G37*
G36*
X504994Y346756D02*
X504005D01*
X503050Y346500D01*
X502194Y346006D01*
X501495Y345306D01*
X501046Y344529D01*
X493454D01*
X493006Y345306D01*
X492306Y346006D01*
X491450Y346500D01*
X490494Y346756D01*
X489505D01*
X488550Y346500D01*
X487694Y346006D01*
X486995Y345306D01*
X486500Y344450D01*
X486244Y343495D01*
Y342506D01*
X486500Y341550D01*
X486995Y340694D01*
X487694Y339995D01*
X488471Y339546D01*
Y332681D01*
X487573Y332163D01*
X486837Y331427D01*
X486317Y330526D01*
X486047Y329520D01*
Y328480D01*
X486317Y327474D01*
X486837Y326573D01*
X487573Y325837D01*
X488474Y325317D01*
X489480Y325047D01*
X490520D01*
X491526Y325317D01*
X492427Y325837D01*
X493163Y326573D01*
X493683Y327474D01*
X493953Y328480D01*
Y329520D01*
X493683Y330526D01*
X493163Y331427D01*
X492427Y332163D01*
X491529Y332681D01*
Y339546D01*
X492306Y339995D01*
X493006Y340694D01*
X493454Y341471D01*
X501046D01*
X501495Y340694D01*
X502194Y339995D01*
X503050Y339500D01*
X504005Y339244D01*
X504994D01*
X505950Y339500D01*
X506806Y339995D01*
X507506Y340694D01*
X508000Y341550D01*
X508256Y342506D01*
Y343495D01*
X508000Y344450D01*
X507506Y345306D01*
X506806Y346006D01*
X505950Y346500D01*
X504994Y346756D01*
D02*
G37*
G36*
X306453Y344134D02*
X305000D01*
Y341500D01*
X306453D01*
Y344134D01*
D02*
G37*
G36*
X300000D02*
X298547D01*
Y341500D01*
X300000D01*
Y344134D01*
D02*
G37*
G36*
X537312Y340500D02*
X537000D01*
Y340188D01*
X537312Y340500D01*
D02*
G37*
G36*
X532000D02*
X531688D01*
X532000Y340188D01*
Y340500D01*
D02*
G37*
G36*
X362158Y339812D02*
Y339500D01*
X362469D01*
X362158Y339812D01*
D02*
G37*
G36*
X357157D02*
X356846Y339500D01*
X357157D01*
Y339812D01*
D02*
G37*
G36*
X579520Y345953D02*
X578480D01*
X577474Y345683D01*
X576573Y345163D01*
X575837Y344427D01*
X575317Y343526D01*
X575047Y342520D01*
Y341480D01*
X575317Y340474D01*
X575837Y339573D01*
X576573Y338837D01*
X577474Y338317D01*
X578480Y338047D01*
X579520D01*
X580526Y338317D01*
X581427Y338837D01*
X582163Y339573D01*
X582683Y340474D01*
X582953Y341480D01*
Y342520D01*
X582683Y343526D01*
X582163Y344427D01*
X581427Y345163D01*
X580526Y345683D01*
X579520Y345953D01*
D02*
G37*
G36*
X569520D02*
X568480D01*
X567474Y345683D01*
X566573Y345163D01*
X565837Y344427D01*
X565317Y343526D01*
X565047Y342520D01*
Y341480D01*
X565317Y340474D01*
X565837Y339573D01*
X566573Y338837D01*
X567474Y338317D01*
X568480Y338047D01*
X569520D01*
X570526Y338317D01*
X571427Y338837D01*
X572163Y339573D01*
X572683Y340474D01*
X572953Y341480D01*
Y342520D01*
X572683Y343526D01*
X572163Y344427D01*
X571427Y345163D01*
X570526Y345683D01*
X569520Y345953D01*
D02*
G37*
G36*
X438520Y344953D02*
X437480D01*
X436474Y344683D01*
X435573Y344163D01*
X434837Y343427D01*
X434317Y342526D01*
X434047Y341520D01*
Y340480D01*
X434317Y339474D01*
X434837Y338573D01*
X435573Y337837D01*
X436474Y337317D01*
X437480Y337047D01*
X438520D01*
X439526Y337317D01*
X440427Y337837D01*
X441163Y338573D01*
X441683Y339474D01*
X441953Y340480D01*
Y341520D01*
X441683Y342526D01*
X441163Y343427D01*
X440427Y344163D01*
X439526Y344683D01*
X438520Y344953D01*
D02*
G37*
G36*
X431953D02*
X424047D01*
Y337047D01*
X431953D01*
Y344953D01*
D02*
G37*
G36*
X362469Y334500D02*
X362158D01*
Y334188D01*
X362469Y334500D01*
D02*
G37*
G36*
X357157D02*
X356846D01*
X357157Y334188D01*
Y334500D01*
D02*
G37*
G36*
X330075Y344134D02*
X322169D01*
Y333866D01*
X330075D01*
Y344134D01*
D02*
G37*
G36*
X306453Y336500D02*
X305000D01*
Y333866D01*
X306453D01*
Y336500D01*
D02*
G37*
G36*
X300000D02*
X298547D01*
Y333866D01*
X300000D01*
Y336500D01*
D02*
G37*
G36*
X440500Y334090D02*
Y333500D01*
X441090D01*
X440500Y334090D01*
D02*
G37*
G36*
X435500D02*
X434910Y333500D01*
X435500D01*
Y334090D01*
D02*
G37*
G36*
X369994Y340756D02*
X369005D01*
X368050Y340500D01*
X367194Y340005D01*
X366494Y339306D01*
X366000Y338450D01*
X365744Y337494D01*
Y336506D01*
X366000Y335550D01*
X366494Y334694D01*
X367194Y333995D01*
X368050Y333500D01*
X369005Y333244D01*
X369994D01*
X370950Y333500D01*
X371806Y333995D01*
X372505Y334694D01*
X373000Y335550D01*
X373256Y336506D01*
Y337494D01*
X373000Y338450D01*
X372505Y339306D01*
X371806Y340005D01*
X370950Y340500D01*
X369994Y340756D01*
D02*
G37*
G36*
X499520Y395953D02*
X498480D01*
X497474Y395683D01*
X496573Y395163D01*
X495837Y394427D01*
X495317Y393526D01*
X495047Y392520D01*
Y391480D01*
X495317Y390474D01*
X495837Y389573D01*
X496573Y388837D01*
X497471Y388319D01*
Y368000D01*
X497587Y367415D01*
X497919Y366919D01*
X509971Y354867D01*
Y341133D01*
X501522Y332684D01*
X500520Y332953D01*
X499480D01*
X498474Y332683D01*
X497573Y332163D01*
X496837Y331427D01*
X496317Y330526D01*
X496047Y329520D01*
Y328480D01*
X496317Y327474D01*
X496837Y326573D01*
X497573Y325837D01*
X498474Y325317D01*
X499480Y325047D01*
X500520D01*
X501526Y325317D01*
X502427Y325837D01*
X503163Y326573D01*
X503683Y327474D01*
X503953Y328480D01*
Y329520D01*
X503685Y330522D01*
X512581Y339419D01*
X512913Y339915D01*
X513029Y340500D01*
Y355500D01*
X512913Y356085D01*
X512581Y356581D01*
X500529Y368634D01*
Y388319D01*
X501427Y388837D01*
X502163Y389573D01*
X502683Y390474D01*
X502953Y391480D01*
Y392520D01*
X502683Y393526D01*
X502163Y394427D01*
X501427Y395163D01*
X500526Y395683D01*
X499520Y395953D01*
D02*
G37*
G36*
X512500Y332090D02*
Y331500D01*
X513090D01*
X512500Y332090D01*
D02*
G37*
G36*
X507500D02*
X506910Y331500D01*
X507500D01*
Y332090D01*
D02*
G37*
G36*
X579520Y335953D02*
X578480D01*
X577474Y335683D01*
X576573Y335163D01*
X575837Y334427D01*
X575317Y333526D01*
X575047Y332520D01*
Y331480D01*
X575317Y330474D01*
X575837Y329573D01*
X576573Y328837D01*
X577474Y328317D01*
X578480Y328047D01*
X579520D01*
X580526Y328317D01*
X581427Y328837D01*
X582163Y329573D01*
X582683Y330474D01*
X582953Y331480D01*
Y332520D01*
X582683Y333526D01*
X582163Y334427D01*
X581427Y335163D01*
X580526Y335683D01*
X579520Y335953D01*
D02*
G37*
G36*
X569520D02*
X568480D01*
X567474Y335683D01*
X566573Y335163D01*
X565837Y334427D01*
X565317Y333526D01*
X565047Y332520D01*
Y331480D01*
X565317Y330474D01*
X565837Y329573D01*
X566573Y328837D01*
X567474Y328317D01*
X568480Y328047D01*
X569520D01*
X570526Y328317D01*
X571427Y328837D01*
X572163Y329573D01*
X572683Y330474D01*
X572953Y331480D01*
Y332520D01*
X572683Y333526D01*
X572163Y334427D01*
X571427Y335163D01*
X570526Y335683D01*
X569520Y335953D01*
D02*
G37*
G36*
X441090Y328500D02*
X440500D01*
Y327910D01*
X441090Y328500D01*
D02*
G37*
G36*
X435500D02*
X434910D01*
X435500Y327910D01*
Y328500D01*
D02*
G37*
G36*
X428520Y334953D02*
X427480D01*
X426474Y334683D01*
X425573Y334163D01*
X424837Y333427D01*
X424317Y332526D01*
X424047Y331520D01*
Y330480D01*
X424317Y329474D01*
X424837Y328573D01*
X425573Y327837D01*
X426474Y327317D01*
X427480Y327047D01*
X428520D01*
X429526Y327317D01*
X430427Y327837D01*
X431163Y328573D01*
X431683Y329474D01*
X431953Y330480D01*
Y331520D01*
X431683Y332526D01*
X431163Y333427D01*
X430427Y334163D01*
X429526Y334683D01*
X428520Y334953D01*
D02*
G37*
G36*
X513090Y326500D02*
X512500D01*
Y325910D01*
X513090Y326500D01*
D02*
G37*
G36*
X507500D02*
X506910D01*
X507500Y325910D01*
Y326500D01*
D02*
G37*
G36*
X533953Y332953D02*
X526047D01*
Y325047D01*
X533953D01*
Y332953D01*
D02*
G37*
G36*
X520520D02*
X519480D01*
X518474Y332683D01*
X517573Y332163D01*
X516837Y331427D01*
X516317Y330526D01*
X516047Y329520D01*
Y328480D01*
X516317Y327474D01*
X516837Y326573D01*
X517573Y325837D01*
X518474Y325317D01*
X519480Y325047D01*
X520520D01*
X521526Y325317D01*
X522427Y325837D01*
X523163Y326573D01*
X523683Y327474D01*
X523953Y328480D01*
Y329520D01*
X523683Y330526D01*
X523163Y331427D01*
X522427Y332163D01*
X521526Y332683D01*
X520520Y332953D01*
D02*
G37*
G36*
X480520D02*
X479480D01*
X478474Y332683D01*
X477573Y332163D01*
X476837Y331427D01*
X476317Y330526D01*
X476047Y329520D01*
Y328480D01*
X476317Y327474D01*
X476837Y326573D01*
X477573Y325837D01*
X478474Y325317D01*
X479480Y325047D01*
X480520D01*
X481526Y325317D01*
X482427Y325837D01*
X483163Y326573D01*
X483683Y327474D01*
X483953Y328480D01*
Y329520D01*
X483683Y330526D01*
X483163Y331427D01*
X482427Y332163D01*
X481526Y332683D01*
X480520Y332953D01*
D02*
G37*
G36*
X319445Y324449D02*
X316811D01*
Y322996D01*
X319445D01*
Y324449D01*
D02*
G37*
G36*
X311811D02*
X309177D01*
Y322996D01*
X311811D01*
Y324449D01*
D02*
G37*
G36*
X579520Y325953D02*
X578480D01*
X577474Y325683D01*
X576573Y325163D01*
X575837Y324427D01*
X575317Y323526D01*
X575047Y322520D01*
Y321480D01*
X575317Y320474D01*
X575837Y319573D01*
X576573Y318837D01*
X577474Y318317D01*
X578480Y318047D01*
X579520D01*
X580526Y318317D01*
X581427Y318837D01*
X582163Y319573D01*
X582683Y320474D01*
X582953Y321480D01*
Y322520D01*
X582683Y323526D01*
X582163Y324427D01*
X581427Y325163D01*
X580526Y325683D01*
X579520Y325953D01*
D02*
G37*
G36*
X569520D02*
X568480D01*
X567474Y325683D01*
X566573Y325163D01*
X565837Y324427D01*
X565317Y323526D01*
X565047Y322520D01*
Y321480D01*
X565317Y320474D01*
X565837Y319573D01*
X566573Y318837D01*
X567474Y318317D01*
X568480Y318047D01*
X569520D01*
X570526Y318317D01*
X571427Y318837D01*
X572163Y319573D01*
X572683Y320474D01*
X572953Y321480D01*
Y322520D01*
X572683Y323526D01*
X572163Y324427D01*
X571427Y325163D01*
X570526Y325683D01*
X569520Y325953D01*
D02*
G37*
G36*
X438520Y324953D02*
X437480D01*
X436474Y324683D01*
X435573Y324163D01*
X434837Y323427D01*
X434317Y322526D01*
X434047Y321520D01*
Y320480D01*
X434317Y319474D01*
X434837Y318573D01*
X435573Y317837D01*
X436474Y317317D01*
X437480Y317047D01*
X438520D01*
X439526Y317317D01*
X440427Y317837D01*
X441163Y318573D01*
X441683Y319474D01*
X441953Y320480D01*
Y321520D01*
X441683Y322526D01*
X441163Y323427D01*
X440427Y324163D01*
X439526Y324683D01*
X438520Y324953D01*
D02*
G37*
G36*
X428520D02*
X427480D01*
X426474Y324683D01*
X425573Y324163D01*
X424837Y323427D01*
X424317Y322526D01*
X424047Y321520D01*
Y320480D01*
X424317Y319474D01*
X424837Y318573D01*
X425573Y317837D01*
X426474Y317317D01*
X427480Y317047D01*
X428520D01*
X429526Y317317D01*
X430427Y317837D01*
X431163Y318573D01*
X431683Y319474D01*
X431953Y320480D01*
Y321520D01*
X431683Y322526D01*
X431163Y323427D01*
X430427Y324163D01*
X429526Y324683D01*
X428520Y324953D01*
D02*
G37*
G36*
X319445Y317996D02*
X316811D01*
Y316543D01*
X319445D01*
Y317996D01*
D02*
G37*
G36*
X311811D02*
X309177D01*
Y316543D01*
X311811D01*
Y317996D01*
D02*
G37*
G36*
X440500Y314090D02*
Y313500D01*
X441090D01*
X440500Y314090D01*
D02*
G37*
G36*
X435500D02*
X434910Y313500D01*
X435500D01*
Y314090D01*
D02*
G37*
G36*
X369994Y320756D02*
X369005D01*
X368050Y320500D01*
X367194Y320005D01*
X366494Y319306D01*
X366000Y318450D01*
X365744Y317495D01*
Y316506D01*
X366000Y315550D01*
X366494Y314694D01*
X367194Y313995D01*
X368050Y313500D01*
X369005Y313244D01*
X369994D01*
X370950Y313500D01*
X371806Y313995D01*
X372505Y314694D01*
X373000Y315550D01*
X373256Y316506D01*
Y317495D01*
X373000Y318450D01*
X372505Y319306D01*
X371806Y320005D01*
X370950Y320500D01*
X369994Y320756D01*
D02*
G37*
G36*
X339995D02*
X339005D01*
X338050Y320500D01*
X337194Y320005D01*
X336494Y319306D01*
X336000Y318450D01*
X335744Y317495D01*
Y316506D01*
X336000Y315550D01*
X336494Y314694D01*
X337194Y313995D01*
X338050Y313500D01*
X339005Y313244D01*
X339995D01*
X340950Y313500D01*
X341806Y313995D01*
X342506Y314694D01*
X343000Y315550D01*
X343256Y316506D01*
Y317495D01*
X343000Y318450D01*
X342506Y319306D01*
X341806Y320005D01*
X340950Y320500D01*
X339995Y320756D01*
D02*
G37*
G36*
X592953Y315953D02*
X585047D01*
Y308047D01*
X592953D01*
Y315953D01*
D02*
G37*
G36*
X579520D02*
X578480D01*
X577474Y315683D01*
X576573Y315163D01*
X575837Y314427D01*
X575317Y313526D01*
X575047Y312520D01*
Y311480D01*
X575317Y310474D01*
X575837Y309573D01*
X576573Y308837D01*
X577474Y308317D01*
X578480Y308047D01*
X579520D01*
X580526Y308317D01*
X581427Y308837D01*
X582163Y309573D01*
X582683Y310474D01*
X582953Y311480D01*
Y312520D01*
X582683Y313526D01*
X582163Y314427D01*
X581427Y315163D01*
X580526Y315683D01*
X579520Y315953D01*
D02*
G37*
G36*
X569520D02*
X568480D01*
X567474Y315683D01*
X566573Y315163D01*
X565837Y314427D01*
X565317Y313526D01*
X565047Y312520D01*
Y311480D01*
X565317Y310474D01*
X565837Y309573D01*
X566573Y308837D01*
X567474Y308317D01*
X568480Y308047D01*
X569520D01*
X570526Y308317D01*
X571427Y308837D01*
X572163Y309573D01*
X572683Y310474D01*
X572953Y311480D01*
Y312520D01*
X572683Y313526D01*
X572163Y314427D01*
X571427Y315163D01*
X570526Y315683D01*
X569520Y315953D01*
D02*
G37*
G36*
X441090Y308500D02*
X440500D01*
Y307910D01*
X441090Y308500D01*
D02*
G37*
G36*
X435500D02*
X434910D01*
X435500Y307910D01*
Y308500D01*
D02*
G37*
G36*
X428520Y314953D02*
X427480D01*
X426474Y314683D01*
X425573Y314163D01*
X424837Y313427D01*
X424317Y312526D01*
X424047Y311520D01*
Y310480D01*
X424317Y309474D01*
X424837Y308573D01*
X425573Y307837D01*
X426474Y307317D01*
X427480Y307047D01*
X428520D01*
X429526Y307317D01*
X430427Y307837D01*
X431163Y308573D01*
X431683Y309474D01*
X431953Y310480D01*
Y311520D01*
X431683Y312526D01*
X431163Y313427D01*
X430427Y314163D01*
X429526Y314683D01*
X428520Y314953D01*
D02*
G37*
G36*
X344520Y395953D02*
X343480D01*
X342474Y395683D01*
X341573Y395163D01*
X340837Y394427D01*
X340317Y393526D01*
X340047Y392520D01*
Y391480D01*
X340317Y390474D01*
X340837Y389573D01*
X341573Y388837D01*
X342471Y388319D01*
Y387500D01*
X342587Y386915D01*
X342919Y386419D01*
X357919Y371419D01*
X358415Y371087D01*
X359000Y370971D01*
X379366D01*
X419471Y330867D01*
Y302377D01*
X419408Y302329D01*
X418971Y302192D01*
X335529Y385633D01*
Y388319D01*
X336427Y388837D01*
X337163Y389573D01*
X337683Y390474D01*
X337953Y391480D01*
Y392520D01*
X337683Y393526D01*
X337163Y394427D01*
X336427Y395163D01*
X335526Y395683D01*
X334520Y395953D01*
X333480D01*
X332474Y395683D01*
X331573Y395163D01*
X330837Y394427D01*
X330317Y393526D01*
X330047Y392520D01*
Y391480D01*
X330317Y390474D01*
X330837Y389573D01*
X331573Y388837D01*
X332471Y388319D01*
Y385000D01*
X332587Y384415D01*
X332919Y383919D01*
X414951Y301886D01*
X414692Y301438D01*
X414461Y301500D01*
X413539D01*
X412649Y301261D01*
X411851Y300801D01*
X411199Y300149D01*
X410739Y299351D01*
X410500Y298461D01*
Y297539D01*
X410739Y296649D01*
X411199Y295851D01*
X411851Y295199D01*
X412471Y294842D01*
Y293000D01*
X412471Y293000D01*
Y288703D01*
X412587Y288118D01*
X412919Y287621D01*
X425721Y274819D01*
Y274248D01*
X425573Y274163D01*
X424837Y273427D01*
X424317Y272526D01*
X424047Y271520D01*
Y270480D01*
X424317Y269474D01*
X424837Y268573D01*
X425573Y267837D01*
X426474Y267317D01*
X427480Y267047D01*
X428520D01*
X429526Y267317D01*
X430427Y267837D01*
X431163Y268573D01*
X431683Y269474D01*
X431953Y270480D01*
Y271520D01*
X431683Y272526D01*
X431163Y273427D01*
X430427Y274163D01*
X429526Y274683D01*
X428780Y274883D01*
Y275453D01*
X428663Y276038D01*
X428332Y276534D01*
X428280Y276585D01*
X428472Y277047D01*
X428520D01*
X429526Y277317D01*
X430427Y277837D01*
X431163Y278573D01*
X431683Y279474D01*
X431953Y280480D01*
Y281520D01*
X431683Y282526D01*
X431163Y283427D01*
X431034Y283556D01*
X431226Y284018D01*
X432819D01*
X434315Y282522D01*
X434047Y281520D01*
Y280480D01*
X434317Y279474D01*
X434837Y278573D01*
X435573Y277837D01*
X436474Y277317D01*
X437480Y277047D01*
X438520D01*
X439526Y277317D01*
X440427Y277837D01*
X441163Y278573D01*
X441683Y279474D01*
X441953Y280480D01*
Y281520D01*
X441683Y282526D01*
X441163Y283427D01*
X440427Y284163D01*
X439526Y284683D01*
X438520Y284953D01*
X437480D01*
X436478Y284684D01*
X434534Y286629D01*
X434038Y286960D01*
X433453Y287076D01*
X430110D01*
X429976Y287577D01*
X430427Y287837D01*
X431163Y288573D01*
X431683Y289474D01*
X431953Y290480D01*
Y291520D01*
X431683Y292526D01*
X431163Y293427D01*
X430427Y294163D01*
X429526Y294683D01*
X428520Y294953D01*
X427480D01*
X426474Y294683D01*
X425573Y294163D01*
X424837Y293427D01*
X424317Y292526D01*
X424047Y291520D01*
Y291472D01*
X423585Y291280D01*
X422529Y292336D01*
Y331500D01*
X422413Y332085D01*
X422081Y332581D01*
X381081Y373581D01*
X380585Y373913D01*
X380000Y374029D01*
X359633D01*
X345777Y387885D01*
X345847Y388502D01*
X346427Y388837D01*
X347163Y389573D01*
X347683Y390474D01*
X347953Y391480D01*
Y392520D01*
X347683Y393526D01*
X347163Y394427D01*
X346427Y395163D01*
X345526Y395683D01*
X344520Y395953D01*
D02*
G37*
G36*
X482953Y308453D02*
X475047D01*
Y300547D01*
X482953D01*
Y308453D01*
D02*
G37*
G36*
X589520Y305953D02*
X588480D01*
X587474Y305683D01*
X586573Y305163D01*
X585837Y304427D01*
X585317Y303526D01*
X585047Y302520D01*
Y301480D01*
X585317Y300474D01*
X585837Y299573D01*
X586573Y298837D01*
X587474Y298317D01*
X588480Y298047D01*
X589520D01*
X590526Y298317D01*
X591427Y298837D01*
X592163Y299573D01*
X592683Y300474D01*
X592953Y301480D01*
Y302520D01*
X592683Y303526D01*
X592163Y304427D01*
X591427Y305163D01*
X590526Y305683D01*
X589520Y305953D01*
D02*
G37*
G36*
X579520D02*
X578480D01*
X577474Y305683D01*
X576573Y305163D01*
X575837Y304427D01*
X575317Y303526D01*
X575047Y302520D01*
Y301480D01*
X575317Y300474D01*
X575837Y299573D01*
X576573Y298837D01*
X577474Y298317D01*
X578480Y298047D01*
X579520D01*
X580526Y298317D01*
X581427Y298837D01*
X582163Y299573D01*
X582683Y300474D01*
X582953Y301480D01*
Y302520D01*
X582683Y303526D01*
X582163Y304427D01*
X581427Y305163D01*
X580526Y305683D01*
X579520Y305953D01*
D02*
G37*
G36*
X569520D02*
X568480D01*
X567474Y305683D01*
X566573Y305163D01*
X565837Y304427D01*
X565317Y303526D01*
X565047Y302520D01*
Y301480D01*
X565317Y300474D01*
X565837Y299573D01*
X566573Y298837D01*
X567474Y298317D01*
X568480Y298047D01*
X569520D01*
X570526Y298317D01*
X571427Y298837D01*
X572163Y299573D01*
X572683Y300474D01*
X572953Y301480D01*
Y302520D01*
X572683Y303526D01*
X572163Y304427D01*
X571427Y305163D01*
X570526Y305683D01*
X569520Y305953D01*
D02*
G37*
G36*
X438520Y304953D02*
X437480D01*
X436474Y304683D01*
X435573Y304163D01*
X434837Y303427D01*
X434317Y302526D01*
X434047Y301520D01*
Y300480D01*
X434317Y299474D01*
X434837Y298573D01*
X435573Y297837D01*
X436474Y297317D01*
X437480Y297047D01*
X438520D01*
X439526Y297317D01*
X440427Y297837D01*
X441163Y298573D01*
X441683Y299474D01*
X441953Y300480D01*
Y301520D01*
X441683Y302526D01*
X441163Y303427D01*
X440427Y304163D01*
X439526Y304683D01*
X438520Y304953D01*
D02*
G37*
G36*
X428520D02*
X427480D01*
X426474Y304683D01*
X425573Y304163D01*
X424837Y303427D01*
X424317Y302526D01*
X424047Y301520D01*
Y300480D01*
X424317Y299474D01*
X424837Y298573D01*
X425573Y297837D01*
X426474Y297317D01*
X427480Y297047D01*
X428520D01*
X429526Y297317D01*
X430427Y297837D01*
X431163Y298573D01*
X431683Y299474D01*
X431953Y300480D01*
Y301520D01*
X431683Y302526D01*
X431163Y303427D01*
X430427Y304163D01*
X429526Y304683D01*
X428520Y304953D01*
D02*
G37*
G36*
X297527Y303500D02*
X296473D01*
X295456Y303227D01*
X294544Y302701D01*
X293799Y301956D01*
X293273Y301044D01*
X293000Y300027D01*
Y298973D01*
X293273Y297956D01*
X293799Y297044D01*
X294544Y296299D01*
X295456Y295773D01*
X295516Y295757D01*
Y295257D01*
X295439Y295236D01*
X294527Y294709D01*
X293826Y294009D01*
X300140D01*
X299439Y294709D01*
X298527Y295236D01*
X298467Y295252D01*
Y295752D01*
X298544Y295773D01*
X299456Y296299D01*
X300201Y297044D01*
X300727Y297956D01*
X301000Y298973D01*
Y300027D01*
X300727Y301044D01*
X300201Y301956D01*
X299456Y302701D01*
X298544Y303227D01*
X297527Y303500D01*
D02*
G37*
G36*
X347461Y303424D02*
X346408D01*
X345391Y303152D01*
X344479Y302625D01*
X343734Y301880D01*
X343207Y300968D01*
X342935Y299951D01*
Y298898D01*
X343207Y297880D01*
X343734Y296968D01*
X344479Y296223D01*
X345391Y295697D01*
X345450Y295681D01*
Y295181D01*
X345374Y295160D01*
X344461Y294634D01*
X343761Y293933D01*
X350074D01*
X349374Y294634D01*
X348462Y295160D01*
X348402Y295176D01*
Y295676D01*
X348479Y295697D01*
X349391Y296223D01*
X350135Y296968D01*
X350662Y297880D01*
X350935Y298898D01*
Y299951D01*
X350662Y300968D01*
X350135Y301880D01*
X349391Y302625D01*
X348479Y303152D01*
X347461Y303424D01*
D02*
G37*
G36*
X337461D02*
X336408D01*
X335391Y303152D01*
X334479Y302625D01*
X333734Y301880D01*
X333207Y300968D01*
X332935Y299951D01*
Y298898D01*
X333207Y297880D01*
X333734Y296968D01*
X334479Y296223D01*
X335391Y295697D01*
X335450Y295681D01*
Y295181D01*
X335374Y295160D01*
X334461Y294634D01*
X333761Y293933D01*
X340074D01*
X339374Y294634D01*
X338461Y295160D01*
X338402Y295176D01*
Y295676D01*
X338479Y295697D01*
X339391Y296223D01*
X340136Y296968D01*
X340662Y297880D01*
X340935Y298898D01*
Y299951D01*
X340662Y300968D01*
X340136Y301880D01*
X339391Y302625D01*
X338479Y303152D01*
X337461Y303424D01*
D02*
G37*
G36*
X327461D02*
X326408D01*
X325391Y303152D01*
X324479Y302625D01*
X323734Y301880D01*
X323207Y300968D01*
X322935Y299951D01*
Y298898D01*
X323207Y297880D01*
X323734Y296968D01*
X324479Y296223D01*
X325391Y295697D01*
X325450Y295681D01*
Y295181D01*
X325374Y295160D01*
X324462Y294634D01*
X323761Y293933D01*
X330074D01*
X329374Y294634D01*
X328462Y295160D01*
X328402Y295176D01*
Y295676D01*
X328479Y295697D01*
X329391Y296223D01*
X330135Y296968D01*
X330662Y297880D01*
X330935Y298898D01*
Y299951D01*
X330662Y300968D01*
X330135Y301880D01*
X329391Y302625D01*
X328479Y303152D01*
X327461Y303424D01*
D02*
G37*
G36*
X317461D02*
X316408D01*
X315391Y303152D01*
X314479Y302625D01*
X313734Y301880D01*
X313207Y300968D01*
X312935Y299951D01*
Y298898D01*
X313207Y297880D01*
X313734Y296968D01*
X314479Y296223D01*
X315391Y295697D01*
X315450Y295681D01*
Y295181D01*
X315374Y295160D01*
X314461Y294634D01*
X313761Y293933D01*
X320074D01*
X319374Y294634D01*
X318461Y295160D01*
X318402Y295176D01*
Y295676D01*
X318479Y295697D01*
X319391Y296223D01*
X320135Y296968D01*
X320662Y297880D01*
X320935Y298898D01*
Y299951D01*
X320662Y300968D01*
X320135Y301880D01*
X319391Y302625D01*
X318479Y303152D01*
X317461Y303424D01*
D02*
G37*
G36*
X307461D02*
X306408D01*
X305391Y303152D01*
X304479Y302625D01*
X303734Y301880D01*
X303207Y300968D01*
X302935Y299951D01*
Y298898D01*
X303207Y297880D01*
X303734Y296968D01*
X304479Y296223D01*
X305391Y295697D01*
X305450Y295681D01*
Y295181D01*
X305374Y295160D01*
X304462Y294634D01*
X303761Y293933D01*
X310074D01*
X309374Y294634D01*
X308461Y295160D01*
X308402Y295176D01*
Y295676D01*
X308479Y295697D01*
X309391Y296223D01*
X310136Y296968D01*
X310662Y297880D01*
X310935Y298898D01*
Y299951D01*
X310662Y300968D01*
X310136Y301880D01*
X309391Y302625D01*
X308479Y303152D01*
X307461Y303424D01*
D02*
G37*
G36*
X357453Y303307D02*
X356400D01*
X355383Y303034D01*
X354470Y302508D01*
X353726Y301763D01*
X353199Y300851D01*
X352927Y299833D01*
Y298780D01*
X353199Y297763D01*
X353726Y296851D01*
X354470Y296106D01*
X355383Y295580D01*
X355442Y295564D01*
Y295063D01*
X355365Y295043D01*
X354453Y294516D01*
X353752Y293815D01*
X360066D01*
X359366Y294516D01*
X358453Y295043D01*
X358394Y295059D01*
Y295559D01*
X358471Y295580D01*
X359383Y296106D01*
X360127Y296851D01*
X360654Y297763D01*
X360927Y298780D01*
Y299833D01*
X360654Y300851D01*
X360127Y301763D01*
X359383Y302508D01*
X358471Y303034D01*
X357453Y303307D01*
D02*
G37*
G36*
X397388Y303231D02*
X396335D01*
X395317Y302959D01*
X394405Y302432D01*
X393660Y301687D01*
X393134Y300775D01*
X392861Y299758D01*
Y298705D01*
X393134Y297687D01*
X393660Y296775D01*
X394405Y296030D01*
X395317Y295504D01*
X395377Y295488D01*
Y294988D01*
X395300Y294967D01*
X394388Y294441D01*
X393687Y293740D01*
X400001D01*
X399300Y294441D01*
X398388Y294967D01*
X398328Y294983D01*
Y295483D01*
X398405Y295504D01*
X399317Y296030D01*
X400062Y296775D01*
X400589Y297687D01*
X400861Y298705D01*
Y299758D01*
X400589Y300775D01*
X400062Y301687D01*
X399317Y302432D01*
X398405Y302959D01*
X397388Y303231D01*
D02*
G37*
G36*
X387388D02*
X386335D01*
X385317Y302959D01*
X384405Y302432D01*
X383660Y301687D01*
X383134Y300775D01*
X382861Y299758D01*
Y298705D01*
X383134Y297687D01*
X383660Y296775D01*
X384405Y296030D01*
X385317Y295504D01*
X385377Y295488D01*
Y294988D01*
X385300Y294967D01*
X384388Y294441D01*
X383687Y293740D01*
X390001D01*
X389300Y294441D01*
X388388Y294967D01*
X388328Y294983D01*
Y295483D01*
X388405Y295504D01*
X389317Y296030D01*
X390062Y296775D01*
X390589Y297687D01*
X390861Y298705D01*
Y299758D01*
X390589Y300775D01*
X390062Y301687D01*
X389317Y302432D01*
X388405Y302959D01*
X387388Y303231D01*
D02*
G37*
G36*
X377388D02*
X376335D01*
X375317Y302959D01*
X374405Y302432D01*
X373660Y301687D01*
X373134Y300775D01*
X372861Y299758D01*
Y298705D01*
X373134Y297687D01*
X373660Y296775D01*
X374405Y296030D01*
X375317Y295504D01*
X375377Y295488D01*
Y294988D01*
X375300Y294967D01*
X374388Y294441D01*
X373687Y293740D01*
X380001D01*
X379300Y294441D01*
X378388Y294967D01*
X378328Y294983D01*
Y295483D01*
X378405Y295504D01*
X379317Y296030D01*
X380062Y296775D01*
X380589Y297687D01*
X380861Y298705D01*
Y299758D01*
X380589Y300775D01*
X380062Y301687D01*
X379317Y302432D01*
X378405Y302959D01*
X377388Y303231D01*
D02*
G37*
G36*
X367388D02*
X366335D01*
X365317Y302959D01*
X364405Y302432D01*
X363660Y301687D01*
X363134Y300775D01*
X362861Y299758D01*
Y298705D01*
X363134Y297687D01*
X363660Y296775D01*
X364405Y296030D01*
X365317Y295504D01*
X365377Y295488D01*
Y294988D01*
X365300Y294967D01*
X364388Y294441D01*
X363687Y293740D01*
X370001D01*
X369300Y294441D01*
X368388Y294967D01*
X368328Y294983D01*
Y295483D01*
X368405Y295504D01*
X369317Y296030D01*
X370062Y296775D01*
X370589Y297687D01*
X370861Y298705D01*
Y299758D01*
X370589Y300775D01*
X370062Y301687D01*
X369317Y302432D01*
X368405Y302959D01*
X367388Y303231D01*
D02*
G37*
G36*
X479520Y298453D02*
X478480D01*
X477474Y298183D01*
X476573Y297663D01*
X475837Y296927D01*
X475317Y296026D01*
X475047Y295020D01*
Y293980D01*
X475317Y292974D01*
X475837Y292073D01*
X476573Y291337D01*
X477474Y290817D01*
X478480Y290547D01*
X479520D01*
X480526Y290817D01*
X481427Y291337D01*
X482163Y292073D01*
X482683Y292974D01*
X482953Y293980D01*
Y295020D01*
X482683Y296026D01*
X482163Y296927D01*
X481427Y297663D01*
X480526Y298183D01*
X479520Y298453D01*
D02*
G37*
G36*
X589520Y295953D02*
X588480D01*
X587474Y295683D01*
X586573Y295163D01*
X585837Y294427D01*
X585317Y293526D01*
X585047Y292520D01*
Y291480D01*
X585317Y290474D01*
X585837Y289573D01*
X586573Y288837D01*
X587474Y288317D01*
X588480Y288047D01*
X589520D01*
X590526Y288317D01*
X591427Y288837D01*
X592163Y289573D01*
X592683Y290474D01*
X592953Y291480D01*
Y292520D01*
X592683Y293526D01*
X592163Y294427D01*
X591427Y295163D01*
X590526Y295683D01*
X589520Y295953D01*
D02*
G37*
G36*
X579520D02*
X578480D01*
X577474Y295683D01*
X576573Y295163D01*
X575837Y294427D01*
X575317Y293526D01*
X575047Y292520D01*
Y291480D01*
X575317Y290474D01*
X575837Y289573D01*
X576573Y288837D01*
X577474Y288317D01*
X578480Y288047D01*
X579520D01*
X580526Y288317D01*
X581427Y288837D01*
X582163Y289573D01*
X582683Y290474D01*
X582953Y291480D01*
Y292520D01*
X582683Y293526D01*
X582163Y294427D01*
X581427Y295163D01*
X580526Y295683D01*
X579520Y295953D01*
D02*
G37*
G36*
X569520D02*
X568480D01*
X567474Y295683D01*
X566573Y295163D01*
X565837Y294427D01*
X565317Y293526D01*
X565047Y292520D01*
Y291480D01*
X565317Y290474D01*
X565837Y289573D01*
X566573Y288837D01*
X567474Y288317D01*
X568480Y288047D01*
X569520D01*
X570526Y288317D01*
X571427Y288837D01*
X572163Y289573D01*
X572683Y290474D01*
X572953Y291480D01*
Y292520D01*
X572683Y293526D01*
X572163Y294427D01*
X571427Y295163D01*
X570526Y295683D01*
X569520Y295953D01*
D02*
G37*
G36*
X438520Y294953D02*
X437480D01*
X436474Y294683D01*
X435573Y294163D01*
X434837Y293427D01*
X434317Y292526D01*
X434047Y291520D01*
Y290480D01*
X434317Y289474D01*
X434837Y288573D01*
X435573Y287837D01*
X436474Y287317D01*
X437480Y287047D01*
X438520D01*
X439526Y287317D01*
X440427Y287837D01*
X441163Y288573D01*
X441683Y289474D01*
X441953Y290480D01*
Y291520D01*
X441683Y292526D01*
X441163Y293427D01*
X440427Y294163D01*
X439526Y294683D01*
X438520Y294953D01*
D02*
G37*
G36*
X481500Y287590D02*
Y287000D01*
X482090D01*
X481500Y287590D01*
D02*
G37*
G36*
X476500D02*
X475910Y287000D01*
X476500D01*
Y287590D01*
D02*
G37*
G36*
X482090Y282000D02*
X481500D01*
Y281410D01*
X482090Y282000D01*
D02*
G37*
G36*
X476500D02*
X475910D01*
X476500Y281410D01*
Y282000D01*
D02*
G37*
G36*
X589520Y285953D02*
X588480D01*
X587474Y285683D01*
X586573Y285163D01*
X585837Y284427D01*
X585317Y283526D01*
X585047Y282520D01*
Y281480D01*
X585317Y280474D01*
X585837Y279573D01*
X586573Y278837D01*
X587474Y278317D01*
X588480Y278047D01*
X589520D01*
X590526Y278317D01*
X591427Y278837D01*
X592163Y279573D01*
X592683Y280474D01*
X592953Y281480D01*
Y282520D01*
X592683Y283526D01*
X592163Y284427D01*
X591427Y285163D01*
X590526Y285683D01*
X589520Y285953D01*
D02*
G37*
G36*
X579520D02*
X578480D01*
X577474Y285683D01*
X576573Y285163D01*
X575837Y284427D01*
X575317Y283526D01*
X575047Y282520D01*
Y281480D01*
X575317Y280474D01*
X575837Y279573D01*
X576573Y278837D01*
X577474Y278317D01*
X578480Y278047D01*
X579520D01*
X580526Y278317D01*
X581427Y278837D01*
X582163Y279573D01*
X582683Y280474D01*
X582953Y281480D01*
Y282520D01*
X582683Y283526D01*
X582163Y284427D01*
X581427Y285163D01*
X580526Y285683D01*
X579520Y285953D01*
D02*
G37*
G36*
X569520D02*
X568480D01*
X567474Y285683D01*
X566573Y285163D01*
X565837Y284427D01*
X565317Y283526D01*
X565047Y282520D01*
Y281480D01*
X565317Y280474D01*
X565837Y279573D01*
X566573Y278837D01*
X567474Y278317D01*
X568480Y278047D01*
X569520D01*
X570526Y278317D01*
X571427Y278837D01*
X572163Y279573D01*
X572683Y280474D01*
X572953Y281480D01*
Y282520D01*
X572683Y283526D01*
X572163Y284427D01*
X571427Y285163D01*
X570526Y285683D01*
X569520Y285953D01*
D02*
G37*
G36*
X440500Y274090D02*
Y273500D01*
X441090D01*
X440500Y274090D01*
D02*
G37*
G36*
X435500D02*
X434910Y273500D01*
X435500D01*
Y274090D01*
D02*
G37*
G36*
X589520Y275953D02*
X588480D01*
X587474Y275683D01*
X586573Y275163D01*
X585837Y274427D01*
X585317Y273526D01*
X585047Y272520D01*
Y271480D01*
X585317Y270474D01*
X585837Y269573D01*
X586573Y268837D01*
X587474Y268317D01*
X588480Y268047D01*
X589520D01*
X590526Y268317D01*
X591427Y268837D01*
X592163Y269573D01*
X592683Y270474D01*
X592953Y271480D01*
Y272520D01*
X592683Y273526D01*
X592163Y274427D01*
X591427Y275163D01*
X590526Y275683D01*
X589520Y275953D01*
D02*
G37*
G36*
X579520D02*
X578480D01*
X577474Y275683D01*
X576573Y275163D01*
X575837Y274427D01*
X575317Y273526D01*
X575047Y272520D01*
Y271480D01*
X575317Y270474D01*
X575837Y269573D01*
X576573Y268837D01*
X577474Y268317D01*
X578480Y268047D01*
X579520D01*
X580526Y268317D01*
X581427Y268837D01*
X582163Y269573D01*
X582683Y270474D01*
X582953Y271480D01*
Y272520D01*
X582683Y273526D01*
X582163Y274427D01*
X581427Y275163D01*
X580526Y275683D01*
X579520Y275953D01*
D02*
G37*
G36*
X569520D02*
X568480D01*
X567474Y275683D01*
X566573Y275163D01*
X565837Y274427D01*
X565317Y273526D01*
X565047Y272520D01*
Y271480D01*
X565317Y270474D01*
X565837Y269573D01*
X566573Y268837D01*
X567474Y268317D01*
X568480Y268047D01*
X569520D01*
X570526Y268317D01*
X571427Y268837D01*
X572163Y269573D01*
X572683Y270474D01*
X572953Y271480D01*
Y272520D01*
X572683Y273526D01*
X572163Y274427D01*
X571427Y275163D01*
X570526Y275683D01*
X569520Y275953D01*
D02*
G37*
G36*
X441090Y268500D02*
X440500D01*
Y267910D01*
X441090Y268500D01*
D02*
G37*
G36*
X435500D02*
X434910D01*
X435500Y267910D01*
Y268500D01*
D02*
G37*
G36*
X479520Y268453D02*
X478480D01*
X477474Y268183D01*
X476573Y267663D01*
X475837Y266927D01*
X475317Y266026D01*
X475047Y265020D01*
Y263980D01*
X475317Y262974D01*
X475837Y262073D01*
X476573Y261337D01*
X477474Y260817D01*
X478480Y260547D01*
X479520D01*
X480526Y260817D01*
X481427Y261337D01*
X482163Y262073D01*
X482683Y262974D01*
X482953Y263980D01*
Y265020D01*
X482683Y266026D01*
X482163Y266927D01*
X481427Y267663D01*
X480526Y268183D01*
X479520Y268453D01*
D02*
G37*
G36*
X589520Y265953D02*
X588480D01*
X587474Y265683D01*
X586573Y265163D01*
X585837Y264427D01*
X585317Y263526D01*
X585047Y262520D01*
Y261480D01*
X585317Y260474D01*
X585837Y259573D01*
X586573Y258837D01*
X587474Y258317D01*
X588480Y258047D01*
X589520D01*
X590526Y258317D01*
X591427Y258837D01*
X592163Y259573D01*
X592683Y260474D01*
X592953Y261480D01*
Y262520D01*
X592683Y263526D01*
X592163Y264427D01*
X591427Y265163D01*
X590526Y265683D01*
X589520Y265953D01*
D02*
G37*
G36*
X579520D02*
X578480D01*
X577474Y265683D01*
X576573Y265163D01*
X575837Y264427D01*
X575317Y263526D01*
X575047Y262520D01*
Y261480D01*
X575317Y260474D01*
X575837Y259573D01*
X576573Y258837D01*
X577474Y258317D01*
X578480Y258047D01*
X579520D01*
X580526Y258317D01*
X581427Y258837D01*
X582163Y259573D01*
X582683Y260474D01*
X582953Y261480D01*
Y262520D01*
X582683Y263526D01*
X582163Y264427D01*
X581427Y265163D01*
X580526Y265683D01*
X579520Y265953D01*
D02*
G37*
G36*
X569520D02*
X568480D01*
X567474Y265683D01*
X566573Y265163D01*
X565837Y264427D01*
X565317Y263526D01*
X565047Y262520D01*
Y261480D01*
X565317Y260474D01*
X565837Y259573D01*
X566573Y258837D01*
X567474Y258317D01*
X568480Y258047D01*
X569520D01*
X570526Y258317D01*
X571427Y258837D01*
X572163Y259573D01*
X572683Y260474D01*
X572953Y261480D01*
Y262520D01*
X572683Y263526D01*
X572163Y264427D01*
X571427Y265163D01*
X570526Y265683D01*
X569520Y265953D01*
D02*
G37*
G36*
X479520Y258453D02*
X478480D01*
X477474Y258183D01*
X476573Y257663D01*
X475837Y256927D01*
X475317Y256026D01*
X475047Y255020D01*
Y253980D01*
X475317Y252974D01*
X475837Y252073D01*
X476573Y251337D01*
X477474Y250817D01*
X478480Y250547D01*
X479520D01*
X480526Y250817D01*
X481427Y251337D01*
X482163Y252073D01*
X482683Y252974D01*
X482953Y253980D01*
Y255020D01*
X482683Y256026D01*
X482163Y256927D01*
X481427Y257663D01*
X480526Y258183D01*
X479520Y258453D01*
D02*
G37*
G36*
X579520Y255953D02*
X578480D01*
X577474Y255683D01*
X576573Y255163D01*
X575837Y254427D01*
X575317Y253526D01*
X575047Y252520D01*
Y251480D01*
X575317Y250474D01*
X575837Y249573D01*
X576573Y248837D01*
X577474Y248317D01*
X578480Y248047D01*
X579520D01*
X580526Y248317D01*
X581427Y248837D01*
X582163Y249573D01*
X582683Y250474D01*
X582953Y251480D01*
Y252520D01*
X582683Y253526D01*
X582163Y254427D01*
X581427Y255163D01*
X580526Y255683D01*
X579520Y255953D01*
D02*
G37*
G36*
X569520D02*
X568480D01*
X567474Y255683D01*
X566573Y255163D01*
X565837Y254427D01*
X565317Y253526D01*
X565047Y252520D01*
Y251480D01*
X565317Y250474D01*
X565837Y249573D01*
X566573Y248837D01*
X567474Y248317D01*
X568480Y248047D01*
X569520D01*
X570526Y248317D01*
X571427Y248837D01*
X572163Y249573D01*
X572683Y250474D01*
X572953Y251480D01*
Y252520D01*
X572683Y253526D01*
X572163Y254427D01*
X571427Y255163D01*
X570526Y255683D01*
X569520Y255953D01*
D02*
G37*
G36*
X479520Y248453D02*
X478480D01*
X477474Y248183D01*
X476573Y247663D01*
X475837Y246927D01*
X475317Y246026D01*
X475047Y245020D01*
Y243980D01*
X475317Y242974D01*
X475837Y242073D01*
X476573Y241337D01*
X477474Y240817D01*
X478480Y240547D01*
X479520D01*
X480526Y240817D01*
X481427Y241337D01*
X482163Y242073D01*
X482683Y242974D01*
X482953Y243980D01*
Y245020D01*
X482683Y246026D01*
X482163Y246927D01*
X481427Y247663D01*
X480526Y248183D01*
X479520Y248453D01*
D02*
G37*
G36*
X579520Y245953D02*
X578480D01*
X577474Y245683D01*
X576573Y245163D01*
X575837Y244427D01*
X575317Y243526D01*
X575047Y242520D01*
Y241480D01*
X575317Y240474D01*
X575837Y239573D01*
X576573Y238837D01*
X577474Y238317D01*
X578480Y238047D01*
X579520D01*
X580526Y238317D01*
X581427Y238837D01*
X582163Y239573D01*
X582683Y240474D01*
X582953Y241480D01*
Y242520D01*
X582683Y243526D01*
X582163Y244427D01*
X581427Y245163D01*
X580526Y245683D01*
X579520Y245953D01*
D02*
G37*
G36*
X569520D02*
X568480D01*
X567474Y245683D01*
X566573Y245163D01*
X565837Y244427D01*
X565317Y243526D01*
X565047Y242520D01*
Y241480D01*
X565317Y240474D01*
X565837Y239573D01*
X566573Y238837D01*
X567474Y238317D01*
X568480Y238047D01*
X569520D01*
X570526Y238317D01*
X571427Y238837D01*
X572163Y239573D01*
X572683Y240474D01*
X572953Y241480D01*
Y242520D01*
X572683Y243526D01*
X572163Y244427D01*
X571427Y245163D01*
X570526Y245683D01*
X569520Y245953D01*
D02*
G37*
G36*
X479520Y238453D02*
X478480D01*
X477474Y238183D01*
X476573Y237663D01*
X475837Y236927D01*
X475317Y236026D01*
X475047Y235020D01*
Y233980D01*
X475317Y232974D01*
X475837Y232073D01*
X476573Y231337D01*
X477474Y230817D01*
X478480Y230547D01*
X479520D01*
X480526Y230817D01*
X481427Y231337D01*
X482163Y232073D01*
X482683Y232974D01*
X482953Y233980D01*
Y235020D01*
X482683Y236026D01*
X482163Y236927D01*
X481427Y237663D01*
X480526Y238183D01*
X479520Y238453D01*
D02*
G37*
G36*
X579520Y235953D02*
X578480D01*
X577474Y235683D01*
X576573Y235163D01*
X575837Y234427D01*
X575317Y233526D01*
X575047Y232520D01*
Y231480D01*
X575317Y230474D01*
X575837Y229573D01*
X576573Y228837D01*
X577474Y228317D01*
X578480Y228047D01*
X579520D01*
X580526Y228317D01*
X581427Y228837D01*
X582163Y229573D01*
X582683Y230474D01*
X582953Y231480D01*
Y232520D01*
X582683Y233526D01*
X582163Y234427D01*
X581427Y235163D01*
X580526Y235683D01*
X579520Y235953D01*
D02*
G37*
G36*
X479520Y278453D02*
X478480D01*
X477474Y278183D01*
X476573Y277663D01*
X475837Y276927D01*
X475317Y276026D01*
X475047Y275020D01*
Y273980D01*
X475317Y272974D01*
X475837Y272073D01*
X476573Y271337D01*
X477474Y270817D01*
X478480Y270547D01*
X479520D01*
X480526Y270817D01*
X481427Y271337D01*
X482163Y272073D01*
X482681Y272971D01*
X498867D01*
X540919Y230919D01*
X541415Y230587D01*
X542000Y230471D01*
X565319D01*
X565837Y229573D01*
X566573Y228837D01*
X567474Y228317D01*
X568480Y228047D01*
X569520D01*
X570526Y228317D01*
X571427Y228837D01*
X572163Y229573D01*
X572683Y230474D01*
X572953Y231480D01*
Y232520D01*
X572683Y233526D01*
X572163Y234427D01*
X571427Y235163D01*
X570526Y235683D01*
X569520Y235953D01*
X568480D01*
X567474Y235683D01*
X566573Y235163D01*
X565837Y234427D01*
X565319Y233529D01*
X542633D01*
X500581Y275581D01*
X500085Y275913D01*
X499500Y276029D01*
X482681D01*
X482163Y276927D01*
X481427Y277663D01*
X480526Y278183D01*
X479520Y278453D01*
D02*
G37*
G36*
X571500Y225090D02*
Y224500D01*
X572090D01*
X571500Y225090D01*
D02*
G37*
G36*
X582953Y225953D02*
X581500D01*
Y224500D01*
X582953D01*
Y225953D01*
D02*
G37*
G36*
X566500Y225090D02*
X565910Y224500D01*
X566500D01*
Y225090D01*
D02*
G37*
G36*
X576500Y225953D02*
X575047D01*
Y224500D01*
X576500D01*
Y225953D01*
D02*
G37*
G36*
X300140Y289009D02*
X293826D01*
X294527Y288308D01*
X295439Y287781D01*
X295896Y287659D01*
Y287141D01*
X295532Y287044D01*
X294620Y286517D01*
X293876Y285772D01*
X293349Y284860D01*
X293076Y283843D01*
Y282790D01*
X293349Y281772D01*
X293876Y280860D01*
X294620Y280115D01*
X295532Y279589D01*
X295592Y279573D01*
Y279073D01*
X295515Y279052D01*
X294603Y278526D01*
X293858Y277781D01*
X293332Y276869D01*
X293059Y275851D01*
Y274798D01*
X293332Y273781D01*
X293858Y272869D01*
X294603Y272124D01*
X295515Y271597D01*
X295591Y271577D01*
Y271059D01*
X295532Y271044D01*
X294620Y270517D01*
X293876Y269772D01*
X293349Y268860D01*
X293076Y267843D01*
Y266790D01*
X293349Y265772D01*
X293876Y264860D01*
X294620Y264115D01*
X295532Y263589D01*
X295592Y263573D01*
Y263073D01*
X295515Y263052D01*
X294603Y262526D01*
X293858Y261781D01*
X293332Y260869D01*
X293059Y259851D01*
Y258798D01*
X293332Y257781D01*
X293858Y256869D01*
X294603Y256124D01*
X295515Y255597D01*
X295591Y255577D01*
Y255059D01*
X295532Y255044D01*
X294620Y254517D01*
X293876Y253772D01*
X293349Y252860D01*
X293076Y251843D01*
Y250790D01*
X293349Y249772D01*
X293876Y248860D01*
X294620Y248115D01*
X295532Y247589D01*
X295592Y247573D01*
Y247073D01*
X295515Y247052D01*
X294603Y246526D01*
X293858Y245781D01*
X293332Y244869D01*
X293059Y243851D01*
Y242798D01*
X293332Y241781D01*
X293858Y240869D01*
X294603Y240124D01*
X295515Y239597D01*
X295591Y239577D01*
Y239059D01*
X295532Y239044D01*
X294620Y238517D01*
X293876Y237772D01*
X293349Y236860D01*
X293076Y235843D01*
Y234790D01*
X293349Y233772D01*
X293876Y232860D01*
X294620Y232115D01*
X295532Y231589D01*
X295592Y231573D01*
Y231073D01*
X295515Y231052D01*
X294603Y230526D01*
X293858Y229781D01*
X293332Y228869D01*
X293059Y227851D01*
Y226798D01*
X293332Y225781D01*
X293858Y224869D01*
X294603Y224124D01*
X295515Y223597D01*
X296533Y223325D01*
X297586D01*
X298603Y223597D01*
X299515Y224124D01*
X300260Y224869D01*
X300787Y225781D01*
X301059Y226798D01*
Y227851D01*
X300787Y228869D01*
X300260Y229781D01*
X299515Y230526D01*
X298603Y231052D01*
X298544Y231068D01*
Y231568D01*
X298620Y231589D01*
X299532Y232115D01*
X300277Y232860D01*
X300804Y233772D01*
X301076Y234790D01*
Y235843D01*
X300804Y236860D01*
X300277Y237772D01*
X299532Y238517D01*
X298620Y239044D01*
X298544Y239064D01*
Y239582D01*
X298603Y239597D01*
X299515Y240124D01*
X300260Y240869D01*
X300787Y241781D01*
X301059Y242798D01*
Y243851D01*
X300787Y244869D01*
X300260Y245781D01*
X299515Y246526D01*
X298603Y247052D01*
X298544Y247068D01*
Y247568D01*
X298620Y247589D01*
X299532Y248115D01*
X300277Y248860D01*
X300804Y249772D01*
X301076Y250790D01*
Y251843D01*
X300804Y252860D01*
X300277Y253772D01*
X299532Y254517D01*
X298620Y255044D01*
X298544Y255064D01*
Y255582D01*
X298603Y255597D01*
X299515Y256124D01*
X300260Y256869D01*
X300787Y257781D01*
X301059Y258798D01*
Y259851D01*
X300787Y260869D01*
X300260Y261781D01*
X299515Y262526D01*
X298603Y263052D01*
X298544Y263068D01*
Y263568D01*
X298620Y263589D01*
X299532Y264115D01*
X300277Y264860D01*
X300804Y265772D01*
X301076Y266790D01*
Y267843D01*
X300804Y268860D01*
X300277Y269772D01*
X299532Y270517D01*
X298620Y271044D01*
X298544Y271064D01*
Y271582D01*
X298603Y271597D01*
X299515Y272124D01*
X300260Y272869D01*
X300787Y273781D01*
X301059Y274798D01*
Y275851D01*
X300787Y276869D01*
X300260Y277781D01*
X299515Y278526D01*
X298603Y279052D01*
X298544Y279068D01*
Y279568D01*
X298620Y279589D01*
X299532Y280115D01*
X300277Y280860D01*
X300804Y281772D01*
X301076Y282790D01*
Y283843D01*
X300804Y284860D01*
X300277Y285772D01*
X299532Y286517D01*
X298620Y287044D01*
X298163Y287166D01*
Y287684D01*
X298527Y287781D01*
X299439Y288308D01*
X300140Y289009D01*
D02*
G37*
G36*
X350074Y288933D02*
X343761D01*
X344461Y288232D01*
X345374Y287705D01*
X345831Y287583D01*
Y287065D01*
X345467Y286968D01*
X344555Y286441D01*
X343810Y285697D01*
X343284Y284784D01*
X343011Y283767D01*
Y282714D01*
X343284Y281697D01*
X343810Y280784D01*
X344555Y280040D01*
X345467Y279513D01*
X345527Y279497D01*
Y278997D01*
X345450Y278976D01*
X344538Y278450D01*
X343793Y277705D01*
X343266Y276793D01*
X342994Y275776D01*
Y274723D01*
X343266Y273705D01*
X343793Y272793D01*
X344538Y272048D01*
X345450Y271522D01*
X345526Y271501D01*
Y270984D01*
X345467Y270968D01*
X344555Y270441D01*
X343810Y269696D01*
X343284Y268784D01*
X343011Y267767D01*
Y266714D01*
X343284Y265697D01*
X343810Y264784D01*
X344555Y264040D01*
X345467Y263513D01*
X345527Y263497D01*
Y262997D01*
X345450Y262977D01*
X344538Y262450D01*
X343793Y261705D01*
X343266Y260793D01*
X342994Y259776D01*
Y258722D01*
X343266Y257705D01*
X343793Y256793D01*
X344538Y256048D01*
X345450Y255522D01*
X345526Y255501D01*
Y254984D01*
X345467Y254968D01*
X344555Y254441D01*
X343810Y253696D01*
X343284Y252784D01*
X343011Y251767D01*
Y250714D01*
X343284Y249696D01*
X343810Y248784D01*
X344555Y248040D01*
X345467Y247513D01*
X345527Y247497D01*
Y246997D01*
X345450Y246976D01*
X344538Y246450D01*
X343793Y245705D01*
X343266Y244793D01*
X342994Y243776D01*
Y242723D01*
X343266Y241705D01*
X343793Y240793D01*
X344538Y240048D01*
X345450Y239522D01*
X345526Y239501D01*
Y238984D01*
X345467Y238968D01*
X344555Y238441D01*
X343810Y237697D01*
X343284Y236784D01*
X343011Y235767D01*
Y234714D01*
X343284Y233697D01*
X343810Y232784D01*
X344555Y232040D01*
X345467Y231513D01*
X345527Y231497D01*
Y230997D01*
X345450Y230977D01*
X344538Y230450D01*
X343793Y229705D01*
X343266Y228793D01*
X342994Y227776D01*
Y226723D01*
X343266Y225705D01*
X343793Y224793D01*
X344538Y224048D01*
X345450Y223522D01*
X346467Y223249D01*
X347520D01*
X348538Y223522D01*
X349450Y224048D01*
X350195Y224793D01*
X350721Y225705D01*
X350994Y226723D01*
Y227776D01*
X350721Y228793D01*
X350195Y229705D01*
X349450Y230450D01*
X348538Y230977D01*
X348478Y230993D01*
Y231492D01*
X348555Y231513D01*
X349467Y232040D01*
X350212Y232784D01*
X350738Y233697D01*
X351011Y234714D01*
Y235767D01*
X350738Y236784D01*
X350212Y237697D01*
X349467Y238441D01*
X348555Y238968D01*
X348479Y238988D01*
Y239506D01*
X348538Y239522D01*
X349450Y240048D01*
X350195Y240793D01*
X350721Y241705D01*
X350994Y242723D01*
Y243776D01*
X350721Y244793D01*
X350195Y245705D01*
X349450Y246450D01*
X348538Y246976D01*
X348478Y246992D01*
Y247493D01*
X348555Y247513D01*
X349467Y248040D01*
X350212Y248784D01*
X350738Y249696D01*
X351011Y250714D01*
Y251767D01*
X350738Y252784D01*
X350212Y253696D01*
X349467Y254441D01*
X348555Y254968D01*
X348479Y254988D01*
Y255506D01*
X348538Y255522D01*
X349450Y256048D01*
X350195Y256793D01*
X350721Y257705D01*
X350994Y258722D01*
Y259776D01*
X350721Y260793D01*
X350195Y261705D01*
X349450Y262450D01*
X348538Y262977D01*
X348478Y262993D01*
Y263492D01*
X348555Y263513D01*
X349467Y264040D01*
X350212Y264784D01*
X350738Y265697D01*
X351011Y266714D01*
Y267767D01*
X350738Y268784D01*
X350212Y269696D01*
X349467Y270441D01*
X348555Y270968D01*
X348479Y270988D01*
Y271506D01*
X348538Y271522D01*
X349450Y272048D01*
X350195Y272793D01*
X350721Y273705D01*
X350994Y274723D01*
Y275776D01*
X350721Y276793D01*
X350195Y277705D01*
X349450Y278450D01*
X348538Y278976D01*
X348478Y278993D01*
Y279492D01*
X348555Y279513D01*
X349467Y280040D01*
X350212Y280784D01*
X350738Y281697D01*
X351011Y282714D01*
Y283767D01*
X350738Y284784D01*
X350212Y285697D01*
X349467Y286441D01*
X348555Y286968D01*
X348098Y287090D01*
Y287608D01*
X348462Y287705D01*
X349374Y288232D01*
X350074Y288933D01*
D02*
G37*
G36*
X340074D02*
X333761D01*
X334461Y288232D01*
X335374Y287705D01*
X335831Y287583D01*
Y287065D01*
X335467Y286968D01*
X334555Y286441D01*
X333810Y285697D01*
X333284Y284784D01*
X333011Y283767D01*
Y282714D01*
X333284Y281697D01*
X333810Y280784D01*
X334555Y280040D01*
X335467Y279513D01*
X335527Y279497D01*
Y278997D01*
X335450Y278976D01*
X334538Y278450D01*
X333793Y277705D01*
X333266Y276793D01*
X332994Y275776D01*
Y274723D01*
X333266Y273705D01*
X333793Y272793D01*
X334538Y272048D01*
X335450Y271522D01*
X335526Y271501D01*
Y270984D01*
X335467Y270968D01*
X334555Y270441D01*
X333810Y269696D01*
X333284Y268784D01*
X333011Y267767D01*
Y266714D01*
X333284Y265697D01*
X333810Y264784D01*
X334555Y264040D01*
X335467Y263513D01*
X335527Y263497D01*
Y262997D01*
X335450Y262977D01*
X334538Y262450D01*
X333793Y261705D01*
X333266Y260793D01*
X332994Y259776D01*
Y258722D01*
X333266Y257705D01*
X333793Y256793D01*
X334538Y256048D01*
X335450Y255522D01*
X335526Y255501D01*
Y254984D01*
X335467Y254968D01*
X334555Y254441D01*
X333810Y253696D01*
X333284Y252784D01*
X333011Y251767D01*
Y250714D01*
X333284Y249696D01*
X333810Y248784D01*
X334555Y248040D01*
X335467Y247513D01*
X335527Y247497D01*
Y246997D01*
X335450Y246976D01*
X334538Y246450D01*
X333793Y245705D01*
X333266Y244793D01*
X332994Y243776D01*
Y242723D01*
X333266Y241705D01*
X333793Y240793D01*
X334538Y240048D01*
X335450Y239522D01*
X335526Y239501D01*
Y238984D01*
X335467Y238968D01*
X334555Y238441D01*
X333810Y237697D01*
X333284Y236784D01*
X333011Y235767D01*
Y234714D01*
X333284Y233697D01*
X333810Y232784D01*
X334555Y232040D01*
X335467Y231513D01*
X335527Y231497D01*
Y230997D01*
X335450Y230977D01*
X334538Y230450D01*
X333793Y229705D01*
X333266Y228793D01*
X332994Y227776D01*
Y226723D01*
X333266Y225705D01*
X333793Y224793D01*
X334538Y224048D01*
X335450Y223522D01*
X336467Y223249D01*
X337520D01*
X338538Y223522D01*
X339450Y224048D01*
X340195Y224793D01*
X340721Y225705D01*
X340994Y226723D01*
Y227776D01*
X340721Y228793D01*
X340195Y229705D01*
X339450Y230450D01*
X338538Y230977D01*
X338478Y230993D01*
Y231492D01*
X338555Y231513D01*
X339467Y232040D01*
X340212Y232784D01*
X340738Y233697D01*
X341011Y234714D01*
Y235767D01*
X340738Y236784D01*
X340212Y237697D01*
X339467Y238441D01*
X338555Y238968D01*
X338479Y238988D01*
Y239506D01*
X338538Y239522D01*
X339450Y240048D01*
X340195Y240793D01*
X340721Y241705D01*
X340994Y242723D01*
Y243776D01*
X340721Y244793D01*
X340195Y245705D01*
X339450Y246450D01*
X338538Y246976D01*
X338478Y246992D01*
Y247493D01*
X338555Y247513D01*
X339467Y248040D01*
X340212Y248784D01*
X340738Y249696D01*
X341011Y250714D01*
Y251767D01*
X340738Y252784D01*
X340212Y253696D01*
X339467Y254441D01*
X338555Y254968D01*
X338479Y254988D01*
Y255506D01*
X338538Y255522D01*
X339450Y256048D01*
X340195Y256793D01*
X340721Y257705D01*
X340994Y258722D01*
Y259776D01*
X340721Y260793D01*
X340195Y261705D01*
X339450Y262450D01*
X338538Y262977D01*
X338478Y262993D01*
Y263492D01*
X338555Y263513D01*
X339467Y264040D01*
X340212Y264784D01*
X340738Y265697D01*
X341011Y266714D01*
Y267767D01*
X340738Y268784D01*
X340212Y269696D01*
X339467Y270441D01*
X338555Y270968D01*
X338479Y270988D01*
Y271506D01*
X338538Y271522D01*
X339450Y272048D01*
X340195Y272793D01*
X340721Y273705D01*
X340994Y274723D01*
Y275776D01*
X340721Y276793D01*
X340195Y277705D01*
X339450Y278450D01*
X338538Y278976D01*
X338478Y278993D01*
Y279492D01*
X338555Y279513D01*
X339467Y280040D01*
X340212Y280784D01*
X340738Y281697D01*
X341011Y282714D01*
Y283767D01*
X340738Y284784D01*
X340212Y285697D01*
X339467Y286441D01*
X338555Y286968D01*
X338098Y287090D01*
Y287608D01*
X338461Y287705D01*
X339374Y288232D01*
X340074Y288933D01*
D02*
G37*
G36*
X330074D02*
X323761D01*
X324462Y288232D01*
X325374Y287705D01*
X325831Y287583D01*
Y287065D01*
X325467Y286968D01*
X324555Y286441D01*
X323810Y285697D01*
X323284Y284784D01*
X323011Y283767D01*
Y282714D01*
X323284Y281697D01*
X323810Y280784D01*
X324555Y280040D01*
X325467Y279513D01*
X325527Y279497D01*
Y278997D01*
X325450Y278976D01*
X324538Y278450D01*
X323793Y277705D01*
X323266Y276793D01*
X322994Y275776D01*
Y274723D01*
X323266Y273705D01*
X323793Y272793D01*
X324538Y272048D01*
X325450Y271522D01*
X325526Y271501D01*
Y270984D01*
X325467Y270968D01*
X324555Y270441D01*
X323810Y269696D01*
X323284Y268784D01*
X323011Y267767D01*
Y266714D01*
X323284Y265697D01*
X323810Y264784D01*
X324555Y264040D01*
X325467Y263513D01*
X325527Y263497D01*
Y262997D01*
X325450Y262977D01*
X324538Y262450D01*
X323793Y261705D01*
X323266Y260793D01*
X322994Y259776D01*
Y258722D01*
X323266Y257705D01*
X323793Y256793D01*
X324538Y256048D01*
X325450Y255522D01*
X325526Y255501D01*
Y254984D01*
X325467Y254968D01*
X324555Y254441D01*
X323810Y253696D01*
X323284Y252784D01*
X323011Y251767D01*
Y250714D01*
X323284Y249696D01*
X323810Y248784D01*
X324555Y248040D01*
X325467Y247513D01*
X325527Y247497D01*
Y246997D01*
X325450Y246976D01*
X324538Y246450D01*
X323793Y245705D01*
X323266Y244793D01*
X322994Y243776D01*
Y242723D01*
X323266Y241705D01*
X323793Y240793D01*
X324538Y240048D01*
X325450Y239522D01*
X325526Y239501D01*
Y238984D01*
X325467Y238968D01*
X324555Y238441D01*
X323810Y237697D01*
X323284Y236784D01*
X323011Y235767D01*
Y234714D01*
X323284Y233697D01*
X323810Y232784D01*
X324555Y232040D01*
X325467Y231513D01*
X325527Y231497D01*
Y230997D01*
X325450Y230977D01*
X324538Y230450D01*
X323793Y229705D01*
X323266Y228793D01*
X322994Y227776D01*
Y226723D01*
X323266Y225705D01*
X323793Y224793D01*
X324538Y224048D01*
X325450Y223522D01*
X326467Y223249D01*
X327520D01*
X328538Y223522D01*
X329450Y224048D01*
X330195Y224793D01*
X330721Y225705D01*
X330994Y226723D01*
Y227776D01*
X330721Y228793D01*
X330195Y229705D01*
X329450Y230450D01*
X328538Y230977D01*
X328478Y230993D01*
Y231492D01*
X328555Y231513D01*
X329467Y232040D01*
X330212Y232784D01*
X330738Y233697D01*
X331011Y234714D01*
Y235767D01*
X330738Y236784D01*
X330212Y237697D01*
X329467Y238441D01*
X328555Y238968D01*
X328479Y238988D01*
Y239506D01*
X328538Y239522D01*
X329450Y240048D01*
X330195Y240793D01*
X330721Y241705D01*
X330994Y242723D01*
Y243776D01*
X330721Y244793D01*
X330195Y245705D01*
X329450Y246450D01*
X328538Y246976D01*
X328478Y246992D01*
Y247493D01*
X328555Y247513D01*
X329467Y248040D01*
X330212Y248784D01*
X330738Y249696D01*
X331011Y250714D01*
Y251767D01*
X330738Y252784D01*
X330212Y253696D01*
X329467Y254441D01*
X328555Y254968D01*
X328479Y254988D01*
Y255506D01*
X328538Y255522D01*
X329450Y256048D01*
X330195Y256793D01*
X330721Y257705D01*
X330994Y258722D01*
Y259776D01*
X330721Y260793D01*
X330195Y261705D01*
X329450Y262450D01*
X328538Y262977D01*
X328478Y262993D01*
Y263492D01*
X328555Y263513D01*
X329467Y264040D01*
X330212Y264784D01*
X330738Y265697D01*
X331011Y266714D01*
Y267767D01*
X330738Y268784D01*
X330212Y269696D01*
X329467Y270441D01*
X328555Y270968D01*
X328479Y270988D01*
Y271506D01*
X328538Y271522D01*
X329450Y272048D01*
X330195Y272793D01*
X330721Y273705D01*
X330994Y274723D01*
Y275776D01*
X330721Y276793D01*
X330195Y277705D01*
X329450Y278450D01*
X328538Y278976D01*
X328478Y278993D01*
Y279492D01*
X328555Y279513D01*
X329467Y280040D01*
X330212Y280784D01*
X330738Y281697D01*
X331011Y282714D01*
Y283767D01*
X330738Y284784D01*
X330212Y285697D01*
X329467Y286441D01*
X328555Y286968D01*
X328098Y287090D01*
Y287608D01*
X328462Y287705D01*
X329374Y288232D01*
X330074Y288933D01*
D02*
G37*
G36*
X320074D02*
X313761D01*
X314461Y288232D01*
X315374Y287705D01*
X315831Y287583D01*
Y287065D01*
X315467Y286968D01*
X314555Y286441D01*
X313810Y285697D01*
X313284Y284784D01*
X313011Y283767D01*
Y282714D01*
X313284Y281697D01*
X313810Y280784D01*
X314555Y280040D01*
X315467Y279513D01*
X315527Y279497D01*
Y278997D01*
X315450Y278976D01*
X314538Y278450D01*
X313793Y277705D01*
X313266Y276793D01*
X312994Y275776D01*
Y274723D01*
X313266Y273705D01*
X313793Y272793D01*
X314538Y272048D01*
X315450Y271522D01*
X315526Y271501D01*
Y270984D01*
X315467Y270968D01*
X314555Y270441D01*
X313810Y269696D01*
X313284Y268784D01*
X313011Y267767D01*
Y266714D01*
X313284Y265697D01*
X313810Y264784D01*
X314555Y264040D01*
X315467Y263513D01*
X315527Y263497D01*
Y262997D01*
X315450Y262977D01*
X314538Y262450D01*
X313793Y261705D01*
X313266Y260793D01*
X312994Y259776D01*
Y258722D01*
X313266Y257705D01*
X313793Y256793D01*
X314538Y256048D01*
X315450Y255522D01*
X315526Y255501D01*
Y254984D01*
X315467Y254968D01*
X314555Y254441D01*
X313810Y253696D01*
X313284Y252784D01*
X313011Y251767D01*
Y250714D01*
X313284Y249696D01*
X313810Y248784D01*
X314555Y248040D01*
X315467Y247513D01*
X315527Y247497D01*
Y246997D01*
X315450Y246976D01*
X314538Y246450D01*
X313793Y245705D01*
X313266Y244793D01*
X312994Y243776D01*
Y242723D01*
X313266Y241705D01*
X313793Y240793D01*
X314538Y240048D01*
X315450Y239522D01*
X315526Y239501D01*
Y238984D01*
X315467Y238968D01*
X314555Y238441D01*
X313810Y237697D01*
X313284Y236784D01*
X313011Y235767D01*
Y234714D01*
X313284Y233697D01*
X313810Y232784D01*
X314555Y232040D01*
X315467Y231513D01*
X315527Y231497D01*
Y230997D01*
X315450Y230977D01*
X314538Y230450D01*
X313793Y229705D01*
X313266Y228793D01*
X312994Y227776D01*
Y226723D01*
X313266Y225705D01*
X313793Y224793D01*
X314538Y224048D01*
X315450Y223522D01*
X316467Y223249D01*
X317520D01*
X318538Y223522D01*
X319450Y224048D01*
X320195Y224793D01*
X320721Y225705D01*
X320994Y226723D01*
Y227776D01*
X320721Y228793D01*
X320195Y229705D01*
X319450Y230450D01*
X318538Y230977D01*
X318478Y230993D01*
Y231492D01*
X318555Y231513D01*
X319467Y232040D01*
X320212Y232784D01*
X320738Y233697D01*
X321011Y234714D01*
Y235767D01*
X320738Y236784D01*
X320212Y237697D01*
X319467Y238441D01*
X318555Y238968D01*
X318479Y238988D01*
Y239506D01*
X318538Y239522D01*
X319450Y240048D01*
X320195Y240793D01*
X320721Y241705D01*
X320994Y242723D01*
Y243776D01*
X320721Y244793D01*
X320195Y245705D01*
X319450Y246450D01*
X318538Y246976D01*
X318478Y246992D01*
Y247493D01*
X318555Y247513D01*
X319467Y248040D01*
X320212Y248784D01*
X320738Y249696D01*
X321011Y250714D01*
Y251767D01*
X320738Y252784D01*
X320212Y253696D01*
X319467Y254441D01*
X318555Y254968D01*
X318479Y254988D01*
Y255506D01*
X318538Y255522D01*
X319450Y256048D01*
X320195Y256793D01*
X320721Y257705D01*
X320994Y258722D01*
Y259776D01*
X320721Y260793D01*
X320195Y261705D01*
X319450Y262450D01*
X318538Y262977D01*
X318478Y262993D01*
Y263492D01*
X318555Y263513D01*
X319467Y264040D01*
X320212Y264784D01*
X320738Y265697D01*
X321011Y266714D01*
Y267767D01*
X320738Y268784D01*
X320212Y269696D01*
X319467Y270441D01*
X318555Y270968D01*
X318479Y270988D01*
Y271506D01*
X318538Y271522D01*
X319450Y272048D01*
X320195Y272793D01*
X320721Y273705D01*
X320994Y274723D01*
Y275776D01*
X320721Y276793D01*
X320195Y277705D01*
X319450Y278450D01*
X318538Y278976D01*
X318478Y278993D01*
Y279492D01*
X318555Y279513D01*
X319467Y280040D01*
X320212Y280784D01*
X320738Y281697D01*
X321011Y282714D01*
Y283767D01*
X320738Y284784D01*
X320212Y285697D01*
X319467Y286441D01*
X318555Y286968D01*
X318098Y287090D01*
Y287608D01*
X318461Y287705D01*
X319374Y288232D01*
X320074Y288933D01*
D02*
G37*
G36*
X310074D02*
X303761D01*
X304462Y288232D01*
X305374Y287705D01*
X305831Y287583D01*
Y287065D01*
X305467Y286968D01*
X304555Y286441D01*
X303810Y285697D01*
X303284Y284784D01*
X303011Y283767D01*
Y282714D01*
X303284Y281697D01*
X303810Y280784D01*
X304555Y280040D01*
X305467Y279513D01*
X305527Y279497D01*
Y278997D01*
X305450Y278976D01*
X304538Y278450D01*
X303793Y277705D01*
X303266Y276793D01*
X302994Y275776D01*
Y274723D01*
X303266Y273705D01*
X303793Y272793D01*
X304538Y272048D01*
X305450Y271522D01*
X305526Y271501D01*
Y270984D01*
X305467Y270968D01*
X304555Y270441D01*
X303810Y269696D01*
X303284Y268784D01*
X303011Y267767D01*
Y266714D01*
X303284Y265697D01*
X303810Y264784D01*
X304555Y264040D01*
X305467Y263513D01*
X305527Y263497D01*
Y262997D01*
X305450Y262977D01*
X304538Y262450D01*
X303793Y261705D01*
X303266Y260793D01*
X302994Y259776D01*
Y258722D01*
X303266Y257705D01*
X303793Y256793D01*
X304538Y256048D01*
X305450Y255522D01*
X305526Y255501D01*
Y254984D01*
X305467Y254968D01*
X304555Y254441D01*
X303810Y253696D01*
X303284Y252784D01*
X303011Y251767D01*
Y250714D01*
X303284Y249696D01*
X303810Y248784D01*
X304555Y248040D01*
X305467Y247513D01*
X305527Y247497D01*
Y246997D01*
X305450Y246976D01*
X304538Y246450D01*
X303793Y245705D01*
X303266Y244793D01*
X302994Y243776D01*
Y242723D01*
X303266Y241705D01*
X303793Y240793D01*
X304538Y240048D01*
X305450Y239522D01*
X305526Y239501D01*
Y238984D01*
X305467Y238968D01*
X304555Y238441D01*
X303810Y237697D01*
X303284Y236784D01*
X303011Y235767D01*
Y234714D01*
X303284Y233697D01*
X303810Y232784D01*
X304555Y232040D01*
X305467Y231513D01*
X305527Y231497D01*
Y230997D01*
X305450Y230977D01*
X304538Y230450D01*
X303793Y229705D01*
X303266Y228793D01*
X302994Y227776D01*
Y226723D01*
X303266Y225705D01*
X303793Y224793D01*
X304538Y224048D01*
X305450Y223522D01*
X306467Y223249D01*
X307520D01*
X308538Y223522D01*
X309450Y224048D01*
X310195Y224793D01*
X310721Y225705D01*
X310994Y226723D01*
Y227776D01*
X310721Y228793D01*
X310195Y229705D01*
X309450Y230450D01*
X308538Y230977D01*
X308478Y230993D01*
Y231492D01*
X308555Y231513D01*
X309467Y232040D01*
X310212Y232784D01*
X310738Y233697D01*
X311011Y234714D01*
Y235767D01*
X310738Y236784D01*
X310212Y237697D01*
X309467Y238441D01*
X308555Y238968D01*
X308479Y238988D01*
Y239506D01*
X308538Y239522D01*
X309450Y240048D01*
X310195Y240793D01*
X310721Y241705D01*
X310994Y242723D01*
Y243776D01*
X310721Y244793D01*
X310195Y245705D01*
X309450Y246450D01*
X308538Y246976D01*
X308478Y246992D01*
Y247493D01*
X308555Y247513D01*
X309467Y248040D01*
X310212Y248784D01*
X310738Y249696D01*
X311011Y250714D01*
Y251767D01*
X310738Y252784D01*
X310212Y253696D01*
X309467Y254441D01*
X308555Y254968D01*
X308479Y254988D01*
Y255506D01*
X308538Y255522D01*
X309450Y256048D01*
X310195Y256793D01*
X310721Y257705D01*
X310994Y258722D01*
Y259776D01*
X310721Y260793D01*
X310195Y261705D01*
X309450Y262450D01*
X308538Y262977D01*
X308478Y262993D01*
Y263492D01*
X308555Y263513D01*
X309467Y264040D01*
X310212Y264784D01*
X310738Y265697D01*
X311011Y266714D01*
Y267767D01*
X310738Y268784D01*
X310212Y269696D01*
X309467Y270441D01*
X308555Y270968D01*
X308479Y270988D01*
Y271506D01*
X308538Y271522D01*
X309450Y272048D01*
X310195Y272793D01*
X310721Y273705D01*
X310994Y274723D01*
Y275776D01*
X310721Y276793D01*
X310195Y277705D01*
X309450Y278450D01*
X308538Y278976D01*
X308478Y278993D01*
Y279492D01*
X308555Y279513D01*
X309467Y280040D01*
X310212Y280784D01*
X310738Y281697D01*
X311011Y282714D01*
Y283767D01*
X310738Y284784D01*
X310212Y285697D01*
X309467Y286441D01*
X308555Y286968D01*
X308098Y287090D01*
Y287608D01*
X308461Y287705D01*
X309374Y288232D01*
X310074Y288933D01*
D02*
G37*
G36*
X360066Y288815D02*
X353752D01*
X354453Y288115D01*
X355365Y287588D01*
X355823Y287466D01*
Y286948D01*
X355459Y286851D01*
X354547Y286324D01*
X353802Y285579D01*
X353275Y284667D01*
X353003Y283650D01*
Y282596D01*
X353275Y281579D01*
X353802Y280667D01*
X354547Y279922D01*
X355459Y279396D01*
X355519Y279380D01*
Y278880D01*
X355442Y278859D01*
X354530Y278332D01*
X353785Y277588D01*
X353258Y276676D01*
X352986Y275658D01*
Y274605D01*
X353258Y273588D01*
X353785Y272676D01*
X354530Y271931D01*
X355442Y271404D01*
X355518Y271384D01*
Y270866D01*
X355459Y270850D01*
X354547Y270324D01*
X353802Y269579D01*
X353275Y268667D01*
X353003Y267650D01*
Y266596D01*
X353275Y265579D01*
X353802Y264667D01*
X354547Y263922D01*
X355459Y263396D01*
X355519Y263380D01*
Y262880D01*
X355442Y262859D01*
X354530Y262333D01*
X353785Y261588D01*
X353258Y260676D01*
X352986Y259658D01*
Y258605D01*
X353258Y257588D01*
X353785Y256676D01*
X354530Y255931D01*
X355442Y255404D01*
X355518Y255384D01*
Y254866D01*
X355459Y254851D01*
X354547Y254324D01*
X353802Y253579D01*
X353275Y252667D01*
X353003Y251650D01*
Y250596D01*
X353275Y249579D01*
X353802Y248667D01*
X354547Y247922D01*
X355459Y247396D01*
X355519Y247380D01*
Y246880D01*
X355442Y246859D01*
X354530Y246333D01*
X353785Y245588D01*
X353258Y244676D01*
X352986Y243658D01*
Y242605D01*
X353258Y241588D01*
X353785Y240676D01*
X354530Y239931D01*
X355442Y239404D01*
X355518Y239384D01*
Y238866D01*
X355459Y238850D01*
X354547Y238324D01*
X353802Y237579D01*
X353275Y236667D01*
X353003Y235650D01*
Y234596D01*
X353275Y233579D01*
X353802Y232667D01*
X354547Y231922D01*
X355459Y231396D01*
X355519Y231380D01*
Y230880D01*
X355442Y230859D01*
X354530Y230332D01*
X353785Y229588D01*
X353258Y228676D01*
X352986Y227658D01*
Y226605D01*
X353258Y225588D01*
X353785Y224676D01*
X354530Y223931D01*
X355442Y223404D01*
X356459Y223132D01*
X357512D01*
X358530Y223404D01*
X359442Y223931D01*
X360187Y224676D01*
X360713Y225588D01*
X360986Y226605D01*
Y227658D01*
X360713Y228676D01*
X360187Y229588D01*
X359442Y230332D01*
X358530Y230859D01*
X358470Y230875D01*
Y231375D01*
X358547Y231396D01*
X359459Y231922D01*
X360204Y232667D01*
X360730Y233579D01*
X361003Y234596D01*
Y235650D01*
X360730Y236667D01*
X360204Y237579D01*
X359459Y238324D01*
X358547Y238850D01*
X358471Y238871D01*
Y239388D01*
X358530Y239404D01*
X359442Y239931D01*
X360187Y240676D01*
X360713Y241588D01*
X360986Y242605D01*
Y243658D01*
X360713Y244676D01*
X360187Y245588D01*
X359442Y246333D01*
X358530Y246859D01*
X358470Y246875D01*
Y247375D01*
X358547Y247396D01*
X359459Y247922D01*
X360204Y248667D01*
X360730Y249579D01*
X361003Y250596D01*
Y251650D01*
X360730Y252667D01*
X360204Y253579D01*
X359459Y254324D01*
X358547Y254851D01*
X358471Y254871D01*
Y255388D01*
X358530Y255404D01*
X359442Y255931D01*
X360187Y256676D01*
X360713Y257588D01*
X360986Y258605D01*
Y259658D01*
X360713Y260676D01*
X360187Y261588D01*
X359442Y262333D01*
X358530Y262859D01*
X358470Y262875D01*
Y263375D01*
X358547Y263396D01*
X359459Y263922D01*
X360204Y264667D01*
X360730Y265579D01*
X361003Y266596D01*
Y267650D01*
X360730Y268667D01*
X360204Y269579D01*
X359459Y270324D01*
X358547Y270850D01*
X358471Y270871D01*
Y271389D01*
X358530Y271404D01*
X359442Y271931D01*
X360187Y272676D01*
X360713Y273588D01*
X360986Y274605D01*
Y275658D01*
X360713Y276676D01*
X360187Y277588D01*
X359442Y278332D01*
X358530Y278859D01*
X358470Y278875D01*
Y279375D01*
X358547Y279396D01*
X359459Y279922D01*
X360204Y280667D01*
X360730Y281579D01*
X361003Y282596D01*
Y283650D01*
X360730Y284667D01*
X360204Y285579D01*
X359459Y286324D01*
X358547Y286851D01*
X358090Y286973D01*
Y287491D01*
X358453Y287588D01*
X359366Y288115D01*
X360066Y288815D01*
D02*
G37*
G36*
X400001Y288740D02*
X393687D01*
X394388Y288039D01*
X395300Y287512D01*
X395757Y287390D01*
Y286872D01*
X395394Y286775D01*
X394481Y286248D01*
X393737Y285503D01*
X393210Y284591D01*
X392938Y283574D01*
Y282521D01*
X393210Y281503D01*
X393737Y280591D01*
X394481Y279847D01*
X395394Y279320D01*
X395453Y279304D01*
Y278804D01*
X395376Y278783D01*
X394464Y278257D01*
X393720Y277512D01*
X393193Y276600D01*
X392920Y275583D01*
Y274529D01*
X393193Y273512D01*
X393720Y272600D01*
X394464Y271855D01*
X395376Y271328D01*
X395452Y271308D01*
Y270791D01*
X395394Y270775D01*
X394481Y270248D01*
X393737Y269503D01*
X393210Y268591D01*
X392938Y267574D01*
Y266521D01*
X393210Y265503D01*
X393737Y264591D01*
X394481Y263846D01*
X395394Y263320D01*
X395453Y263304D01*
Y262804D01*
X395376Y262783D01*
X394464Y262257D01*
X393720Y261512D01*
X393193Y260600D01*
X392920Y259583D01*
Y258529D01*
X393193Y257512D01*
X393720Y256600D01*
X394464Y255855D01*
X395376Y255328D01*
X395452Y255308D01*
Y254790D01*
X395394Y254775D01*
X394481Y254248D01*
X393737Y253503D01*
X393210Y252591D01*
X392938Y251574D01*
Y250521D01*
X393210Y249503D01*
X393737Y248591D01*
X394481Y247847D01*
X395394Y247320D01*
X395453Y247304D01*
Y246804D01*
X395376Y246783D01*
X394464Y246257D01*
X393720Y245512D01*
X393193Y244600D01*
X392920Y243583D01*
Y242529D01*
X393193Y241512D01*
X393720Y240600D01*
X394464Y239855D01*
X395376Y239329D01*
X395452Y239308D01*
Y238790D01*
X395394Y238775D01*
X394481Y238248D01*
X393737Y237503D01*
X393210Y236591D01*
X392938Y235574D01*
Y234521D01*
X393210Y233503D01*
X393737Y232591D01*
X394481Y231846D01*
X395394Y231320D01*
X395453Y231304D01*
Y230804D01*
X395376Y230783D01*
X394464Y230257D01*
X393720Y229512D01*
X393193Y228600D01*
X392920Y227583D01*
Y226529D01*
X393193Y225512D01*
X393720Y224600D01*
X394464Y223855D01*
X395376Y223328D01*
X396394Y223056D01*
X397447D01*
X398464Y223328D01*
X399377Y223855D01*
X400121Y224600D01*
X400648Y225512D01*
X400920Y226529D01*
Y227583D01*
X400648Y228600D01*
X400121Y229512D01*
X399377Y230257D01*
X398464Y230783D01*
X398405Y230799D01*
Y231299D01*
X398481Y231320D01*
X399394Y231846D01*
X400138Y232591D01*
X400665Y233503D01*
X400938Y234521D01*
Y235574D01*
X400665Y236591D01*
X400138Y237503D01*
X399394Y238248D01*
X398481Y238775D01*
X398406Y238795D01*
Y239313D01*
X398464Y239329D01*
X399377Y239855D01*
X400121Y240600D01*
X400648Y241512D01*
X400920Y242529D01*
Y243583D01*
X400648Y244600D01*
X400121Y245512D01*
X399377Y246257D01*
X398464Y246783D01*
X398405Y246799D01*
Y247299D01*
X398481Y247320D01*
X399394Y247847D01*
X400138Y248591D01*
X400665Y249503D01*
X400938Y250521D01*
Y251574D01*
X400665Y252591D01*
X400138Y253503D01*
X399394Y254248D01*
X398481Y254775D01*
X398406Y254795D01*
Y255313D01*
X398464Y255328D01*
X399377Y255855D01*
X400121Y256600D01*
X400648Y257512D01*
X400920Y258529D01*
Y259583D01*
X400648Y260600D01*
X400121Y261512D01*
X399377Y262257D01*
X398464Y262783D01*
X398405Y262799D01*
Y263299D01*
X398481Y263320D01*
X399394Y263846D01*
X400138Y264591D01*
X400665Y265503D01*
X400938Y266521D01*
Y267574D01*
X400665Y268591D01*
X400138Y269503D01*
X399394Y270248D01*
X398481Y270775D01*
X398406Y270795D01*
Y271313D01*
X398464Y271328D01*
X399377Y271855D01*
X400121Y272600D01*
X400648Y273512D01*
X400920Y274529D01*
Y275583D01*
X400648Y276600D01*
X400121Y277512D01*
X399377Y278257D01*
X398464Y278783D01*
X398405Y278799D01*
Y279299D01*
X398481Y279320D01*
X399394Y279847D01*
X400138Y280591D01*
X400665Y281503D01*
X400938Y282521D01*
Y283574D01*
X400665Y284591D01*
X400138Y285503D01*
X399394Y286248D01*
X398481Y286775D01*
X398024Y286897D01*
Y287415D01*
X398388Y287512D01*
X399300Y288039D01*
X400001Y288740D01*
D02*
G37*
G36*
X390001D02*
X383687D01*
X384388Y288039D01*
X385300Y287512D01*
X385757Y287390D01*
Y286872D01*
X385394Y286775D01*
X384482Y286248D01*
X383737Y285503D01*
X383210Y284591D01*
X382938Y283574D01*
Y282521D01*
X383210Y281503D01*
X383737Y280591D01*
X384482Y279847D01*
X385394Y279320D01*
X385453Y279304D01*
Y278804D01*
X385377Y278783D01*
X384464Y278257D01*
X383720Y277512D01*
X383193Y276600D01*
X382920Y275583D01*
Y274529D01*
X383193Y273512D01*
X383720Y272600D01*
X384464Y271855D01*
X385377Y271328D01*
X385453Y271308D01*
Y270791D01*
X385394Y270775D01*
X384482Y270248D01*
X383737Y269503D01*
X383210Y268591D01*
X382938Y267574D01*
Y266521D01*
X383210Y265503D01*
X383737Y264591D01*
X384482Y263846D01*
X385394Y263320D01*
X385453Y263304D01*
Y262804D01*
X385377Y262783D01*
X384464Y262257D01*
X383720Y261512D01*
X383193Y260600D01*
X382920Y259583D01*
Y258529D01*
X383193Y257512D01*
X383720Y256600D01*
X384464Y255855D01*
X385377Y255328D01*
X385453Y255308D01*
Y254790D01*
X385394Y254775D01*
X384482Y254248D01*
X383737Y253503D01*
X383210Y252591D01*
X382938Y251574D01*
Y250521D01*
X383210Y249503D01*
X383737Y248591D01*
X384482Y247847D01*
X385394Y247320D01*
X385453Y247304D01*
Y246804D01*
X385377Y246783D01*
X384464Y246257D01*
X383720Y245512D01*
X383193Y244600D01*
X382920Y243583D01*
Y242529D01*
X383193Y241512D01*
X383720Y240600D01*
X384464Y239855D01*
X385377Y239329D01*
X385453Y239308D01*
Y238790D01*
X385394Y238775D01*
X384482Y238248D01*
X383737Y237503D01*
X383210Y236591D01*
X382938Y235574D01*
Y234521D01*
X383210Y233503D01*
X383737Y232591D01*
X384482Y231846D01*
X385394Y231320D01*
X385453Y231304D01*
Y230804D01*
X385377Y230783D01*
X384464Y230257D01*
X383720Y229512D01*
X383193Y228600D01*
X382920Y227583D01*
Y226529D01*
X383193Y225512D01*
X383720Y224600D01*
X384464Y223855D01*
X385377Y223328D01*
X386394Y223056D01*
X387447D01*
X388464Y223328D01*
X389376Y223855D01*
X390121Y224600D01*
X390648Y225512D01*
X390920Y226529D01*
Y227583D01*
X390648Y228600D01*
X390121Y229512D01*
X389376Y230257D01*
X388464Y230783D01*
X388405Y230799D01*
Y231299D01*
X388481Y231320D01*
X389394Y231846D01*
X390138Y232591D01*
X390665Y233503D01*
X390938Y234521D01*
Y235574D01*
X390665Y236591D01*
X390138Y237503D01*
X389394Y238248D01*
X388481Y238775D01*
X388405Y238795D01*
Y239313D01*
X388464Y239329D01*
X389376Y239855D01*
X390121Y240600D01*
X390648Y241512D01*
X390920Y242529D01*
Y243583D01*
X390648Y244600D01*
X390121Y245512D01*
X389376Y246257D01*
X388464Y246783D01*
X388405Y246799D01*
Y247299D01*
X388481Y247320D01*
X389394Y247847D01*
X390138Y248591D01*
X390665Y249503D01*
X390938Y250521D01*
Y251574D01*
X390665Y252591D01*
X390138Y253503D01*
X389394Y254248D01*
X388481Y254775D01*
X388405Y254795D01*
Y255313D01*
X388464Y255328D01*
X389376Y255855D01*
X390121Y256600D01*
X390648Y257512D01*
X390920Y258529D01*
Y259583D01*
X390648Y260600D01*
X390121Y261512D01*
X389376Y262257D01*
X388464Y262783D01*
X388405Y262799D01*
Y263299D01*
X388481Y263320D01*
X389394Y263846D01*
X390138Y264591D01*
X390665Y265503D01*
X390938Y266521D01*
Y267574D01*
X390665Y268591D01*
X390138Y269503D01*
X389394Y270248D01*
X388481Y270775D01*
X388405Y270795D01*
Y271313D01*
X388464Y271328D01*
X389376Y271855D01*
X390121Y272600D01*
X390648Y273512D01*
X390920Y274529D01*
Y275583D01*
X390648Y276600D01*
X390121Y277512D01*
X389376Y278257D01*
X388464Y278783D01*
X388405Y278799D01*
Y279299D01*
X388481Y279320D01*
X389394Y279847D01*
X390138Y280591D01*
X390665Y281503D01*
X390938Y282521D01*
Y283574D01*
X390665Y284591D01*
X390138Y285503D01*
X389394Y286248D01*
X388481Y286775D01*
X388024Y286897D01*
Y287415D01*
X388388Y287512D01*
X389300Y288039D01*
X390001Y288740D01*
D02*
G37*
G36*
X380001D02*
X373687D01*
X374388Y288039D01*
X375300Y287512D01*
X375757Y287390D01*
Y286872D01*
X375394Y286775D01*
X374482Y286248D01*
X373737Y285503D01*
X373210Y284591D01*
X372938Y283574D01*
Y282521D01*
X373210Y281503D01*
X373737Y280591D01*
X374482Y279847D01*
X375394Y279320D01*
X375453Y279304D01*
Y278804D01*
X375377Y278783D01*
X374464Y278257D01*
X373720Y277512D01*
X373193Y276600D01*
X372920Y275583D01*
Y274529D01*
X373193Y273512D01*
X373720Y272600D01*
X374464Y271855D01*
X375377Y271328D01*
X375452Y271308D01*
Y270791D01*
X375394Y270775D01*
X374482Y270248D01*
X373737Y269503D01*
X373210Y268591D01*
X372938Y267574D01*
Y266521D01*
X373210Y265503D01*
X373737Y264591D01*
X374482Y263846D01*
X375394Y263320D01*
X375453Y263304D01*
Y262804D01*
X375377Y262783D01*
X374464Y262257D01*
X373720Y261512D01*
X373193Y260600D01*
X372920Y259583D01*
Y258529D01*
X373193Y257512D01*
X373720Y256600D01*
X374464Y255855D01*
X375377Y255328D01*
X375452Y255308D01*
Y254790D01*
X375394Y254775D01*
X374482Y254248D01*
X373737Y253503D01*
X373210Y252591D01*
X372938Y251574D01*
Y250521D01*
X373210Y249503D01*
X373737Y248591D01*
X374482Y247847D01*
X375394Y247320D01*
X375453Y247304D01*
Y246804D01*
X375377Y246783D01*
X374464Y246257D01*
X373720Y245512D01*
X373193Y244600D01*
X372920Y243583D01*
Y242529D01*
X373193Y241512D01*
X373720Y240600D01*
X374464Y239855D01*
X375377Y239329D01*
X375452Y239308D01*
Y238790D01*
X375394Y238775D01*
X374482Y238248D01*
X373737Y237503D01*
X373210Y236591D01*
X372938Y235574D01*
Y234521D01*
X373210Y233503D01*
X373737Y232591D01*
X374482Y231846D01*
X375394Y231320D01*
X375453Y231304D01*
Y230804D01*
X375377Y230783D01*
X374464Y230257D01*
X373720Y229512D01*
X373193Y228600D01*
X372920Y227583D01*
Y226529D01*
X373193Y225512D01*
X373720Y224600D01*
X374464Y223855D01*
X375377Y223328D01*
X376394Y223056D01*
X377447D01*
X378464Y223328D01*
X379377Y223855D01*
X380121Y224600D01*
X380648Y225512D01*
X380920Y226529D01*
Y227583D01*
X380648Y228600D01*
X380121Y229512D01*
X379377Y230257D01*
X378464Y230783D01*
X378405Y230799D01*
Y231299D01*
X378482Y231320D01*
X379394Y231846D01*
X380138Y232591D01*
X380665Y233503D01*
X380938Y234521D01*
Y235574D01*
X380665Y236591D01*
X380138Y237503D01*
X379394Y238248D01*
X378482Y238775D01*
X378405Y238795D01*
Y239313D01*
X378464Y239329D01*
X379377Y239855D01*
X380121Y240600D01*
X380648Y241512D01*
X380920Y242529D01*
Y243583D01*
X380648Y244600D01*
X380121Y245512D01*
X379377Y246257D01*
X378464Y246783D01*
X378405Y246799D01*
Y247299D01*
X378482Y247320D01*
X379394Y247847D01*
X380138Y248591D01*
X380665Y249503D01*
X380938Y250521D01*
Y251574D01*
X380665Y252591D01*
X380138Y253503D01*
X379394Y254248D01*
X378482Y254775D01*
X378405Y254795D01*
Y255313D01*
X378464Y255328D01*
X379377Y255855D01*
X380121Y256600D01*
X380648Y257512D01*
X380920Y258529D01*
Y259583D01*
X380648Y260600D01*
X380121Y261512D01*
X379377Y262257D01*
X378464Y262783D01*
X378405Y262799D01*
Y263299D01*
X378482Y263320D01*
X379394Y263846D01*
X380138Y264591D01*
X380665Y265503D01*
X380938Y266521D01*
Y267574D01*
X380665Y268591D01*
X380138Y269503D01*
X379394Y270248D01*
X378482Y270775D01*
X378405Y270795D01*
Y271313D01*
X378464Y271328D01*
X379377Y271855D01*
X380121Y272600D01*
X380648Y273512D01*
X380920Y274529D01*
Y275583D01*
X380648Y276600D01*
X380121Y277512D01*
X379377Y278257D01*
X378464Y278783D01*
X378405Y278799D01*
Y279299D01*
X378482Y279320D01*
X379394Y279847D01*
X380138Y280591D01*
X380665Y281503D01*
X380938Y282521D01*
Y283574D01*
X380665Y284591D01*
X380138Y285503D01*
X379394Y286248D01*
X378482Y286775D01*
X378024Y286897D01*
Y287415D01*
X378388Y287512D01*
X379300Y288039D01*
X380001Y288740D01*
D02*
G37*
G36*
X370001D02*
X363687D01*
X364388Y288039D01*
X365300Y287512D01*
X365757Y287390D01*
Y286872D01*
X365394Y286775D01*
X364481Y286248D01*
X363737Y285503D01*
X363210Y284591D01*
X362938Y283574D01*
Y282521D01*
X363210Y281503D01*
X363737Y280591D01*
X364481Y279847D01*
X365394Y279320D01*
X365453Y279304D01*
Y278804D01*
X365376Y278783D01*
X364464Y278257D01*
X363720Y277512D01*
X363193Y276600D01*
X362920Y275583D01*
Y274529D01*
X363193Y273512D01*
X363720Y272600D01*
X364464Y271855D01*
X365376Y271328D01*
X365453Y271308D01*
Y270791D01*
X365394Y270775D01*
X364481Y270248D01*
X363737Y269503D01*
X363210Y268591D01*
X362938Y267574D01*
Y266521D01*
X363210Y265503D01*
X363737Y264591D01*
X364481Y263846D01*
X365394Y263320D01*
X365453Y263304D01*
Y262804D01*
X365376Y262783D01*
X364464Y262257D01*
X363720Y261512D01*
X363193Y260600D01*
X362920Y259583D01*
Y258529D01*
X363193Y257512D01*
X363720Y256600D01*
X364464Y255855D01*
X365376Y255328D01*
X365453Y255308D01*
Y254790D01*
X365394Y254775D01*
X364481Y254248D01*
X363737Y253503D01*
X363210Y252591D01*
X362938Y251574D01*
Y250521D01*
X363210Y249503D01*
X363737Y248591D01*
X364481Y247847D01*
X365394Y247320D01*
X365453Y247304D01*
Y246804D01*
X365376Y246783D01*
X364464Y246257D01*
X363720Y245512D01*
X363193Y244600D01*
X362920Y243583D01*
Y242529D01*
X363193Y241512D01*
X363720Y240600D01*
X364464Y239855D01*
X365376Y239329D01*
X365453Y239308D01*
Y238790D01*
X365394Y238775D01*
X364481Y238248D01*
X363737Y237503D01*
X363210Y236591D01*
X362938Y235574D01*
Y234521D01*
X363210Y233503D01*
X363737Y232591D01*
X364481Y231846D01*
X365394Y231320D01*
X365453Y231304D01*
Y230804D01*
X365376Y230783D01*
X364464Y230257D01*
X363720Y229512D01*
X363193Y228600D01*
X362920Y227583D01*
Y226529D01*
X363193Y225512D01*
X363720Y224600D01*
X364464Y223855D01*
X365376Y223328D01*
X366394Y223056D01*
X367447D01*
X368464Y223328D01*
X369376Y223855D01*
X370121Y224600D01*
X370648Y225512D01*
X370920Y226529D01*
Y227583D01*
X370648Y228600D01*
X370121Y229512D01*
X369376Y230257D01*
X368464Y230783D01*
X368405Y230799D01*
Y231299D01*
X368481Y231320D01*
X369394Y231846D01*
X370138Y232591D01*
X370665Y233503D01*
X370938Y234521D01*
Y235574D01*
X370665Y236591D01*
X370138Y237503D01*
X369394Y238248D01*
X368481Y238775D01*
X368406Y238795D01*
Y239313D01*
X368464Y239329D01*
X369376Y239855D01*
X370121Y240600D01*
X370648Y241512D01*
X370920Y242529D01*
Y243583D01*
X370648Y244600D01*
X370121Y245512D01*
X369376Y246257D01*
X368464Y246783D01*
X368405Y246799D01*
Y247299D01*
X368481Y247320D01*
X369394Y247847D01*
X370138Y248591D01*
X370665Y249503D01*
X370938Y250521D01*
Y251574D01*
X370665Y252591D01*
X370138Y253503D01*
X369394Y254248D01*
X368481Y254775D01*
X368406Y254795D01*
Y255313D01*
X368464Y255328D01*
X369376Y255855D01*
X370121Y256600D01*
X370648Y257512D01*
X370920Y258529D01*
Y259583D01*
X370648Y260600D01*
X370121Y261512D01*
X369376Y262257D01*
X368464Y262783D01*
X368405Y262799D01*
Y263299D01*
X368481Y263320D01*
X369394Y263846D01*
X370138Y264591D01*
X370665Y265503D01*
X370938Y266521D01*
Y267574D01*
X370665Y268591D01*
X370138Y269503D01*
X369394Y270248D01*
X368481Y270775D01*
X368406Y270795D01*
Y271313D01*
X368464Y271328D01*
X369376Y271855D01*
X370121Y272600D01*
X370648Y273512D01*
X370920Y274529D01*
Y275583D01*
X370648Y276600D01*
X370121Y277512D01*
X369376Y278257D01*
X368464Y278783D01*
X368405Y278799D01*
Y279299D01*
X368481Y279320D01*
X369394Y279847D01*
X370138Y280591D01*
X370665Y281503D01*
X370938Y282521D01*
Y283574D01*
X370665Y284591D01*
X370138Y285503D01*
X369394Y286248D01*
X368481Y286775D01*
X368024Y286897D01*
Y287415D01*
X368388Y287512D01*
X369300Y288039D01*
X370001Y288740D01*
D02*
G37*
G36*
X572090Y219500D02*
X571500D01*
Y218910D01*
X572090Y219500D01*
D02*
G37*
G36*
X566500D02*
X565910D01*
X566500Y218910D01*
Y219500D01*
D02*
G37*
G36*
X582953D02*
X581500D01*
Y218047D01*
X582953D01*
Y219500D01*
D02*
G37*
G36*
X576500D02*
X575047D01*
Y218047D01*
X576500D01*
Y219500D01*
D02*
G37*
G36*
X562953Y215953D02*
X555047D01*
Y208047D01*
X562953D01*
Y215953D01*
D02*
G37*
G36*
X549520D02*
X548480D01*
X547474Y215683D01*
X546573Y215163D01*
X545837Y214427D01*
X545317Y213526D01*
X545047Y212520D01*
Y211480D01*
X545317Y210474D01*
X545837Y209573D01*
X546573Y208837D01*
X547474Y208317D01*
X548480Y208047D01*
X549520D01*
X550526Y208317D01*
X551427Y208837D01*
X552163Y209573D01*
X552683Y210474D01*
X552953Y211480D01*
Y212520D01*
X552683Y213526D01*
X552163Y214427D01*
X551427Y215163D01*
X550526Y215683D01*
X549520Y215953D01*
D02*
G37*
G36*
X539520D02*
X538480D01*
X537474Y215683D01*
X536573Y215163D01*
X535837Y214427D01*
X535317Y213526D01*
X535047Y212520D01*
Y211480D01*
X535317Y210474D01*
X535837Y209573D01*
X536573Y208837D01*
X537474Y208317D01*
X538480Y208047D01*
X539520D01*
X540526Y208317D01*
X541427Y208837D01*
X542163Y209573D01*
X542683Y210474D01*
X542953Y211480D01*
Y212520D01*
X542683Y213526D01*
X542163Y214427D01*
X541427Y215163D01*
X540526Y215683D01*
X539520Y215953D01*
D02*
G37*
G36*
X529520D02*
X528480D01*
X527474Y215683D01*
X526573Y215163D01*
X525837Y214427D01*
X525317Y213526D01*
X525047Y212520D01*
Y211480D01*
X525317Y210474D01*
X525837Y209573D01*
X526573Y208837D01*
X527474Y208317D01*
X528480Y208047D01*
X529520D01*
X530526Y208317D01*
X531427Y208837D01*
X532163Y209573D01*
X532683Y210474D01*
X532953Y211480D01*
Y212520D01*
X532683Y213526D01*
X532163Y214427D01*
X531427Y215163D01*
X530526Y215683D01*
X529520Y215953D01*
D02*
G37*
G36*
X519520D02*
X518480D01*
X517474Y215683D01*
X516573Y215163D01*
X515837Y214427D01*
X515317Y213526D01*
X515047Y212520D01*
Y211480D01*
X515317Y210474D01*
X515837Y209573D01*
X516573Y208837D01*
X517474Y208317D01*
X518480Y208047D01*
X519520D01*
X520526Y208317D01*
X521427Y208837D01*
X522163Y209573D01*
X522683Y210474D01*
X522953Y211480D01*
Y212520D01*
X522683Y213526D01*
X522163Y214427D01*
X521427Y215163D01*
X520526Y215683D01*
X519520Y215953D01*
D02*
G37*
G36*
X509520D02*
X508480D01*
X507474Y215683D01*
X506573Y215163D01*
X505837Y214427D01*
X505317Y213526D01*
X505047Y212520D01*
Y211480D01*
X505317Y210474D01*
X505837Y209573D01*
X506573Y208837D01*
X507474Y208317D01*
X508480Y208047D01*
X509520D01*
X510526Y208317D01*
X511427Y208837D01*
X512163Y209573D01*
X512683Y210474D01*
X512953Y211480D01*
Y212520D01*
X512683Y213526D01*
X512163Y214427D01*
X511427Y215163D01*
X510526Y215683D01*
X509520Y215953D01*
D02*
G37*
G36*
X499520D02*
X498480D01*
X497474Y215683D01*
X496573Y215163D01*
X495837Y214427D01*
X495317Y213526D01*
X495047Y212520D01*
Y211480D01*
X495317Y210474D01*
X495837Y209573D01*
X496573Y208837D01*
X497474Y208317D01*
X498480Y208047D01*
X499520D01*
X500526Y208317D01*
X501427Y208837D01*
X502163Y209573D01*
X502683Y210474D01*
X502953Y211480D01*
Y212520D01*
X502683Y213526D01*
X502163Y214427D01*
X501427Y215163D01*
X500526Y215683D01*
X499520Y215953D01*
D02*
G37*
G36*
X489520D02*
X488480D01*
X487474Y215683D01*
X486573Y215163D01*
X485837Y214427D01*
X485317Y213526D01*
X485047Y212520D01*
Y211480D01*
X485317Y210474D01*
X485837Y209573D01*
X486573Y208837D01*
X487474Y208317D01*
X488480Y208047D01*
X489520D01*
X490526Y208317D01*
X491427Y208837D01*
X492163Y209573D01*
X492683Y210474D01*
X492953Y211480D01*
Y212520D01*
X492683Y213526D01*
X492163Y214427D01*
X491427Y215163D01*
X490526Y215683D01*
X489520Y215953D01*
D02*
G37*
G36*
X361500Y205090D02*
Y204500D01*
X362090D01*
X361500Y205090D01*
D02*
G37*
G36*
X371500D02*
Y204500D01*
X372090D01*
X371500Y205090D01*
D02*
G37*
G36*
X356500D02*
X355910Y204500D01*
X356500D01*
Y205090D01*
D02*
G37*
G36*
X366500D02*
X365910Y204500D01*
X366500D01*
Y205090D01*
D02*
G37*
G36*
X372090Y199500D02*
X371500D01*
Y198910D01*
X372090Y199500D01*
D02*
G37*
G36*
X362090D02*
X361500D01*
Y198910D01*
X362090Y199500D01*
D02*
G37*
G36*
X356500D02*
X355910D01*
X356500Y198910D01*
Y199500D01*
D02*
G37*
G36*
X366500D02*
X365910D01*
X366500Y198910D01*
Y199500D01*
D02*
G37*
G36*
X562953Y205953D02*
X555047D01*
Y198047D01*
X562953D01*
Y205953D01*
D02*
G37*
G36*
X549520D02*
X548480D01*
X547474Y205683D01*
X546573Y205163D01*
X545837Y204427D01*
X545317Y203526D01*
X545047Y202520D01*
Y201480D01*
X545317Y200474D01*
X545837Y199573D01*
X546573Y198837D01*
X547474Y198317D01*
X548480Y198047D01*
X549520D01*
X550526Y198317D01*
X551427Y198837D01*
X552163Y199573D01*
X552683Y200474D01*
X552953Y201480D01*
Y202520D01*
X552683Y203526D01*
X552163Y204427D01*
X551427Y205163D01*
X550526Y205683D01*
X549520Y205953D01*
D02*
G37*
G36*
X539520D02*
X538480D01*
X537474Y205683D01*
X536573Y205163D01*
X535837Y204427D01*
X535317Y203526D01*
X535047Y202520D01*
Y201480D01*
X535317Y200474D01*
X535837Y199573D01*
X536573Y198837D01*
X537474Y198317D01*
X538480Y198047D01*
X539520D01*
X540526Y198317D01*
X541427Y198837D01*
X542163Y199573D01*
X542683Y200474D01*
X542953Y201480D01*
Y202520D01*
X542683Y203526D01*
X542163Y204427D01*
X541427Y205163D01*
X540526Y205683D01*
X539520Y205953D01*
D02*
G37*
G36*
X529520D02*
X528480D01*
X527474Y205683D01*
X526573Y205163D01*
X525837Y204427D01*
X525317Y203526D01*
X525047Y202520D01*
Y201480D01*
X525317Y200474D01*
X525837Y199573D01*
X526573Y198837D01*
X527474Y198317D01*
X528480Y198047D01*
X529520D01*
X530526Y198317D01*
X531427Y198837D01*
X532163Y199573D01*
X532683Y200474D01*
X532953Y201480D01*
Y202520D01*
X532683Y203526D01*
X532163Y204427D01*
X531427Y205163D01*
X530526Y205683D01*
X529520Y205953D01*
D02*
G37*
G36*
X519520D02*
X518480D01*
X517474Y205683D01*
X516573Y205163D01*
X515837Y204427D01*
X515317Y203526D01*
X515047Y202520D01*
Y201480D01*
X515317Y200474D01*
X515837Y199573D01*
X516573Y198837D01*
X517474Y198317D01*
X518480Y198047D01*
X519520D01*
X520526Y198317D01*
X521427Y198837D01*
X522163Y199573D01*
X522683Y200474D01*
X522953Y201480D01*
Y202520D01*
X522683Y203526D01*
X522163Y204427D01*
X521427Y205163D01*
X520526Y205683D01*
X519520Y205953D01*
D02*
G37*
G36*
X509520D02*
X508480D01*
X507474Y205683D01*
X506573Y205163D01*
X505837Y204427D01*
X505317Y203526D01*
X505047Y202520D01*
Y201480D01*
X505317Y200474D01*
X505837Y199573D01*
X506573Y198837D01*
X507474Y198317D01*
X508480Y198047D01*
X509520D01*
X510526Y198317D01*
X511427Y198837D01*
X512163Y199573D01*
X512683Y200474D01*
X512953Y201480D01*
Y202520D01*
X512683Y203526D01*
X512163Y204427D01*
X511427Y205163D01*
X510526Y205683D01*
X509520Y205953D01*
D02*
G37*
G36*
X499520D02*
X498480D01*
X497474Y205683D01*
X496573Y205163D01*
X495837Y204427D01*
X495317Y203526D01*
X495047Y202520D01*
Y201480D01*
X495317Y200474D01*
X495837Y199573D01*
X496573Y198837D01*
X497474Y198317D01*
X498480Y198047D01*
X499520D01*
X500526Y198317D01*
X501427Y198837D01*
X502163Y199573D01*
X502683Y200474D01*
X502953Y201480D01*
Y202520D01*
X502683Y203526D01*
X502163Y204427D01*
X501427Y205163D01*
X500526Y205683D01*
X499520Y205953D01*
D02*
G37*
G36*
X489520D02*
X488480D01*
X487474Y205683D01*
X486573Y205163D01*
X485837Y204427D01*
X485317Y203526D01*
X485047Y202520D01*
Y201480D01*
X485317Y200474D01*
X485837Y199573D01*
X486573Y198837D01*
X487474Y198317D01*
X488480Y198047D01*
X489520D01*
X490526Y198317D01*
X491427Y198837D01*
X492163Y199573D01*
X492683Y200474D01*
X492953Y201480D01*
Y202520D01*
X492683Y203526D01*
X492163Y204427D01*
X491427Y205163D01*
X490526Y205683D01*
X489520Y205953D01*
D02*
G37*
G36*
X472953D02*
X465047D01*
Y198047D01*
X472953D01*
Y205953D01*
D02*
G37*
G36*
X459520D02*
X458480D01*
X457474Y205683D01*
X456573Y205163D01*
X455837Y204427D01*
X455317Y203526D01*
X455047Y202520D01*
Y201480D01*
X455317Y200474D01*
X455837Y199573D01*
X456573Y198837D01*
X457474Y198317D01*
X458480Y198047D01*
X459520D01*
X460526Y198317D01*
X461427Y198837D01*
X462163Y199573D01*
X462683Y200474D01*
X462953Y201480D01*
Y202520D01*
X462683Y203526D01*
X462163Y204427D01*
X461427Y205163D01*
X460526Y205683D01*
X459520Y205953D01*
D02*
G37*
G36*
X449520D02*
X448480D01*
X447474Y205683D01*
X446573Y205163D01*
X445837Y204427D01*
X445317Y203526D01*
X445047Y202520D01*
Y201480D01*
X445317Y200474D01*
X445837Y199573D01*
X446573Y198837D01*
X447474Y198317D01*
X448480Y198047D01*
X449520D01*
X450526Y198317D01*
X451427Y198837D01*
X452163Y199573D01*
X452683Y200474D01*
X452953Y201480D01*
Y202520D01*
X452683Y203526D01*
X452163Y204427D01*
X451427Y205163D01*
X450526Y205683D01*
X449520Y205953D01*
D02*
G37*
G36*
X439520D02*
X438480D01*
X437474Y205683D01*
X436573Y205163D01*
X435837Y204427D01*
X435317Y203526D01*
X435047Y202520D01*
Y201480D01*
X435317Y200474D01*
X435837Y199573D01*
X436573Y198837D01*
X437474Y198317D01*
X438480Y198047D01*
X439520D01*
X440526Y198317D01*
X441427Y198837D01*
X442163Y199573D01*
X442683Y200474D01*
X442953Y201480D01*
Y202520D01*
X442683Y203526D01*
X442163Y204427D01*
X441427Y205163D01*
X440526Y205683D01*
X439520Y205953D01*
D02*
G37*
G36*
X429520D02*
X428480D01*
X427474Y205683D01*
X426573Y205163D01*
X425837Y204427D01*
X425317Y203526D01*
X425047Y202520D01*
Y201480D01*
X425317Y200474D01*
X425837Y199573D01*
X426573Y198837D01*
X427474Y198317D01*
X428480Y198047D01*
X429520D01*
X430526Y198317D01*
X431427Y198837D01*
X432163Y199573D01*
X432683Y200474D01*
X432953Y201480D01*
Y202520D01*
X432683Y203526D01*
X432163Y204427D01*
X431427Y205163D01*
X430526Y205683D01*
X429520Y205953D01*
D02*
G37*
G36*
X419520D02*
X418480D01*
X417474Y205683D01*
X416573Y205163D01*
X415837Y204427D01*
X415317Y203526D01*
X415047Y202520D01*
Y201480D01*
X415317Y200474D01*
X415837Y199573D01*
X416573Y198837D01*
X417474Y198317D01*
X418480Y198047D01*
X419520D01*
X420526Y198317D01*
X421427Y198837D01*
X422163Y199573D01*
X422683Y200474D01*
X422953Y201480D01*
Y202520D01*
X422683Y203526D01*
X422163Y204427D01*
X421427Y205163D01*
X420526Y205683D01*
X419520Y205953D01*
D02*
G37*
G36*
X409520D02*
X408480D01*
X407474Y205683D01*
X406573Y205163D01*
X405837Y204427D01*
X405317Y203526D01*
X405047Y202520D01*
Y201480D01*
X405317Y200474D01*
X405837Y199573D01*
X406573Y198837D01*
X407474Y198317D01*
X408480Y198047D01*
X409520D01*
X410526Y198317D01*
X411427Y198837D01*
X412163Y199573D01*
X412683Y200474D01*
X412953Y201480D01*
Y202520D01*
X412683Y203526D01*
X412163Y204427D01*
X411427Y205163D01*
X410526Y205683D01*
X409520Y205953D01*
D02*
G37*
G36*
X399520D02*
X398480D01*
X397474Y205683D01*
X396573Y205163D01*
X395837Y204427D01*
X395317Y203526D01*
X395047Y202520D01*
Y201480D01*
X395317Y200474D01*
X395837Y199573D01*
X396573Y198837D01*
X397474Y198317D01*
X398480Y198047D01*
X399520D01*
X400526Y198317D01*
X401427Y198837D01*
X402163Y199573D01*
X402683Y200474D01*
X402953Y201480D01*
Y202520D01*
X402683Y203526D01*
X402163Y204427D01*
X401427Y205163D01*
X400526Y205683D01*
X399520Y205953D01*
D02*
G37*
G36*
X382953D02*
X375047D01*
Y198047D01*
X382953D01*
Y205953D01*
D02*
G37*
G36*
X349520D02*
X348480D01*
X347474Y205683D01*
X346573Y205163D01*
X345837Y204427D01*
X345317Y203526D01*
X345047Y202520D01*
Y201480D01*
X345317Y200474D01*
X345837Y199573D01*
X346573Y198837D01*
X347474Y198317D01*
X348480Y198047D01*
X349520D01*
X350526Y198317D01*
X351427Y198837D01*
X352163Y199573D01*
X352683Y200474D01*
X352953Y201480D01*
Y202520D01*
X352683Y203526D01*
X352163Y204427D01*
X351427Y205163D01*
X350526Y205683D01*
X349520Y205953D01*
D02*
G37*
G36*
X339520D02*
X338480D01*
X337474Y205683D01*
X336573Y205163D01*
X335837Y204427D01*
X335317Y203526D01*
X335047Y202520D01*
Y201480D01*
X335317Y200474D01*
X335837Y199573D01*
X336573Y198837D01*
X337474Y198317D01*
X338480Y198047D01*
X339520D01*
X340526Y198317D01*
X341427Y198837D01*
X342163Y199573D01*
X342683Y200474D01*
X342953Y201480D01*
Y202520D01*
X342683Y203526D01*
X342163Y204427D01*
X341427Y205163D01*
X340526Y205683D01*
X339520Y205953D01*
D02*
G37*
G36*
X329520D02*
X328480D01*
X327474Y205683D01*
X326573Y205163D01*
X325837Y204427D01*
X325317Y203526D01*
X325047Y202520D01*
Y201480D01*
X325317Y200474D01*
X325837Y199573D01*
X326573Y198837D01*
X327474Y198317D01*
X328480Y198047D01*
X329520D01*
X330526Y198317D01*
X331427Y198837D01*
X332163Y199573D01*
X332683Y200474D01*
X332953Y201480D01*
Y202520D01*
X332683Y203526D01*
X332163Y204427D01*
X331427Y205163D01*
X330526Y205683D01*
X329520Y205953D01*
D02*
G37*
%LPD*%
D13*
X500000Y329000D02*
X511500Y340500D01*
Y355500D01*
X490000Y342500D02*
X490500Y343000D01*
X490000Y342500D02*
Y343000D01*
Y329000D02*
Y342500D01*
X479000Y274500D02*
X499500D01*
X542000Y232000D02*
X569000D01*
X499500Y274500D02*
X542000Y232000D01*
X490000Y373000D02*
Y380000D01*
X489000Y381000D02*
Y392000D01*
Y381000D02*
X490000Y380000D01*
X499000Y368000D02*
Y392000D01*
Y368000D02*
X511500Y355500D01*
X491000Y343000D02*
X504500D01*
X334000Y385000D02*
X418000Y301000D01*
X334000Y385000D02*
Y392000D01*
X418000Y291000D02*
X428000Y281000D01*
X418000Y291000D02*
Y301000D01*
X344000Y387500D02*
Y392000D01*
Y387500D02*
X359000Y372500D01*
X380000D01*
X421000Y331500D01*
Y291703D02*
Y331500D01*
X427156Y285547D02*
X433453D01*
X438000Y281000D01*
X421000Y291703D02*
X427156Y285547D01*
X414000Y293000D02*
X414000Y293000D01*
Y298000D01*
X414000Y288703D02*
Y293000D01*
X427250Y271750D02*
X428000Y271000D01*
X427250Y271750D02*
Y275453D01*
X414000Y288703D02*
X427250Y275453D01*
D23*
X589000Y312000D02*
D03*
X428000Y341000D02*
D03*
X479000Y304500D02*
D03*
X579000Y222000D02*
D03*
D24*
X589000Y302000D02*
D03*
Y292000D02*
D03*
Y282000D02*
D03*
Y272000D02*
D03*
Y262000D02*
D03*
X480000Y329000D02*
D03*
X490000D02*
D03*
X500000D02*
D03*
X510000D02*
D03*
X520000D02*
D03*
X438000Y271000D02*
D03*
X428000D02*
D03*
X438000Y281000D02*
D03*
X428000D02*
D03*
X438000Y291000D02*
D03*
X428000D02*
D03*
X438000Y301000D02*
D03*
X428000D02*
D03*
X438000Y311000D02*
D03*
X428000D02*
D03*
X438000Y321000D02*
D03*
X428000D02*
D03*
X438000Y331000D02*
D03*
X428000D02*
D03*
X438000Y341000D02*
D03*
X479000Y234500D02*
D03*
Y244500D02*
D03*
Y254500D02*
D03*
Y264500D02*
D03*
Y274500D02*
D03*
Y284500D02*
D03*
Y294500D02*
D03*
X489000Y212000D02*
D03*
X499000D02*
D03*
X509000D02*
D03*
X519000D02*
D03*
X529000D02*
D03*
X539000D02*
D03*
X549000D02*
D03*
X429000Y382000D02*
D03*
X419000D02*
D03*
X409000D02*
D03*
X399000D02*
D03*
X389000D02*
D03*
X479000D02*
D03*
X519000D02*
D03*
X529000D02*
D03*
X539000D02*
D03*
X569000Y392000D02*
D03*
X579000D02*
D03*
X569000Y382000D02*
D03*
X579000D02*
D03*
X569000Y372000D02*
D03*
X579000D02*
D03*
X569000Y362000D02*
D03*
X579000D02*
D03*
X569000Y352000D02*
D03*
X579000D02*
D03*
X569000Y342000D02*
D03*
X579000D02*
D03*
X569000Y332000D02*
D03*
X579000D02*
D03*
X569000Y322000D02*
D03*
X579000D02*
D03*
X569000Y312000D02*
D03*
X579000D02*
D03*
X569000Y302000D02*
D03*
X579000D02*
D03*
X569000Y292000D02*
D03*
X579000D02*
D03*
X569000Y282000D02*
D03*
X579000D02*
D03*
X569000Y272000D02*
D03*
X579000D02*
D03*
X569000Y262000D02*
D03*
X579000D02*
D03*
X569000Y252000D02*
D03*
X579000D02*
D03*
X569000Y242000D02*
D03*
X579000D02*
D03*
X569000Y232000D02*
D03*
X579000D02*
D03*
X569000Y222000D02*
D03*
X459000Y202000D02*
D03*
X449000D02*
D03*
X439000D02*
D03*
X429000D02*
D03*
X419000D02*
D03*
X409000D02*
D03*
X399000D02*
D03*
X549000D02*
D03*
X539000D02*
D03*
X529000D02*
D03*
X519000D02*
D03*
X509000D02*
D03*
X499000D02*
D03*
X489000D02*
D03*
X354000Y392000D02*
D03*
X344000D02*
D03*
X334000D02*
D03*
X324000D02*
D03*
X314000D02*
D03*
X304000D02*
D03*
X294000D02*
D03*
X439000D02*
D03*
X429000D02*
D03*
X419000D02*
D03*
X409000D02*
D03*
X399000D02*
D03*
X389000D02*
D03*
X379000D02*
D03*
X329000Y202000D02*
D03*
X339000D02*
D03*
X349000D02*
D03*
X359000D02*
D03*
X369000D02*
D03*
X469000Y392000D02*
D03*
X479000D02*
D03*
X489000D02*
D03*
X499000D02*
D03*
X509000D02*
D03*
X519000D02*
D03*
X529000D02*
D03*
D25*
X530000Y329000D02*
D03*
X559000Y212000D02*
D03*
X379000Y382000D02*
D03*
X469000D02*
D03*
X509000D02*
D03*
X469000Y202000D02*
D03*
X559000D02*
D03*
X364000Y392000D02*
D03*
X449000D02*
D03*
X379000Y202000D02*
D03*
X539000Y392000D02*
D03*
D26*
X297076Y235316D02*
D03*
X307011Y235241D02*
D03*
X317011D02*
D03*
X327011D02*
D03*
X337011D02*
D03*
X347011D02*
D03*
X396938Y235047D02*
D03*
X386938D02*
D03*
X376938D02*
D03*
X366938D02*
D03*
X357003Y235123D02*
D03*
X356986Y227132D02*
D03*
X366920Y227056D02*
D03*
X376920D02*
D03*
X386920D02*
D03*
X396920D02*
D03*
X346994Y227249D02*
D03*
X336994D02*
D03*
X326994D02*
D03*
X316994D02*
D03*
X306994D02*
D03*
X297059Y227325D02*
D03*
X297076Y251316D02*
D03*
X307011Y251240D02*
D03*
X317011D02*
D03*
X327011D02*
D03*
X337011D02*
D03*
X347011D02*
D03*
X396938Y251047D02*
D03*
X386938D02*
D03*
X376938D02*
D03*
X366938D02*
D03*
X357003Y251123D02*
D03*
X356986Y243132D02*
D03*
X366920Y243056D02*
D03*
X376920D02*
D03*
X386920D02*
D03*
X396920D02*
D03*
X346994Y243249D02*
D03*
X336994D02*
D03*
X326994D02*
D03*
X316994D02*
D03*
X306994D02*
D03*
X297059Y243325D02*
D03*
X297076Y267316D02*
D03*
X307011Y267241D02*
D03*
X317011D02*
D03*
X327011D02*
D03*
X337011D02*
D03*
X347011D02*
D03*
X396938Y267047D02*
D03*
X386938D02*
D03*
X376938D02*
D03*
X366938D02*
D03*
X357003Y267123D02*
D03*
X356986Y259132D02*
D03*
X366920Y259056D02*
D03*
X376920D02*
D03*
X386920D02*
D03*
X396920D02*
D03*
X346994Y259249D02*
D03*
X336994D02*
D03*
X326994D02*
D03*
X316994D02*
D03*
X306994D02*
D03*
X297059Y259325D02*
D03*
X297076Y283316D02*
D03*
X307011Y283241D02*
D03*
X317011D02*
D03*
X327011D02*
D03*
X337011D02*
D03*
X347011D02*
D03*
X396938Y283047D02*
D03*
X386938D02*
D03*
X376938D02*
D03*
X366938D02*
D03*
X357003Y283123D02*
D03*
X356986Y275132D02*
D03*
X366920Y275056D02*
D03*
X376920D02*
D03*
X386920D02*
D03*
X396920D02*
D03*
X346994Y275249D02*
D03*
X336994D02*
D03*
X326994D02*
D03*
X316994D02*
D03*
X306994D02*
D03*
X297059Y275325D02*
D03*
X296983Y291509D02*
D03*
X306918Y291433D02*
D03*
X316917D02*
D03*
X326918D02*
D03*
X336917D02*
D03*
X346918D02*
D03*
X396844Y291240D02*
D03*
X386844D02*
D03*
X376844D02*
D03*
X366844D02*
D03*
X356909Y291316D02*
D03*
X356927Y299307D02*
D03*
X366861Y299231D02*
D03*
X376861D02*
D03*
X386861D02*
D03*
X396861D02*
D03*
X346935Y299424D02*
D03*
X336935D02*
D03*
X326935D02*
D03*
X316935D02*
D03*
X306935D02*
D03*
X297000Y299500D02*
D03*
D27*
X369500Y317000D02*
D03*
X339500D02*
D03*
X504500Y343000D02*
D03*
X534500D02*
D03*
X490000D02*
D03*
Y373000D02*
D03*
X359658Y337000D02*
D03*
X369500D02*
D03*
D28*
X326122Y339000D02*
D03*
X302500D02*
D03*
D29*
X314311Y320496D02*
D03*
D30*
X414000Y298000D02*
D03*
M02*
