G04*
G04 #@! TF.GenerationSoftware,Altium Limited,Altium Designer,21.2.2 (38)*
G04*
G04 Layer_Color=65535*
%FSLAX25Y25*%
%MOIN*%
G70*
G04*
G04 #@! TF.SameCoordinates,29F7D32E-A79C-4082-AA7E-55410590E176*
G04*
G04*
G04 #@! TF.FilePolarity,Positive*
G04*
G01*
G75*
%ADD10C,0.00984*%
%ADD11C,0.00394*%
%ADD12C,0.00787*%
%ADD13C,0.01000*%
%ADD14C,0.00800*%
G36*
X285350Y293145D02*
X285380D01*
X285450Y293138D01*
X285528Y293127D01*
X285610Y293109D01*
X285698Y293086D01*
X285783Y293057D01*
X285787D01*
X285794Y293053D01*
X285806Y293049D01*
X285820Y293042D01*
X285861Y293020D01*
X285913Y292994D01*
X285968Y292957D01*
X286028Y292912D01*
X286083Y292864D01*
X286135Y292805D01*
X286142Y292798D01*
X286157Y292776D01*
X286179Y292742D01*
X286209Y292694D01*
X286239Y292635D01*
X286272Y292561D01*
X286305Y292479D01*
X286331Y292387D01*
X286024Y292306D01*
Y292309D01*
X286020Y292313D01*
X286017Y292324D01*
X286013Y292339D01*
X286002Y292372D01*
X285987Y292417D01*
X285965Y292468D01*
X285939Y292516D01*
X285913Y292568D01*
X285880Y292613D01*
X285876Y292616D01*
X285865Y292631D01*
X285843Y292650D01*
X285817Y292676D01*
X285783Y292705D01*
X285739Y292735D01*
X285691Y292764D01*
X285635Y292790D01*
X285628Y292794D01*
X285610Y292801D01*
X285576Y292812D01*
X285532Y292827D01*
X285480Y292838D01*
X285421Y292849D01*
X285354Y292857D01*
X285284Y292861D01*
X285243D01*
X285225Y292857D01*
X285203D01*
X285147Y292853D01*
X285084Y292842D01*
X285014Y292831D01*
X284947Y292812D01*
X284881Y292787D01*
X284873Y292783D01*
X284851Y292776D01*
X284821Y292757D01*
X284784Y292739D01*
X284740Y292709D01*
X284692Y292679D01*
X284647Y292642D01*
X284607Y292602D01*
X284603Y292598D01*
X284588Y292583D01*
X284570Y292557D01*
X284548Y292528D01*
X284522Y292491D01*
X284496Y292446D01*
X284470Y292398D01*
X284444Y292346D01*
Y292343D01*
X284440Y292335D01*
X284437Y292324D01*
X284429Y292306D01*
X284422Y292283D01*
X284414Y292257D01*
X284403Y292228D01*
X284396Y292195D01*
X284377Y292117D01*
X284363Y292028D01*
X284351Y291936D01*
X284348Y291832D01*
Y291828D01*
Y291817D01*
Y291799D01*
X284351Y291776D01*
Y291747D01*
X284355Y291710D01*
X284359Y291673D01*
X284363Y291632D01*
X284377Y291540D01*
X284396Y291443D01*
X284425Y291347D01*
X284462Y291255D01*
Y291251D01*
X284470Y291244D01*
X284474Y291233D01*
X284485Y291218D01*
X284511Y291177D01*
X284551Y291125D01*
X284599Y291070D01*
X284659Y291014D01*
X284729Y290963D01*
X284807Y290914D01*
X284810D01*
X284818Y290911D01*
X284829Y290903D01*
X284847Y290896D01*
X284866Y290889D01*
X284892Y290881D01*
X284951Y290859D01*
X285025Y290840D01*
X285106Y290822D01*
X285195Y290807D01*
X285288Y290803D01*
X285325D01*
X285347Y290807D01*
X285369D01*
X285424Y290814D01*
X285491Y290822D01*
X285561Y290837D01*
X285639Y290859D01*
X285717Y290885D01*
X285720D01*
X285728Y290889D01*
X285735Y290892D01*
X285750Y290900D01*
X285791Y290918D01*
X285835Y290940D01*
X285887Y290966D01*
X285943Y290996D01*
X285994Y291029D01*
X286039Y291066D01*
Y291547D01*
X285284D01*
Y291850D01*
X286372D01*
Y290900D01*
X286368Y290896D01*
X286361Y290892D01*
X286346Y290881D01*
X286327Y290866D01*
X286305Y290851D01*
X286279Y290833D01*
X286246Y290811D01*
X286213Y290789D01*
X286135Y290740D01*
X286046Y290689D01*
X285954Y290641D01*
X285854Y290600D01*
X285850D01*
X285843Y290596D01*
X285828Y290593D01*
X285809Y290585D01*
X285783Y290578D01*
X285754Y290567D01*
X285720Y290559D01*
X285687Y290552D01*
X285606Y290533D01*
X285513Y290515D01*
X285413Y290504D01*
X285310Y290500D01*
X285273D01*
X285247Y290504D01*
X285214D01*
X285173Y290507D01*
X285128Y290515D01*
X285080Y290518D01*
X284973Y290541D01*
X284858Y290567D01*
X284740Y290607D01*
X284681Y290630D01*
X284622Y290659D01*
X284618Y290663D01*
X284607Y290667D01*
X284592Y290678D01*
X284570Y290689D01*
X284544Y290707D01*
X284518Y290726D01*
X284448Y290777D01*
X284374Y290844D01*
X284296Y290926D01*
X284222Y291018D01*
X284155Y291125D01*
Y291129D01*
X284148Y291140D01*
X284141Y291155D01*
X284130Y291181D01*
X284118Y291207D01*
X284107Y291244D01*
X284092Y291281D01*
X284078Y291325D01*
X284063Y291373D01*
X284048Y291429D01*
X284037Y291484D01*
X284026Y291543D01*
X284007Y291673D01*
X284000Y291810D01*
Y291813D01*
Y291828D01*
Y291847D01*
X284004Y291873D01*
Y291906D01*
X284007Y291947D01*
X284015Y291987D01*
X284018Y292036D01*
X284030Y292087D01*
X284037Y292143D01*
X284067Y292261D01*
X284104Y292383D01*
X284155Y292505D01*
X284159Y292509D01*
X284163Y292520D01*
X284170Y292535D01*
X284185Y292557D01*
X284200Y292587D01*
X284218Y292616D01*
X284270Y292687D01*
X284333Y292768D01*
X284411Y292846D01*
X284500Y292923D01*
X284551Y292957D01*
X284603Y292990D01*
X284607Y292994D01*
X284618Y292998D01*
X284633Y293005D01*
X284655Y293016D01*
X284684Y293027D01*
X284718Y293042D01*
X284755Y293057D01*
X284799Y293072D01*
X284847Y293086D01*
X284899Y293097D01*
X284955Y293112D01*
X285014Y293123D01*
X285143Y293142D01*
X285210Y293149D01*
X285328D01*
X285350Y293145D01*
D02*
G37*
G36*
X288884Y290544D02*
X288532D01*
X287193Y292553D01*
Y290544D01*
X286867D01*
Y293105D01*
X287215D01*
X288558Y291092D01*
Y293105D01*
X288884D01*
Y290544D01*
D02*
G37*
G36*
X290505Y293101D02*
X290579Y293097D01*
X290653Y293090D01*
X290727Y293079D01*
X290790Y293068D01*
X290793D01*
X290801Y293064D01*
X290812D01*
X290827Y293057D01*
X290867Y293046D01*
X290919Y293027D01*
X290978Y293001D01*
X291041Y292968D01*
X291104Y292931D01*
X291163Y292883D01*
X291167Y292879D01*
X291171Y292875D01*
X291182Y292864D01*
X291196Y292853D01*
X291233Y292816D01*
X291278Y292764D01*
X291326Y292702D01*
X291378Y292628D01*
X291426Y292542D01*
X291467Y292446D01*
Y292442D01*
X291470Y292435D01*
X291478Y292420D01*
X291481Y292398D01*
X291493Y292372D01*
X291500Y292343D01*
X291507Y292309D01*
X291518Y292269D01*
X291529Y292228D01*
X291537Y292180D01*
X291555Y292076D01*
X291566Y291962D01*
X291570Y291836D01*
Y291832D01*
Y291825D01*
Y291806D01*
Y291788D01*
X291566Y291762D01*
Y291732D01*
X291563Y291662D01*
X291552Y291580D01*
X291541Y291495D01*
X291522Y291406D01*
X291500Y291318D01*
Y291314D01*
X291496Y291307D01*
X291493Y291296D01*
X291489Y291281D01*
X291474Y291240D01*
X291452Y291188D01*
X291430Y291129D01*
X291400Y291070D01*
X291363Y291007D01*
X291326Y290948D01*
X291322Y290940D01*
X291307Y290922D01*
X291285Y290896D01*
X291256Y290863D01*
X291222Y290826D01*
X291182Y290789D01*
X291141Y290748D01*
X291093Y290715D01*
X291086Y290711D01*
X291071Y290700D01*
X291045Y290685D01*
X291008Y290667D01*
X290963Y290644D01*
X290912Y290626D01*
X290852Y290604D01*
X290786Y290585D01*
X290778D01*
X290767Y290581D01*
X290756Y290578D01*
X290719Y290574D01*
X290667Y290567D01*
X290608Y290559D01*
X290538Y290552D01*
X290460Y290548D01*
X290375Y290544D01*
X289454D01*
Y293105D01*
X290438D01*
X290505Y293101D01*
D02*
G37*
G36*
X289801Y297567D02*
X289268D01*
X287780Y301407D01*
X288336D01*
X289335Y298616D01*
Y298610D01*
X289340Y298599D01*
X289346Y298582D01*
X289357Y298560D01*
X289362Y298527D01*
X289373Y298493D01*
X289401Y298410D01*
X289435Y298316D01*
X289468Y298210D01*
X289534Y297988D01*
Y297994D01*
X289540Y298005D01*
X289545Y298022D01*
X289551Y298044D01*
X289568Y298105D01*
X289595Y298188D01*
X289623Y298283D01*
X289656Y298388D01*
X289695Y298499D01*
X289740Y298616D01*
X290783Y301407D01*
X291299D01*
X289801Y297567D01*
D02*
G37*
G36*
X287364Y300908D02*
X285827D01*
X285622Y299870D01*
X285627Y299875D01*
X285638Y299881D01*
X285655Y299892D01*
X285683Y299909D01*
X285716Y299925D01*
X285755Y299948D01*
X285844Y299992D01*
X285955Y300036D01*
X286077Y300075D01*
X286210Y300103D01*
X286277Y300114D01*
X286399D01*
X286432Y300109D01*
X286476Y300103D01*
X286526Y300097D01*
X286582Y300086D01*
X286643Y300070D01*
X286776Y300031D01*
X286848Y300003D01*
X286920Y299964D01*
X286993Y299925D01*
X287065Y299881D01*
X287131Y299826D01*
X287198Y299764D01*
X287203Y299759D01*
X287214Y299748D01*
X287231Y299731D01*
X287253Y299703D01*
X287281Y299664D01*
X287309Y299626D01*
X287342Y299576D01*
X287375Y299520D01*
X287403Y299459D01*
X287437Y299393D01*
X287464Y299315D01*
X287492Y299237D01*
X287514Y299154D01*
X287531Y299060D01*
X287542Y298965D01*
X287547Y298865D01*
Y298860D01*
Y298843D01*
Y298815D01*
X287542Y298777D01*
X287536Y298732D01*
X287531Y298682D01*
X287520Y298621D01*
X287509Y298560D01*
X287475Y298416D01*
X287420Y298266D01*
X287386Y298188D01*
X287342Y298116D01*
X287298Y298038D01*
X287242Y297966D01*
X287237Y297961D01*
X287226Y297944D01*
X287203Y297922D01*
X287176Y297894D01*
X287137Y297861D01*
X287092Y297816D01*
X287037Y297778D01*
X286976Y297733D01*
X286909Y297689D01*
X286831Y297650D01*
X286748Y297611D01*
X286660Y297572D01*
X286565Y297544D01*
X286460Y297522D01*
X286349Y297505D01*
X286232Y297500D01*
X286182D01*
X286143Y297505D01*
X286099Y297511D01*
X286049Y297517D01*
X285988Y297522D01*
X285927Y297539D01*
X285788Y297572D01*
X285649Y297622D01*
X285577Y297655D01*
X285505Y297694D01*
X285438Y297739D01*
X285372Y297789D01*
X285366Y297794D01*
X285355Y297800D01*
X285344Y297822D01*
X285322Y297844D01*
X285294Y297872D01*
X285266Y297905D01*
X285233Y297950D01*
X285205Y298000D01*
X285172Y298049D01*
X285139Y298111D01*
X285078Y298244D01*
X285028Y298399D01*
X285011Y298482D01*
X285000Y298571D01*
X285494Y298610D01*
Y298604D01*
Y298593D01*
X285500Y298577D01*
X285505Y298549D01*
X285522Y298488D01*
X285544Y298405D01*
X285577Y298321D01*
X285622Y298227D01*
X285677Y298144D01*
X285744Y298066D01*
X285755Y298061D01*
X285777Y298038D01*
X285821Y298011D01*
X285882Y297977D01*
X285949Y297944D01*
X286032Y297916D01*
X286127Y297894D01*
X286232Y297888D01*
X286265D01*
X286288Y297894D01*
X286354Y297900D01*
X286432Y297922D01*
X286526Y297950D01*
X286621Y297994D01*
X286720Y298061D01*
X286765Y298099D01*
X286809Y298144D01*
X286815Y298149D01*
X286820Y298155D01*
X286831Y298171D01*
X286848Y298188D01*
X286887Y298249D01*
X286931Y298327D01*
X286970Y298421D01*
X287009Y298538D01*
X287037Y298677D01*
X287048Y298749D01*
Y298827D01*
Y298832D01*
Y298843D01*
Y298865D01*
X287042Y298893D01*
Y298926D01*
X287037Y298965D01*
X287020Y299054D01*
X286993Y299160D01*
X286954Y299265D01*
X286898Y299365D01*
X286820Y299459D01*
Y299465D01*
X286809Y299470D01*
X286782Y299498D01*
X286732Y299537D01*
X286665Y299581D01*
X286576Y299620D01*
X286476Y299659D01*
X286360Y299687D01*
X286293Y299698D01*
X286188D01*
X286143Y299692D01*
X286088Y299687D01*
X286021Y299670D01*
X285955Y299653D01*
X285882Y299626D01*
X285810Y299592D01*
X285805Y299587D01*
X285783Y299576D01*
X285749Y299548D01*
X285705Y299520D01*
X285660Y299481D01*
X285616Y299431D01*
X285566Y299381D01*
X285527Y299320D01*
X285083Y299381D01*
X285455Y301357D01*
X287364D01*
Y300908D01*
D02*
G37*
%LPC*%
G36*
X290386Y292801D02*
X289794D01*
Y290848D01*
X290401D01*
X290427Y290851D01*
X290482Y290855D01*
X290545Y290859D01*
X290612Y290866D01*
X290679Y290877D01*
X290734Y290892D01*
X290741Y290896D01*
X290760Y290900D01*
X290786Y290911D01*
X290819Y290926D01*
X290856Y290948D01*
X290893Y290970D01*
X290930Y290996D01*
X290967Y291025D01*
X290971Y291033D01*
X290986Y291048D01*
X291008Y291073D01*
X291034Y291110D01*
X291063Y291159D01*
X291097Y291214D01*
X291126Y291277D01*
X291152Y291347D01*
Y291351D01*
X291156Y291358D01*
X291160Y291370D01*
X291163Y291384D01*
X291167Y291403D01*
X291174Y291429D01*
X291182Y291455D01*
X291189Y291484D01*
X291200Y291558D01*
X291211Y291643D01*
X291219Y291740D01*
X291222Y291843D01*
Y291847D01*
Y291862D01*
Y291880D01*
X291219Y291910D01*
Y291943D01*
X291215Y291980D01*
X291211Y292024D01*
X291208Y292069D01*
X291189Y292169D01*
X291167Y292272D01*
X291134Y292369D01*
X291111Y292417D01*
X291089Y292457D01*
Y292461D01*
X291082Y292468D01*
X291074Y292479D01*
X291067Y292494D01*
X291037Y292531D01*
X291000Y292576D01*
X290952Y292624D01*
X290897Y292672D01*
X290834Y292713D01*
X290767Y292746D01*
X290760Y292750D01*
X290741Y292753D01*
X290708Y292764D01*
X290660Y292776D01*
X290601Y292783D01*
X290527Y292794D01*
X290482Y292798D01*
X290434D01*
X290386Y292801D01*
D02*
G37*
%LPD*%
D10*
X331732Y339000D02*
G03*
X331732Y339000I-492J0D01*
G01*
D11*
X356705Y337000D02*
G03*
X356311Y337000I-197J0D01*
G01*
D02*
G03*
X356705Y337000I197J0D01*
G01*
D12*
X584000Y257000D02*
X594000D01*
X584000Y317000D02*
X594000D01*
Y257000D02*
Y317000D01*
X584000Y257000D02*
Y317000D01*
X475000Y334000D02*
X535000D01*
X475000Y324000D02*
X535000D01*
Y334000D01*
X475000Y324000D02*
Y334000D01*
X343600Y317000D02*
X344500D01*
X364500D02*
X365400D01*
X344500D02*
Y320000D01*
X364500D01*
Y314000D02*
Y320000D01*
X344500Y314000D02*
X364500D01*
X344500D02*
Y317000D01*
X443000Y266000D02*
Y346000D01*
X423000Y266000D02*
Y346000D01*
X443000D01*
X423000Y266000D02*
X443000D01*
X484000Y229500D02*
Y309500D01*
X474000D02*
X484000D01*
X474000Y229500D02*
Y309500D01*
Y229500D02*
X484000D01*
Y207000D02*
X564000D01*
Y217000D01*
X484000D02*
X564000D01*
X484000Y207000D02*
Y217000D01*
X529500Y343000D02*
X530400D01*
X508600D02*
X509500D01*
X529500Y340000D02*
Y343000D01*
X509500Y340000D02*
X529500D01*
X509500D02*
Y346000D01*
X529500D01*
Y343000D02*
Y346000D01*
X490000Y368000D02*
Y368900D01*
Y347100D02*
Y348000D01*
Y368000D02*
X493000D01*
Y348000D02*
Y368000D01*
X487000Y348000D02*
X493000D01*
X487000D02*
Y368000D01*
X490000D01*
X374000Y377000D02*
X434000D01*
X374000Y387000D02*
X434000D01*
X374000Y377000D02*
Y387000D01*
X434000Y377000D02*
Y387000D01*
X464000D02*
X484000D01*
X464000Y377000D02*
Y387000D01*
Y377000D02*
X484000D01*
Y387000D01*
X544000Y377000D02*
Y387000D01*
X504000Y377000D02*
X544000D01*
X504000Y387000D02*
X544000D01*
X504000Y377000D02*
Y387000D01*
X328878Y319709D02*
Y333291D01*
X320020Y319709D02*
X328878D01*
X272185D02*
X308602D01*
X328878Y344709D02*
Y356716D01*
X272185Y319709D02*
Y356716D01*
X328878D01*
D13*
X421000Y299500D02*
Y308500D01*
Y314000D01*
X587002Y320001D02*
Y325999D01*
X590001D01*
X591000Y324999D01*
Y323000D01*
X590001Y322000D01*
X587002D01*
X593000Y324999D02*
X593999Y325999D01*
X595999D01*
X596998Y324999D01*
Y324000D01*
X595999Y323000D01*
X596998Y322000D01*
Y321001D01*
X595999Y320001D01*
X593999D01*
X593000Y321001D01*
Y322000D01*
X593999Y323000D01*
X593000Y324000D01*
Y324999D01*
X593999Y323000D02*
X595999D01*
X357100Y353998D02*
Y348000D01*
X361099D01*
X367097Y353998D02*
X363098D01*
Y348000D01*
X367097D01*
X363098Y350999D02*
X365097D01*
X369096Y353998D02*
Y348000D01*
X372095D01*
X373095Y349000D01*
Y352998D01*
X372095Y353998D01*
X369096D01*
X375094Y348000D02*
X377094D01*
X376094D01*
Y353998D01*
X375094Y352998D01*
X514002Y349001D02*
Y354999D01*
X517001D01*
X518000Y353999D01*
Y352000D01*
X517001Y351000D01*
X514002D01*
X516001D02*
X518000Y349001D01*
X520000Y353999D02*
X520999Y354999D01*
X522999D01*
X523998Y353999D01*
Y353000D01*
X522999Y352000D01*
X521999D01*
X522999D01*
X523998Y351000D01*
Y350001D01*
X522999Y349001D01*
X520999D01*
X520000Y350001D01*
X497001Y362498D02*
X502999D01*
Y359499D01*
X501999Y358500D01*
X500000D01*
X499000Y359499D01*
Y362498D01*
Y360499D02*
X497001Y358500D01*
Y352502D02*
Y356500D01*
X501000Y352502D01*
X501999D01*
X502999Y353501D01*
Y355501D01*
X501999Y356500D01*
X350001Y323501D02*
Y329499D01*
X353000D01*
X354000Y328499D01*
Y326500D01*
X353000Y325500D01*
X350001D01*
X352001D02*
X354000Y323501D01*
X355999D02*
X357999D01*
X356999D01*
Y329499D01*
X355999Y328499D01*
X517502Y220001D02*
Y225999D01*
X520501D01*
X521500Y224999D01*
Y223000D01*
X520501Y222000D01*
X517502D01*
X523500Y225999D02*
X527498D01*
Y224999D01*
X523500Y221001D01*
Y220001D01*
X447501Y312998D02*
X453499D01*
Y309999D01*
X452499Y309000D01*
X450500D01*
X449500Y309999D01*
Y312998D01*
X453499Y303002D02*
X452499Y305001D01*
X450500Y307000D01*
X448501D01*
X447501Y306001D01*
Y304001D01*
X448501Y303002D01*
X449500D01*
X450500Y304001D01*
Y307000D01*
X539001Y334498D02*
X544999D01*
Y331499D01*
X543999Y330500D01*
X542000D01*
X541000Y331499D01*
Y334498D01*
X544999Y324502D02*
Y328500D01*
X542000D01*
X543000Y326501D01*
Y325501D01*
X542000Y324502D01*
X540001D01*
X539001Y325501D01*
Y327501D01*
X540001Y328500D01*
X488501Y272498D02*
X494499D01*
Y269499D01*
X493499Y268500D01*
X491500D01*
X490500Y269499D01*
Y272498D01*
X488501Y263501D02*
X494499D01*
X491500Y266500D01*
Y262502D01*
X504002Y368501D02*
Y374499D01*
X507001D01*
X508000Y373499D01*
Y371500D01*
X507001Y370500D01*
X504002D01*
X510000Y373499D02*
X510999Y374499D01*
X512999D01*
X513998Y373499D01*
Y372500D01*
X512999Y371500D01*
X511999D01*
X512999D01*
X513998Y370500D01*
Y369501D01*
X512999Y368501D01*
X510999D01*
X510000Y369501D01*
X374502Y368001D02*
Y373999D01*
X377501D01*
X378500Y372999D01*
Y371000D01*
X377501Y370000D01*
X374502D01*
X384498Y368001D02*
X380500D01*
X384498Y372000D01*
Y372999D01*
X383499Y373999D01*
X381499D01*
X380500Y372999D01*
X464001Y369001D02*
Y374999D01*
X467000D01*
X468000Y373999D01*
Y372000D01*
X467000Y371000D01*
X464001D01*
X469999Y369001D02*
X471999D01*
X470999D01*
Y374999D01*
X469999Y373999D01*
X340999Y338500D02*
Y340499D01*
Y339500D01*
X336001D01*
X335001Y340499D01*
Y341499D01*
X336001Y342499D01*
X335001Y336501D02*
Y334501D01*
Y335501D01*
X340999D01*
X339999Y336501D01*
D14*
X436000Y264000D02*
Y262334D01*
Y263167D01*
X440998D01*
X440165Y264000D01*
X440998Y256502D02*
X440165Y258169D01*
X438499Y259835D01*
X436833D01*
X436000Y259002D01*
Y257335D01*
X436833Y256502D01*
X437666D01*
X438499Y257335D01*
Y259835D01*
X426000Y264000D02*
Y262334D01*
Y263167D01*
X430998D01*
X430165Y264000D01*
X430998Y256502D02*
Y259835D01*
X428499D01*
X429332Y258169D01*
Y257335D01*
X428499Y256502D01*
X426833D01*
X426000Y257335D01*
Y259002D01*
X426833Y259835D01*
X426000Y351000D02*
Y349334D01*
Y350167D01*
X430998D01*
X430165Y351000D01*
X436000Y348668D02*
Y352000D01*
X439332Y348668D01*
X440165D01*
X440998Y349501D01*
Y351167D01*
X440165Y352000D01*
M02*
