G04*
G04 #@! TF.GenerationSoftware,Altium Limited,Altium Designer,21.2.2 (38)*
G04*
G04 Layer_Color=32896*
%FSLAX25Y25*%
%MOIN*%
G70*
G04*
G04 #@! TF.SameCoordinates,29F7D32E-A79C-4082-AA7E-55410590E176*
G04*
G04*
G04 #@! TF.FilePolarity,Positive*
G04*
G01*
G75*
%ADD12C,0.00787*%
%ADD13C,0.01000*%
D12*
X584000Y217000D02*
Y397000D01*
X564000Y217000D02*
Y397000D01*
Y217000D02*
X584000D01*
X564000Y397000D02*
X584000D01*
X394000Y197000D02*
Y207000D01*
X474000D01*
Y197000D02*
Y207000D01*
X394000Y197000D02*
X474000D01*
X484000D02*
Y207000D01*
X564000D01*
Y197000D02*
Y207000D01*
X484000Y197000D02*
X564000D01*
X289000Y387000D02*
Y397000D01*
X369000D01*
Y387000D02*
Y397000D01*
X289000Y387000D02*
X369000D01*
X374000D02*
Y397000D01*
X454000D01*
Y387000D02*
Y397000D01*
X374000Y387000D02*
X454000D01*
X324000Y207000D02*
X384000D01*
X324000Y197000D02*
X384000D01*
Y207000D01*
X324000Y197000D02*
Y207000D01*
X464000Y387000D02*
X544000D01*
Y397000D01*
X464000D02*
X544000D01*
X464000Y387000D02*
Y397000D01*
D13*
X579000Y402000D02*
X589000Y392000D01*
Y352000D02*
Y392000D01*
Y351961D02*
X599000Y341961D01*
Y207000D02*
Y341961D01*
X589000Y197000D02*
X599000Y207000D01*
X589000Y192000D02*
Y197000D01*
X199000Y192000D02*
X205457D01*
X589000D01*
X199000D02*
Y198457D01*
Y402000D01*
X579000D01*
X411000Y259014D02*
X407001D01*
X405002Y261013D01*
X407001Y263013D01*
X411000D01*
X408001D01*
Y259014D01*
X407001Y265012D02*
X411000D01*
X409001D01*
X408001Y266012D01*
X407001Y267011D01*
Y268011D01*
X405002Y275009D02*
X411000D01*
Y272010D01*
X410001Y271010D01*
X408001D01*
X407001Y272010D01*
Y275009D01*
Y277008D02*
X410001D01*
X411000Y278008D01*
Y281007D01*
X407001D01*
X411000Y283006D02*
Y285006D01*
Y284006D01*
X407001D01*
Y283006D01*
X411000Y288005D02*
X407001D01*
Y291004D01*
X408001Y292003D01*
X411000D01*
Y295002D02*
Y297002D01*
X410001Y298002D01*
X408001D01*
X407001Y297002D01*
Y295002D01*
X408001Y294003D01*
X410001D01*
X411000Y295002D01*
Y305999D02*
X405002D01*
X407001Y307998D01*
X405002Y309998D01*
X411000D01*
Y314996D02*
Y312997D01*
X410001Y311997D01*
X408001D01*
X407001Y312997D01*
Y314996D01*
X408001Y315996D01*
X409001D01*
Y311997D01*
X413000Y319994D02*
Y320994D01*
X412000Y321994D01*
X407001D01*
Y318995D01*
X408001Y317995D01*
X410001D01*
X411000Y318995D01*
Y321994D01*
X407001Y324993D02*
Y326992D01*
X408001Y327992D01*
X411000D01*
Y324993D01*
X410001Y323993D01*
X409001Y324993D01*
Y327992D01*
X411000Y335989D02*
X405002D01*
Y338988D01*
X406002Y339988D01*
X408001D01*
X409001Y338988D01*
Y335989D01*
Y337988D02*
X411000Y339988D01*
X406002Y341987D02*
X405002Y342987D01*
Y344986D01*
X406002Y345986D01*
X407001D01*
X408001Y344986D01*
Y343987D01*
Y344986D01*
X409001Y345986D01*
X410001D01*
X411000Y344986D01*
Y342987D01*
X410001Y341987D01*
X268500Y411500D02*
Y407501D01*
X266501Y405502D01*
X264501Y407501D01*
Y411500D01*
Y408501D01*
X268500D01*
X262502Y407501D02*
Y411500D01*
Y409501D01*
X261502Y408501D01*
X260503Y407501D01*
X259503D01*
X252505Y405502D02*
Y411500D01*
X255504D01*
X256504Y410500D01*
Y408501D01*
X255504Y407501D01*
X252505D01*
X250506D02*
Y410500D01*
X249506Y411500D01*
X246507D01*
Y407501D01*
X244508Y411500D02*
X242508D01*
X243508D01*
Y407501D01*
X244508D01*
X239509Y411500D02*
Y407501D01*
X236510D01*
X235511Y408501D01*
Y411500D01*
X232512D02*
X230512D01*
X229513Y410500D01*
Y408501D01*
X230512Y407501D01*
X232512D01*
X233511Y408501D01*
Y410500D01*
X232512Y411500D01*
X221515D02*
Y405502D01*
X219516Y407501D01*
X217516Y405502D01*
Y411500D01*
X212518D02*
X214517D01*
X215517Y410500D01*
Y408501D01*
X214517Y407501D01*
X212518D01*
X211518Y408501D01*
Y409501D01*
X215517D01*
X207520Y413499D02*
X206520D01*
X205520Y412500D01*
Y407501D01*
X208519D01*
X209519Y408501D01*
Y410500D01*
X208519Y411500D01*
X205520D01*
X202521Y407501D02*
X200522D01*
X199522Y408501D01*
Y411500D01*
X202521D01*
X203521Y410500D01*
X202521Y409501D01*
X199522D01*
M02*
