M48
;Layer_Color=9474304
;FILE_FORMAT=2:5
INCH,LZ
;TYPE=PLATED
T1F00S00C0.02800
T2F00S00C0.03000
T3F00S00C0.03346
T4F00S00C0.03543
T5F00S00C0.03583
%
T01
X0414Y0298
T02
X0316994Y0227249
X0317011Y0235241
X0316994Y0243249
X0317011Y025124
X0316994Y0259249
X0317011Y0267241
X0316994Y0275249
X0317011Y0283241
X0316917Y0291433
X0316935Y0299424
X0326935
X0326918Y0291433
X0327011Y0283241
X0326994Y0275249
X0327011Y0267241
X0326994Y0259249
X0327011Y025124
X0326994Y0243249
X0327011Y0235241
X0326994Y0227249
X0336994
X0337011Y0235241
X0336994Y0243249
X0337011Y025124
X0336994Y0259249
X0337011Y0267241
X0336994Y0275249
X0337011Y0283241
X0336917Y0291433
X0336935Y0299424
X0346935
X0346918Y0291433
X0347011Y0283241
X0346994Y0275249
X0347011Y0267241
X0346994Y0259249
X0347011Y025124
X0346994Y0243249
X0347011Y0235241
X0346994Y0227249
X0356986Y0227132
X0357003Y0235123
X0356986Y0243132
X0357003Y0251123
X0356986Y0259132
X0357003Y0267123
X0356986Y0275132
X0357003Y0283123
X0356909Y0291316
X0356927Y0299307
X0366861Y0299231
X0366844Y029124
X0366938Y0283047
X036692Y0275056
X0366938Y0267047
X036692Y0259056
X0366938Y0251047
X036692Y0243056
X0366938Y0235047
X036692Y0227056
X037692
X0376938Y0235047
X037692Y0243056
X0376938Y0251047
X037692Y0259056
X0376938Y0267047
X037692Y0275056
X0376938Y0283047
X0376844Y029124
X0376861Y0299231
X0386861
X0386844Y029124
X0386938Y0283047
X038692Y0275056
X0386938Y0267047
X038692Y0259056
X0386938Y0251047
X038692Y0243056
X0386938Y0235047
X038692Y0227056
X039692
X0396938Y0235047
X039692Y0243056
X0396938Y0251047
X039692Y0259056
X0396938Y0267047
X039692Y0275056
X0396938Y0283047
X0396844Y029124
X0396861Y0299231
X0306935Y0299424
X0306918Y0291433
X0307011Y0283241
X0306994Y0275249
X0307011Y0267241
X0306994Y0259249
X0307011Y025124
X0306994Y0243249
X0307011Y0235241
X0306994Y0227249
X0297059Y0227325
X0297076Y0235316
X0297059Y0243325
X0297076Y0251316
X0297059Y0259325
X0297076Y0267316
X0297059Y0275325
X0297076Y0283316
X0296983Y0291509
X0297Y02995
T03
X03395Y0317
X03695
X049Y0343
X05045
X05345
X049Y0373
T04
X0469Y0202
X0489
Y0212
X0499
X0509
X0519
X0529
X0539
X0549
X0559
Y0202
X0549
X0539
X0529
X0519
X0509
X0499
X0479Y02345
Y02445
Y02545
Y02645
Y02745
Y02845
Y02945
Y03045
X0569Y0302
Y0312
X0579
X0589
Y0302
Y0292
Y0282
Y0272
Y0262
X0579
Y0272
Y0282
Y0292
Y0302
X0569Y0292
Y0282
Y0272
Y0262
Y0252
X0579
Y0242
X0569
Y0232
X0579
Y0222
X0569
X0459Y0202
X0449
X0439
X0429
X0419
X0409
X0399
X0379
X0369
X0359
X0349
X0339
X0329
X0428Y0271
X0438
Y0281
X0428
Y0291
X0438
Y0301
X0428
Y0311
X0438
X0304Y0392
X0294
X0314
X0324
X0334
X0344
X0354
X0364
X0379
Y0382
X0389
X0399
X0409
X0419
X0429
Y0392
X0439
X0449
X0419
X0409
X0399
X0389
X0428Y0341
Y0331
Y0321
X0438
Y0331
Y0341
X048Y0329
X049
X05
X051
X052
X053
X0569Y0332
Y0342
Y0352
Y0362
Y0372
Y0382
Y0392
X0579
Y0382
Y0372
Y0362
Y0352
Y0342
Y0332
Y0322
X0569
X0539Y0382
X0529
X0519
X0509
Y0392
X0499
X0489
X0479
Y0382
X0469
Y0392
X0519
X0529
X0539
T05
X0359658Y0337
X03695
M30
